<mxfile host="app.diagrams.net" modified="2024-04-24T12:19:02.573Z" agent="Mozilla/5.0 (Macintosh; Intel Mac OS X 10_15_7) AppleWebKit/537.36 (KHTML, like Gecko) Chrome/124.0.0.0 Safari/537.36" etag="dvVJ8WBBsjVPEZ-4br9Z" version="24.1.0" type="github">
  <diagram id="ADD6Pf1-iYHw3PYcDzVL" name="第 1 页">
    <mxGraphModel dx="3409" dy="235" grid="1" gridSize="10" guides="1" tooltips="1" connect="1" arrows="1" fold="1" page="1" pageScale="1" pageWidth="827" pageHeight="1169" math="1" shadow="0">
      <root>
        <mxCell id="0" />
        <mxCell id="1" parent="0" />
        <mxCell id="jL-DoHjZgoJ6Cv4gA63--163" value="" style="rounded=1;whiteSpace=wrap;html=1;strokeWidth=1;fillWeight=4;hachureGap=8;hachureAngle=45;sketch=0;fontFamily=Times New Roman;fontSize=14;shadow=0;glass=0;fillColor=#fff2cc;strokeColor=#d6b656;textOpacity=30;" parent="1" vertex="1">
          <mxGeometry x="-408.28" y="1183.54" width="64.06" height="24.95" as="geometry" />
        </mxCell>
        <mxCell id="jL-DoHjZgoJ6Cv4gA63--162" value="" style="rounded=1;whiteSpace=wrap;html=1;strokeWidth=1;fillWeight=4;hachureGap=8;hachureAngle=45;fillColor=#fff2cc;sketch=0;fontFamily=Times New Roman;fontSize=14;strokeColor=#d6b656;textOpacity=30;" parent="1" vertex="1">
          <mxGeometry x="-728" y="1184.02" width="68" height="24.95" as="geometry" />
        </mxCell>
        <mxCell id="jL-DoHjZgoJ6Cv4gA63--1" value="&lt;font style=&quot;font-size: 13px;&quot;&gt;And&lt;/font&gt;" style="rounded=0;whiteSpace=wrap;html=1;fontFamily=Times New Roman;fontSize=13;strokeColor=none;spacingBottom=-10;spacing=-10;spacingTop=-10;" parent="1" vertex="1">
          <mxGeometry x="-788" y="1336" width="50" height="12" as="geometry" />
        </mxCell>
        <mxCell id="jL-DoHjZgoJ6Cv4gA63--2" style="edgeStyle=orthogonalEdgeStyle;rounded=0;orthogonalLoop=1;jettySize=auto;html=1;entryX=0.365;entryY=0.995;entryDx=0;entryDy=0;entryPerimeter=0;fontFamily=Times New Roman;endArrow=classic;endFill=1;" parent="1" edge="1">
          <mxGeometry relative="1" as="geometry">
            <mxPoint x="-693" y="1343" as="sourcePoint" />
            <mxPoint x="-693.0999999999999" y="1322.7600000000002" as="targetPoint" />
          </mxGeometry>
        </mxCell>
        <mxCell id="jL-DoHjZgoJ6Cv4gA63--3" style="edgeStyle=orthogonalEdgeStyle;rounded=0;orthogonalLoop=1;jettySize=auto;html=1;entryX=0.634;entryY=1.003;entryDx=0;entryDy=0;entryPerimeter=0;exitX=0.502;exitY=0.053;exitDx=0;exitDy=0;exitPerimeter=0;fontFamily=Times New Roman;endArrow=classic;endFill=1;" parent="1" source="jL-DoHjZgoJ6Cv4gA63--28" edge="1">
          <mxGeometry relative="1" as="geometry">
            <mxPoint x="-623" y="1343" as="sourcePoint" />
            <mxPoint x="-623.1600000000003" y="1323.1440000000002" as="targetPoint" />
          </mxGeometry>
        </mxCell>
        <mxCell id="jL-DoHjZgoJ6Cv4gA63--4" style="edgeStyle=orthogonalEdgeStyle;rounded=0;orthogonalLoop=1;jettySize=auto;html=1;entryX=0.904;entryY=0.983;entryDx=0;entryDy=0;entryPerimeter=0;fontFamily=Times New Roman;endArrow=classic;endFill=1;" parent="1" edge="1">
          <mxGeometry relative="1" as="geometry">
            <mxPoint x="-553" y="1344" as="sourcePoint" />
            <mxPoint x="-552.9600000000005" y="1323.1840000000002" as="targetPoint" />
          </mxGeometry>
        </mxCell>
        <mxCell id="jL-DoHjZgoJ6Cv4gA63--5" style="edgeStyle=orthogonalEdgeStyle;rounded=0;orthogonalLoop=1;jettySize=auto;html=1;exitX=0.5;exitY=0;exitDx=0;exitDy=0;entryX=0.5;entryY=1;entryDx=0;entryDy=0;strokeWidth=1;fontSize=18;fontFamily=Times New Roman;" parent="1" source="jL-DoHjZgoJ6Cv4gA63--6" target="jL-DoHjZgoJ6Cv4gA63--162" edge="1">
          <mxGeometry relative="1" as="geometry">
            <mxPoint x="-694" y="1208.75" as="targetPoint" />
          </mxGeometry>
        </mxCell>
        <mxCell id="jL-DoHjZgoJ6Cv4gA63--6" value="" style="rounded=0;whiteSpace=wrap;html=1;fontSize=11;fillColor=#d5e8d4;strokeColor=#82b366;fontFamily=Times New Roman;strokeWidth=0.5;" parent="1" vertex="1">
          <mxGeometry x="-720.5" y="1235" width="53" height="17" as="geometry" />
        </mxCell>
        <mxCell id="jL-DoHjZgoJ6Cv4gA63--7" value="" style="shape=table;startSize=0;container=1;collapsible=0;childLayout=tableLayout;rounded=0;fillStyle=auto;strokeColor=#82b366;strokeWidth=0.5;fontSize=11;fillColor=#d5e8d4;fontFamily=Times New Roman;" parent="1" vertex="1">
          <mxGeometry x="-803" y="1188" width="53" height="69" as="geometry" />
        </mxCell>
        <mxCell id="jL-DoHjZgoJ6Cv4gA63--8" value="" style="shape=tableRow;horizontal=0;startSize=0;swimlaneHead=0;swimlaneBody=0;top=0;left=0;bottom=0;right=0;collapsible=0;dropTarget=0;fillColor=none;points=[[0,0.5],[1,0.5]];portConstraint=eastwest;rounded=0;fillStyle=auto;strokeColor=#000000;strokeWidth=1;fontSize=11;fontFamily=Times New Roman;" parent="jL-DoHjZgoJ6Cv4gA63--7" vertex="1">
          <mxGeometry width="53" height="19" as="geometry" />
        </mxCell>
        <mxCell id="jL-DoHjZgoJ6Cv4gA63--9" value="&lt;font style=&quot;font-size: 11px;&quot;&gt;enemy&lt;/font&gt;" style="shape=partialRectangle;html=1;whiteSpace=wrap;connectable=0;overflow=hidden;fillColor=none;top=0;left=0;bottom=0;right=0;pointerEvents=1;rounded=0;fillStyle=auto;strokeColor=#000000;strokeWidth=1;fontSize=11;fontFamily=Times New Roman;" parent="jL-DoHjZgoJ6Cv4gA63--8" vertex="1">
          <mxGeometry width="53" height="19" as="geometry">
            <mxRectangle width="53" height="19" as="alternateBounds" />
          </mxGeometry>
        </mxCell>
        <mxCell id="jL-DoHjZgoJ6Cv4gA63--10" style="shape=tableRow;horizontal=0;startSize=0;swimlaneHead=0;swimlaneBody=0;top=0;left=0;bottom=0;right=0;collapsible=0;dropTarget=0;fillColor=none;points=[[0,0.5],[1,0.5]];portConstraint=eastwest;rounded=0;fillStyle=auto;strokeColor=#000000;strokeWidth=1;fontSize=11;fontFamily=Times New Roman;" parent="jL-DoHjZgoJ6Cv4gA63--7" vertex="1">
          <mxGeometry y="19" width="53" height="17" as="geometry" />
        </mxCell>
        <mxCell id="jL-DoHjZgoJ6Cv4gA63--11" value="disease" style="shape=partialRectangle;html=1;whiteSpace=wrap;connectable=0;overflow=hidden;fillColor=none;top=0;left=0;bottom=0;right=0;pointerEvents=1;rounded=0;fillStyle=auto;strokeColor=#000000;strokeWidth=1;fontSize=11;fontFamily=Times New Roman;spacingBottom=-10;spacingTop=-12;" parent="jL-DoHjZgoJ6Cv4gA63--10" vertex="1">
          <mxGeometry width="53" height="17" as="geometry">
            <mxRectangle width="53" height="17" as="alternateBounds" />
          </mxGeometry>
        </mxCell>
        <mxCell id="jL-DoHjZgoJ6Cv4gA63--12" value="" style="shape=tableRow;horizontal=0;startSize=0;swimlaneHead=0;swimlaneBody=0;top=0;left=0;bottom=0;right=0;collapsible=0;dropTarget=0;fillColor=none;points=[[0,0.5],[1,0.5]];portConstraint=eastwest;rounded=0;fillStyle=auto;strokeColor=#000000;strokeWidth=1;fontSize=11;fontFamily=Times New Roman;" parent="jL-DoHjZgoJ6Cv4gA63--7" vertex="1">
          <mxGeometry y="36" width="53" height="17" as="geometry" />
        </mxCell>
        <mxCell id="jL-DoHjZgoJ6Cv4gA63--13" value="desperate" style="shape=partialRectangle;html=1;whiteSpace=wrap;connectable=0;overflow=hidden;fillColor=none;top=0;left=0;bottom=0;right=0;pointerEvents=1;rounded=0;fillStyle=auto;strokeColor=#000000;strokeWidth=0.5;fontSize=11;fontFamily=Times New Roman;verticalAlign=bottom;spacingTop=-2;spacingBottom=0;" parent="jL-DoHjZgoJ6Cv4gA63--12" vertex="1">
          <mxGeometry width="53" height="17" as="geometry">
            <mxRectangle width="53" height="17" as="alternateBounds" />
          </mxGeometry>
        </mxCell>
        <mxCell id="jL-DoHjZgoJ6Cv4gA63--14" value="" style="shape=tableRow;horizontal=0;startSize=0;swimlaneHead=0;swimlaneBody=0;top=0;left=0;bottom=0;right=0;collapsible=0;dropTarget=0;fillColor=none;points=[[0,0.5],[1,0.5]];portConstraint=eastwest;rounded=0;fillStyle=auto;strokeColor=#000000;strokeWidth=1;fontSize=11;fontFamily=Times New Roman;" parent="jL-DoHjZgoJ6Cv4gA63--7" vertex="1">
          <mxGeometry y="53" width="53" height="16" as="geometry" />
        </mxCell>
        <mxCell id="jL-DoHjZgoJ6Cv4gA63--15" value="..." style="shape=partialRectangle;html=1;whiteSpace=wrap;connectable=0;overflow=hidden;fillColor=none;top=0;left=0;bottom=0;right=0;pointerEvents=1;rounded=0;fillStyle=auto;strokeColor=#000000;strokeWidth=1;fontSize=11;fontFamily=Times New Roman;" parent="jL-DoHjZgoJ6Cv4gA63--14" vertex="1">
          <mxGeometry width="53" height="16" as="geometry">
            <mxRectangle width="53" height="16" as="alternateBounds" />
          </mxGeometry>
        </mxCell>
        <mxCell id="jL-DoHjZgoJ6Cv4gA63--18" style="edgeStyle=orthogonalEdgeStyle;rounded=0;orthogonalLoop=1;jettySize=auto;html=1;entryX=0;entryY=0.5;entryDx=0;entryDy=0;strokeColor=#000000;strokeWidth=1;fontFamily=Times New Roman;fontSize=12;fontColor=#EA6B66;exitX=0.998;exitY=0.434;exitDx=0;exitDy=0;exitPerimeter=0;" parent="1" source="jL-DoHjZgoJ6Cv4gA63--8" target="jL-DoHjZgoJ6Cv4gA63--162" edge="1">
          <mxGeometry relative="1" as="geometry">
            <mxPoint x="-713.5" y="1197.5" as="targetPoint" />
          </mxGeometry>
        </mxCell>
        <mxCell id="jL-DoHjZgoJ6Cv4gA63--19" style="edgeStyle=orthogonalEdgeStyle;rounded=0;orthogonalLoop=1;jettySize=auto;html=1;exitX=0.5;exitY=0;exitDx=0;exitDy=0;entryX=0.5;entryY=1;entryDx=0;entryDy=0;strokeWidth=1;fontSize=18;fontFamily=Times New Roman;" parent="1" source="jL-DoHjZgoJ6Cv4gA63--20" edge="1">
          <mxGeometry relative="1" as="geometry">
            <mxPoint x="-376.25" y="1206.4" as="targetPoint" />
          </mxGeometry>
        </mxCell>
        <mxCell id="jL-DoHjZgoJ6Cv4gA63--20" value="" style="rounded=0;whiteSpace=wrap;html=1;fontSize=11;fillColor=#dae8fc;strokeColor=#6c8ebf;fontFamily=Times New Roman;strokeWidth=0.5;" parent="1" vertex="1">
          <mxGeometry x="-402.75" y="1233.65" width="53" height="17" as="geometry" />
        </mxCell>
        <mxCell id="jL-DoHjZgoJ6Cv4gA63--21" style="edgeStyle=orthogonalEdgeStyle;rounded=0;orthogonalLoop=1;jettySize=auto;html=1;entryX=0.5;entryY=1;entryDx=0;entryDy=0;strokeColor=#000000;strokeWidth=1;fontFamily=Times New Roman;fontSize=12;fontColor=#EA6B66;exitX=0.372;exitY=0;exitDx=0;exitDy=0;exitPerimeter=0;" parent="1" target="jL-DoHjZgoJ6Cv4gA63--20" edge="1">
          <mxGeometry relative="1" as="geometry">
            <mxPoint x="-376.2800000000002" y="1271.52" as="sourcePoint" />
            <mxPoint x="-375.35000000000036" y="1238.404" as="targetPoint" />
          </mxGeometry>
        </mxCell>
        <mxCell id="jL-DoHjZgoJ6Cv4gA63--22" style="edgeStyle=orthogonalEdgeStyle;rounded=0;orthogonalLoop=1;jettySize=auto;html=1;strokeColor=#000000;strokeWidth=1;fontFamily=Times New Roman;fontSize=11;fontColor=#000000;entryX=-0.009;entryY=0.497;entryDx=0;entryDy=0;entryPerimeter=0;" parent="1" target="jL-DoHjZgoJ6Cv4gA63--24" edge="1">
          <mxGeometry relative="1" as="geometry">
            <mxPoint x="-343.76448275862094" y="1196.1406896551725" as="sourcePoint" />
            <mxPoint x="-314" y="1196.52" as="targetPoint" />
          </mxGeometry>
        </mxCell>
        <mxCell id="jL-DoHjZgoJ6Cv4gA63--24" value="0.91 ������" style="text;html=1;align=center;verticalAlign=middle;resizable=0;points=[];autosize=1;fontSize=13;fontFamily=Times New Roman;spacingRight=-5;fillColor=#f5f5f5;fontColor=#333333;strokeColor=#666666;rounded=1;sketch=1;" parent="1" vertex="1">
          <mxGeometry x="-315" y="1181.5" width="60" height="30" as="geometry" />
        </mxCell>
        <mxCell id="jL-DoHjZgoJ6Cv4gA63--26" value="" style="group;fontFamily=Times New Roman;" parent="1" vertex="1" connectable="0">
          <mxGeometry x="-789" y="1326.82" width="260" height="75" as="geometry" />
        </mxCell>
        <mxCell id="jL-DoHjZgoJ6Cv4gA63--27" value="&lt;font color=&quot;#ff0000&quot; style=&quot;font-size: 13px;&quot;&gt;[MASK]&lt;/font&gt;" style="rounded=0;whiteSpace=wrap;html=1;fontFamily=Times New Roman;fontSize=13;strokeColor=none;spacingBottom=-10;spacing=-10;spacingTop=-10;fontStyle=1" parent="1" vertex="1">
          <mxGeometry x="-717.5" y="1336" width="50" height="12" as="geometry" />
        </mxCell>
        <mxCell id="jL-DoHjZgoJ6Cv4gA63--28" value="&lt;font style=&quot;font-size: 13px;&quot;&gt;of&lt;/font&gt;" style="rounded=0;whiteSpace=wrap;html=1;fontFamily=Times New Roman;fontSize=13;strokeColor=none;spacingBottom=-10;spacing=-10;spacingTop=-10;fillColor=none;" parent="1" vertex="1">
          <mxGeometry x="-648" y="1336" width="50" height="12" as="geometry" />
        </mxCell>
        <mxCell id="jL-DoHjZgoJ6Cv4gA63--29" value="&lt;font style=&quot;font-size: 13px;&quot;&gt;...&lt;/font&gt;" style="rounded=0;whiteSpace=wrap;html=1;fontFamily=Times New Roman;fontSize=13;strokeColor=none;spacingBottom=-10;spacing=-10;spacingTop=-10;" parent="1" vertex="1">
          <mxGeometry x="-578" y="1336" width="50" height="12" as="geometry" />
        </mxCell>
        <mxCell id="jL-DoHjZgoJ6Cv4gA63--72" style="edgeStyle=orthogonalEdgeStyle;rounded=0;orthogonalLoop=1;jettySize=auto;html=1;entryX=0.365;entryY=0.995;entryDx=0;entryDy=0;entryPerimeter=0;fontFamily=Times New Roman;exitX=0.367;exitY=0;exitDx=0;exitDy=0;exitPerimeter=0;" parent="1" edge="1">
          <mxGeometry relative="1" as="geometry">
            <mxPoint x="-693.58" y="1273" as="sourcePoint" />
            <mxPoint x="-693.6300000000001" y="1251.75" as="targetPoint" />
          </mxGeometry>
        </mxCell>
        <mxCell id="jL-DoHjZgoJ6Cv4gA63--73" value="" style="group;fontFamily=Times New Roman;" parent="1" vertex="1" connectable="0">
          <mxGeometry x="-483" y="1339.82" width="260" height="75" as="geometry" />
        </mxCell>
        <mxCell id="jL-DoHjZgoJ6Cv4gA63--115" value="Source Encoder" style="rounded=1;whiteSpace=wrap;html=1;fontSize=15;fillColor=#d5e8d4;strokeColor=#82b366;strokeWidth=0.5;fillStyle=auto;fontFamily=Times New Roman;opacity=70;" parent="1" vertex="1">
          <mxGeometry x="-789" y="1354" width="260" height="34" as="geometry" />
        </mxCell>
        <mxCell id="jL-DoHjZgoJ6Cv4gA63--116" value="Source Encoder" style="rounded=1;whiteSpace=wrap;html=1;fontSize=15;fillColor=#dae8fc;strokeColor=#6c8ebf;strokeWidth=0.5;fillStyle=auto;fontFamily=Times New Roman;opacity=70;" parent="1" vertex="1">
          <mxGeometry x="-475" y="1353" width="260" height="34" as="geometry" />
        </mxCell>
        <mxCell id="jL-DoHjZgoJ6Cv4gA63--117" value="&lt;font style=&quot;font-size: 13px;&quot;&gt;Und&lt;/font&gt;" style="rounded=0;whiteSpace=wrap;html=1;fontFamily=Times New Roman;fontSize=13;strokeColor=none;spacingBottom=-10;spacing=-10;spacingTop=-10;" parent="1" vertex="1">
          <mxGeometry x="-788" y="1401.82" width="50" height="12" as="geometry" />
        </mxCell>
        <mxCell id="jL-DoHjZgoJ6Cv4gA63--118" style="edgeStyle=orthogonalEdgeStyle;rounded=0;orthogonalLoop=1;jettySize=auto;html=1;entryX=0.365;entryY=0.995;entryDx=0;entryDy=0;entryPerimeter=0;fontFamily=Times New Roman;endArrow=classic;endFill=1;" parent="1" edge="1">
          <mxGeometry relative="1" as="geometry">
            <mxPoint x="-693" y="1408.82" as="sourcePoint" />
            <mxPoint x="-693.0999999999999" y="1388.58" as="targetPoint" />
          </mxGeometry>
        </mxCell>
        <mxCell id="jL-DoHjZgoJ6Cv4gA63--119" style="edgeStyle=orthogonalEdgeStyle;rounded=0;orthogonalLoop=1;jettySize=auto;html=1;entryX=0.634;entryY=1.003;entryDx=0;entryDy=0;entryPerimeter=0;exitX=0.502;exitY=0.053;exitDx=0;exitDy=0;exitPerimeter=0;fontFamily=Times New Roman;endArrow=classic;endFill=1;" parent="1" source="jL-DoHjZgoJ6Cv4gA63--122" edge="1">
          <mxGeometry relative="1" as="geometry">
            <mxPoint x="-623" y="1408.82" as="sourcePoint" />
            <mxPoint x="-623.1600000000003" y="1388.9640000000002" as="targetPoint" />
          </mxGeometry>
        </mxCell>
        <mxCell id="jL-DoHjZgoJ6Cv4gA63--120" style="edgeStyle=orthogonalEdgeStyle;rounded=0;orthogonalLoop=1;jettySize=auto;html=1;entryX=0.904;entryY=0.983;entryDx=0;entryDy=0;entryPerimeter=0;fontFamily=Times New Roman;endArrow=classic;endFill=1;" parent="1" edge="1">
          <mxGeometry relative="1" as="geometry">
            <mxPoint x="-553" y="1408.82" as="sourcePoint" />
            <mxPoint x="-552.9600000000005" y="1388.0040000000001" as="targetPoint" />
          </mxGeometry>
        </mxCell>
        <mxCell id="jL-DoHjZgoJ6Cv4gA63--121" value="&lt;font style=&quot;font-size: 13px;&quot;&gt;der&lt;/font&gt;" style="rounded=0;whiteSpace=wrap;html=1;fontFamily=Times New Roman;fontSize=13;strokeColor=none;spacingBottom=-10;spacing=-10;spacingTop=-10;fontColor=#000000;" parent="1" vertex="1">
          <mxGeometry x="-717.5" y="1401.82" width="50" height="12" as="geometry" />
        </mxCell>
        <mxCell id="jL-DoHjZgoJ6Cv4gA63--122" value="gemeinsame" style="rounded=0;whiteSpace=wrap;html=1;fontFamily=Times New Roman;fontSize=13;strokeColor=none;spacingBottom=-10;spacing=-10;spacingTop=-10;fillColor=none;" parent="1" vertex="1">
          <mxGeometry x="-648" y="1401.82" width="50" height="12" as="geometry" />
        </mxCell>
        <mxCell id="jL-DoHjZgoJ6Cv4gA63--123" value="&lt;font style=&quot;font-size: 13px;&quot;&gt;...&lt;/font&gt;" style="rounded=0;whiteSpace=wrap;html=1;fontFamily=Times New Roman;fontSize=13;strokeColor=none;spacingBottom=-10;spacing=-10;spacingTop=-10;" parent="1" vertex="1">
          <mxGeometry x="-578" y="1401.82" width="50" height="12" as="geometry" />
        </mxCell>
        <mxCell id="jL-DoHjZgoJ6Cv4gA63--124" style="edgeStyle=orthogonalEdgeStyle;rounded=0;orthogonalLoop=1;jettySize=auto;html=1;entryX=0.365;entryY=0.995;entryDx=0;entryDy=0;entryPerimeter=0;fontFamily=Times New Roman;endArrow=classic;endFill=1;" parent="1" edge="1">
          <mxGeometry relative="1" as="geometry">
            <mxPoint x="-764" y="1401.82" as="sourcePoint" />
            <mxPoint x="-764" y="1388.8200000000002" as="targetPoint" />
          </mxGeometry>
        </mxCell>
        <mxCell id="jL-DoHjZgoJ6Cv4gA63--127" value="" style="html=1;verticalLabelPosition=bottom;align=center;labelBackgroundColor=#ffffff;verticalAlign=top;strokeWidth=1;shadow=0;dashed=0;shape=mxgraph.ios7.icons.document;labelBorderColor=none;fontFamily=Times New Roman;fontSize=13;opacity=40;fillColor=#f5f5f5;strokeColor=#666666;fontColor=#333333;sketch=1;" parent="1" vertex="1">
          <mxGeometry x="-632" y="1170" width="86" height="100" as="geometry" />
        </mxCell>
        <mxCell id="jL-DoHjZgoJ6Cv4gA63--128" value="&lt;font color=&quot;#000000&quot; style=&quot;font-size: 13px;&quot;&gt;enemy&lt;/font&gt;&lt;font color=&quot;#b3b3b3&quot; style=&quot;font-size: 13px;&quot;&gt;&amp;nbsp;&lt;/font&gt;&lt;font color=&quot;#000000&quot; style=&quot;font-size: 13px;&quot;&gt;&amp;nbsp;&amp;nbsp;&lt;/font&gt;&lt;font style=&quot;font-size: 13px;&quot; color=&quot;#000000&quot;&gt;&lt;br style=&quot;font-size: 13px;&quot;&gt;phthisis&amp;nbsp; &amp;nbsp; &amp;nbsp; &amp;nbsp; &amp;nbsp;&amp;nbsp;&lt;/font&gt;&lt;br style=&quot;font-size: 13px;&quot;&gt;&lt;font color=&quot;#000000&quot; style=&quot;font-size: 13px;&quot;&gt;pandeic&amp;nbsp; &amp;nbsp;&amp;nbsp;&lt;br style=&quot;font-size: 13px;&quot;&gt;...&amp;nbsp; &amp;nbsp; &amp;nbsp; &amp;nbsp; &amp;nbsp; &amp;nbsp; &amp;nbsp;...&lt;br style=&quot;font-size: 13px;&quot;&gt;&lt;/font&gt;" style="rounded=0;whiteSpace=wrap;html=1;labelBorderColor=none;strokeColor=none;strokeWidth=1;fontFamily=Times New Roman;fontSize=13;fontColor=#FF0000;fillColor=none;opacity=80;align=left;" parent="1" vertex="1">
          <mxGeometry x="-629" y="1201.5" width="83" height="58" as="geometry" />
        </mxCell>
        <mxCell id="jL-DoHjZgoJ6Cv4gA63--129" value="Vocab.&amp;nbsp; &amp;nbsp; Prob." style="text;html=1;align=left;verticalAlign=middle;resizable=0;points=[];autosize=1;strokeColor=none;fillColor=none;fontSize=13;fontFamily=Times New Roman;fontColor=#000000;" parent="1" vertex="1">
          <mxGeometry x="-631" y="1171.5" width="100" height="30" as="geometry" />
        </mxCell>
        <mxCell id="jL-DoHjZgoJ6Cv4gA63--133" style="edgeStyle=orthogonalEdgeStyle;rounded=0;orthogonalLoop=1;jettySize=auto;html=1;exitX=0;exitY=0.5;exitDx=0;exitDy=0;entryX=0;entryY=0.5;entryDx=0;entryDy=0;fontFamily=Times New Roman;fontSize=10;fontColor=#000000;endArrow=ERzeroToMany;endFill=0;fillColor=#d5e8d4;strokeColor=#82b366;" parent="1" source="jL-DoHjZgoJ6Cv4gA63--70" target="jL-DoHjZgoJ6Cv4gA63--115" edge="1">
          <mxGeometry relative="1" as="geometry" />
        </mxCell>
        <mxCell id="jL-DoHjZgoJ6Cv4gA63--134" value="Cross-lingual&lt;br style=&quot;font-size: 14px;&quot;&gt;Attention" style="edgeLabel;html=1;align=center;verticalAlign=middle;resizable=0;points=[];fontSize=14;rotation=-90;labelBackgroundColor=none;fontFamily=Times New Roman;" parent="jL-DoHjZgoJ6Cv4gA63--133" vertex="1" connectable="0">
          <mxGeometry x="-0.0062" y="1" relative="1" as="geometry">
            <mxPoint x="-2" as="offset" />
          </mxGeometry>
        </mxCell>
        <mxCell id="jL-DoHjZgoJ6Cv4gA63--135" style="edgeStyle=orthogonalEdgeStyle;rounded=0;orthogonalLoop=1;jettySize=auto;html=1;exitX=0;exitY=0.5;exitDx=0;exitDy=0;entryX=0;entryY=0.5;entryDx=0;entryDy=0;fontFamily=Times New Roman;fontSize=10;fontColor=#000000;endArrow=ERzeroToMany;endFill=0;fillColor=#dae8fc;strokeColor=#6c8ebf;" parent="1" source="UXUbac45LYqV1Sa2sKH3-2" target="jL-DoHjZgoJ6Cv4gA63--116" edge="1">
          <mxGeometry relative="1" as="geometry">
            <Array as="points">
              <mxPoint x="-500" y="1296" />
              <mxPoint x="-500" y="1370" />
            </Array>
            <mxPoint x="-475" y="1291.5" as="sourcePoint" />
          </mxGeometry>
        </mxCell>
        <mxCell id="jL-DoHjZgoJ6Cv4gA63--136" value="Cross-lingual&lt;br style=&quot;font-size: 14px;&quot;&gt;Attention" style="edgeLabel;html=1;align=center;verticalAlign=middle;resizable=0;points=[];fontSize=14;rotation=-90;labelBackgroundColor=none;fontFamily=Times New Roman;" parent="jL-DoHjZgoJ6Cv4gA63--135" vertex="1" connectable="0">
          <mxGeometry x="0.0076" y="2" relative="1" as="geometry">
            <mxPoint x="-4" y="-3" as="offset" />
          </mxGeometry>
        </mxCell>
        <mxCell id="jL-DoHjZgoJ6Cv4gA63--137" value="&lt;font style=&quot;font-size: 13px;&quot;&gt;And&lt;/font&gt;" style="rounded=0;whiteSpace=wrap;html=1;fontFamily=Times New Roman;fontSize=13;strokeColor=none;spacingBottom=-10;spacing=-10;spacingTop=-10;fillColor=none;" parent="1" vertex="1">
          <mxGeometry x="-471" y="1337" width="50" height="12" as="geometry" />
        </mxCell>
        <mxCell id="jL-DoHjZgoJ6Cv4gA63--138" style="edgeStyle=orthogonalEdgeStyle;rounded=0;orthogonalLoop=1;jettySize=auto;html=1;entryX=0.365;entryY=0.995;entryDx=0;entryDy=0;entryPerimeter=0;fontFamily=Times New Roman;endArrow=classic;endFill=1;" parent="1" edge="1">
          <mxGeometry relative="1" as="geometry">
            <mxPoint x="-376" y="1344" as="sourcePoint" />
            <mxPoint x="-376.0999999999999" y="1323.7600000000002" as="targetPoint" />
          </mxGeometry>
        </mxCell>
        <mxCell id="jL-DoHjZgoJ6Cv4gA63--139" style="edgeStyle=orthogonalEdgeStyle;rounded=0;orthogonalLoop=1;jettySize=auto;html=1;entryX=0.634;entryY=1.003;entryDx=0;entryDy=0;entryPerimeter=0;exitX=0.502;exitY=0.053;exitDx=0;exitDy=0;exitPerimeter=0;fontFamily=Times New Roman;endArrow=classic;endFill=1;" parent="1" source="jL-DoHjZgoJ6Cv4gA63--142" edge="1">
          <mxGeometry relative="1" as="geometry">
            <mxPoint x="-306" y="1344" as="sourcePoint" />
            <mxPoint x="-306.1600000000003" y="1324.1440000000002" as="targetPoint" />
          </mxGeometry>
        </mxCell>
        <mxCell id="jL-DoHjZgoJ6Cv4gA63--140" style="edgeStyle=orthogonalEdgeStyle;rounded=0;orthogonalLoop=1;jettySize=auto;html=1;entryX=0.904;entryY=0.983;entryDx=0;entryDy=0;entryPerimeter=0;fontFamily=Times New Roman;endArrow=classic;endFill=1;" parent="1" edge="1">
          <mxGeometry relative="1" as="geometry">
            <mxPoint x="-236" y="1337" as="sourcePoint" />
            <mxPoint x="-235.96000000000072" y="1324.1840000000002" as="targetPoint" />
          </mxGeometry>
        </mxCell>
        <mxCell id="jL-DoHjZgoJ6Cv4gA63--141" value="&lt;font color=&quot;#ff0000&quot; style=&quot;font-size: 13px;&quot;&gt;phthisis&lt;/font&gt;" style="rounded=0;whiteSpace=wrap;html=1;fontFamily=Times New Roman;fontSize=13;strokeColor=none;spacingBottom=-10;spacing=-10;spacingTop=-10;fontStyle=1" parent="1" vertex="1">
          <mxGeometry x="-400.5" y="1337" width="50" height="12" as="geometry" />
        </mxCell>
        <mxCell id="jL-DoHjZgoJ6Cv4gA63--142" value="&lt;font style=&quot;font-size: 13px;&quot;&gt;of&lt;/font&gt;" style="rounded=0;whiteSpace=wrap;html=1;fontFamily=Times New Roman;fontSize=13;strokeColor=none;spacingBottom=-10;spacing=-10;spacingTop=-10;fillColor=none;" parent="1" vertex="1">
          <mxGeometry x="-331" y="1337" width="50" height="12" as="geometry" />
        </mxCell>
        <mxCell id="jL-DoHjZgoJ6Cv4gA63--143" style="edgeStyle=orthogonalEdgeStyle;rounded=0;orthogonalLoop=1;jettySize=auto;html=1;entryX=0.365;entryY=0.995;entryDx=0;entryDy=0;entryPerimeter=0;fontFamily=Times New Roman;endArrow=classic;endFill=1;" parent="1" edge="1">
          <mxGeometry relative="1" as="geometry">
            <mxPoint x="-447" y="1337" as="sourcePoint" />
            <mxPoint x="-447" y="1324.0000000000002" as="targetPoint" />
          </mxGeometry>
        </mxCell>
        <mxCell id="jL-DoHjZgoJ6Cv4gA63--144" value="&lt;font style=&quot;font-size: 13px;&quot;&gt;Und&lt;/font&gt;" style="rounded=0;whiteSpace=wrap;html=1;fontFamily=Times New Roman;fontSize=13;strokeColor=none;spacingBottom=-10;spacing=-10;spacingTop=-10;" parent="1" vertex="1">
          <mxGeometry x="-471" y="1400.82" width="50" height="12" as="geometry" />
        </mxCell>
        <mxCell id="jL-DoHjZgoJ6Cv4gA63--145" style="edgeStyle=orthogonalEdgeStyle;rounded=0;orthogonalLoop=1;jettySize=auto;html=1;entryX=0.365;entryY=0.995;entryDx=0;entryDy=0;entryPerimeter=0;fontFamily=Times New Roman;endArrow=classic;endFill=1;" parent="1" edge="1">
          <mxGeometry relative="1" as="geometry">
            <mxPoint x="-376" y="1407.82" as="sourcePoint" />
            <mxPoint x="-376.0999999999999" y="1387.58" as="targetPoint" />
          </mxGeometry>
        </mxCell>
        <mxCell id="jL-DoHjZgoJ6Cv4gA63--146" style="edgeStyle=orthogonalEdgeStyle;rounded=0;orthogonalLoop=1;jettySize=auto;html=1;entryX=0.634;entryY=1.003;entryDx=0;entryDy=0;entryPerimeter=0;exitX=0.502;exitY=0.053;exitDx=0;exitDy=0;exitPerimeter=0;fontFamily=Times New Roman;endArrow=classic;endFill=1;" parent="1" source="jL-DoHjZgoJ6Cv4gA63--149" edge="1">
          <mxGeometry relative="1" as="geometry">
            <mxPoint x="-306" y="1407.82" as="sourcePoint" />
            <mxPoint x="-306.1600000000003" y="1387.9640000000002" as="targetPoint" />
          </mxGeometry>
        </mxCell>
        <mxCell id="jL-DoHjZgoJ6Cv4gA63--147" style="edgeStyle=orthogonalEdgeStyle;rounded=0;orthogonalLoop=1;jettySize=auto;html=1;entryX=0.904;entryY=0.983;entryDx=0;entryDy=0;entryPerimeter=0;fontFamily=Times New Roman;endArrow=classic;endFill=1;" parent="1" edge="1">
          <mxGeometry relative="1" as="geometry">
            <mxPoint x="-236" y="1407.82" as="sourcePoint" />
            <mxPoint x="-235.96000000000072" y="1387.0040000000001" as="targetPoint" />
          </mxGeometry>
        </mxCell>
        <mxCell id="jL-DoHjZgoJ6Cv4gA63--148" value="&lt;font style=&quot;font-size: 13px;&quot;&gt;der&lt;/font&gt;" style="rounded=0;whiteSpace=wrap;html=1;fontFamily=Times New Roman;fontSize=13;strokeColor=none;spacingBottom=-10;spacing=-10;spacingTop=-10;fontColor=#000000;" parent="1" vertex="1">
          <mxGeometry x="-400.5" y="1400.82" width="50" height="12" as="geometry" />
        </mxCell>
        <mxCell id="jL-DoHjZgoJ6Cv4gA63--149" value="&lt;font style=&quot;font-size: 13px;&quot;&gt;gemeinsame&lt;/font&gt;" style="rounded=0;whiteSpace=wrap;html=1;fontFamily=Times New Roman;fontSize=13;strokeColor=none;spacingBottom=-10;spacing=-10;spacingTop=-10;fillColor=none;" parent="1" vertex="1">
          <mxGeometry x="-331" y="1400.82" width="50" height="12" as="geometry" />
        </mxCell>
        <mxCell id="jL-DoHjZgoJ6Cv4gA63--150" value="&lt;font style=&quot;font-size: 13px;&quot;&gt;...&lt;/font&gt;" style="rounded=0;whiteSpace=wrap;html=1;fontFamily=Times New Roman;fontSize=13;strokeColor=none;spacingBottom=-10;spacing=-10;spacingTop=-10;" parent="1" vertex="1">
          <mxGeometry x="-261" y="1400.82" width="50" height="12" as="geometry" />
        </mxCell>
        <mxCell id="jL-DoHjZgoJ6Cv4gA63--151" style="edgeStyle=orthogonalEdgeStyle;rounded=0;orthogonalLoop=1;jettySize=auto;html=1;entryX=0.365;entryY=0.995;entryDx=0;entryDy=0;entryPerimeter=0;fontFamily=Times New Roman;endArrow=classic;endFill=1;" parent="1" edge="1">
          <mxGeometry relative="1" as="geometry">
            <mxPoint x="-447" y="1400.82" as="sourcePoint" />
            <mxPoint x="-447" y="1387.8200000000002" as="targetPoint" />
          </mxGeometry>
        </mxCell>
        <mxCell id="jL-DoHjZgoJ6Cv4gA63--152" value="" style="endArrow=none;html=1;rounded=0;fontFamily=Times New Roman;fontSize=13;fontColor=#000000;strokeColor=#666666;opacity=40;" parent="1" edge="1">
          <mxGeometry width="50" height="50" relative="1" as="geometry">
            <mxPoint x="-629" y="1197.65" as="sourcePoint" />
            <mxPoint x="-550" y="1197.34" as="targetPoint" />
          </mxGeometry>
        </mxCell>
        <mxCell id="jL-DoHjZgoJ6Cv4gA63--153" value="&lt;font style=&quot;font-size: 13px;&quot;&gt;...&lt;/font&gt;" style="rounded=0;whiteSpace=wrap;html=1;fontFamily=Times New Roman;fontSize=13;strokeColor=none;spacingBottom=-10;spacing=-10;spacingTop=-10;" parent="1" vertex="1">
          <mxGeometry x="-261" y="1337" width="50" height="12" as="geometry" />
        </mxCell>
        <mxCell id="jL-DoHjZgoJ6Cv4gA63--154" value="Embedding Matrix" style="text;html=1;align=center;verticalAlign=middle;resizable=0;points=[];autosize=1;strokeColor=none;fillColor=none;fontSize=11;fontColor=#000000;fontFamily=Times New Roman;spacingTop=-10;spacingBottom=-10;" parent="1" vertex="1">
          <mxGeometry x="-827" y="1178" width="110" as="geometry" />
        </mxCell>
        <mxCell id="jL-DoHjZgoJ6Cv4gA63--155" value="&lt;font style=&quot;font-size: 14px;&quot;&gt;(a)&amp;nbsp; Baseline method&lt;/font&gt;" style="rounded=0;whiteSpace=wrap;html=1;fontFamily=Times New Roman;fontSize=13;strokeColor=none;spacingBottom=-10;spacing=-10;spacingTop=-10;fontColor=#000000;" parent="1" vertex="1">
          <mxGeometry x="-726" y="1419" width="125" height="12" as="geometry" />
        </mxCell>
        <mxCell id="jL-DoHjZgoJ6Cv4gA63--156" value="&lt;font style=&quot;font-size: 14px;&quot;&gt;(b)&amp;nbsp; Energy-based model&lt;/font&gt;" style="rounded=0;whiteSpace=wrap;html=1;fontFamily=Times New Roman;fontSize=11;strokeColor=none;spacingBottom=-10;spacing=-10;spacingTop=-10;fontColor=#000000;" parent="1" vertex="1">
          <mxGeometry x="-400" y="1418" width="125" height="12" as="geometry" />
        </mxCell>
        <mxCell id="jL-DoHjZgoJ6Cv4gA63--157" value="&lt;font style=&quot;font-size: 14px;&quot;&gt;$$S(w,\boldsymbol{x},\boldsymbol{c})$$&lt;/font&gt;" style="text;html=1;align=center;verticalAlign=middle;resizable=0;points=[];autosize=1;strokeColor=none;fillColor=none;fontSize=11;fontFamily=Times New Roman;rounded=0;glass=0;spacingLeft=-90;spacingRight=-90;spacingTop=-5;spacingBottom=-5;fontStyle=1;fontColor=#000000;" parent="1" vertex="1">
          <mxGeometry x="-416.25" y="1186.5" width="80" height="20" as="geometry" />
        </mxCell>
        <mxCell id="jL-DoHjZgoJ6Cv4gA63--159" value="$$P_b(w|\boldsymbol{x},\boldsymbol{c})$$" style="text;html=1;align=center;verticalAlign=middle;resizable=0;points=[];autosize=1;strokeColor=none;fillColor=none;fontSize=14;fontFamily=Times New Roman;spacing=-2;spacingLeft=-120;spacingRight=-120;fontStyle=1;labelBackgroundColor=none;labelBorderColor=none;" parent="1" vertex="1">
          <mxGeometry x="-709.5" y="1185.98" width="30" height="20" as="geometry" />
        </mxCell>
        <mxCell id="jL-DoHjZgoJ6Cv4gA63--160" value="$$\mathbf{h}_\mathrm{phthisis}$$" style="text;html=1;align=center;verticalAlign=middle;resizable=0;points=[];autosize=1;strokeColor=none;fillColor=none;fontSize=14;fontFamily=Times New Roman;spacingLeft=-90;spacingBottom=-10;spacingRight=-90;spacingTop=-10;" parent="1" vertex="1">
          <mxGeometry x="-396" y="1236.65" width="40" height="10" as="geometry" />
        </mxCell>
        <mxCell id="jL-DoHjZgoJ6Cv4gA63--161" value="$$\mathbf{h}_\mathrm{[MASK]}$$" style="text;html=1;align=center;verticalAlign=middle;resizable=0;points=[];autosize=1;strokeColor=none;fillColor=none;fontSize=14;fontFamily=Times New Roman;spacingLeft=-90;spacingRight=-90;spacingTop=-10;spacingBottom=-10;" parent="1" vertex="1">
          <mxGeometry x="-718" y="1237" width="50" height="10" as="geometry" />
        </mxCell>
        <mxCell id="jL-DoHjZgoJ6Cv4gA63--183" value="" style="shape=table;startSize=0;container=1;collapsible=0;childLayout=tableLayout;rounded=0;fillStyle=auto;strokeColor=#6c8ebf;strokeWidth=0.5;fontSize=11;fillColor=#dae8fc;fontFamily=Times New Roman;" parent="1" vertex="1">
          <mxGeometry x="-483" y="1188.52" width="53" height="17" as="geometry" />
        </mxCell>
        <mxCell id="jL-DoHjZgoJ6Cv4gA63--184" value="" style="shape=tableRow;horizontal=0;startSize=0;swimlaneHead=0;swimlaneBody=0;top=0;left=0;bottom=0;right=0;collapsible=0;dropTarget=0;fillColor=none;points=[[0,0.5],[1,0.5]];portConstraint=eastwest;rounded=0;fillStyle=auto;strokeColor=#000000;strokeWidth=1;fontSize=11;fontFamily=Times New Roman;" parent="jL-DoHjZgoJ6Cv4gA63--183" vertex="1">
          <mxGeometry width="53" height="17" as="geometry" />
        </mxCell>
        <mxCell id="jL-DoHjZgoJ6Cv4gA63--185" value="&lt;font style=&quot;font-size: 11px;&quot;&gt;&lt;br&gt;&lt;/font&gt;" style="shape=partialRectangle;html=1;whiteSpace=wrap;connectable=0;overflow=hidden;fillColor=none;top=0;left=0;bottom=0;right=0;pointerEvents=1;rounded=0;fillStyle=auto;strokeColor=#000000;strokeWidth=1;fontSize=11;fontFamily=Times New Roman;" parent="jL-DoHjZgoJ6Cv4gA63--184" vertex="1">
          <mxGeometry width="53" height="17" as="geometry">
            <mxRectangle width="53" height="17" as="alternateBounds" />
          </mxGeometry>
        </mxCell>
        <mxCell id="jL-DoHjZgoJ6Cv4gA63--192" value="$$\theta$$" style="text;html=1;align=center;verticalAlign=middle;resizable=0;points=[];autosize=1;strokeColor=none;fillColor=none;fontSize=13;fontFamily=Times New Roman;spacingLeft=-90;spacingBottom=-10;spacingRight=-90;spacingTop=-10;" parent="1" vertex="1">
          <mxGeometry x="-459" y="1192.5" width="-110" height="10" as="geometry" />
        </mxCell>
        <mxCell id="jL-DoHjZgoJ6Cv4gA63--199" style="edgeStyle=orthogonalEdgeStyle;rounded=0;orthogonalLoop=1;jettySize=auto;html=1;entryX=-0.008;entryY=0.5;entryDx=0;entryDy=0;strokeColor=#000000;strokeWidth=1;fontFamily=Times New Roman;fontSize=12;fontColor=#EA6B66;entryPerimeter=0;" parent="1" target="jL-DoHjZgoJ6Cv4gA63--163" edge="1">
          <mxGeometry relative="1" as="geometry">
            <mxPoint x="-430" y="1196.454132231405" as="sourcePoint" />
            <mxPoint x="-406.5" y="1196.45" as="targetPoint" />
          </mxGeometry>
        </mxCell>
        <mxCell id="jL-DoHjZgoJ6Cv4gA63--205" style="edgeStyle=orthogonalEdgeStyle;rounded=0;orthogonalLoop=1;jettySize=auto;html=1;entryX=-0.007;entryY=0.265;entryDx=0;entryDy=0;strokeColor=#000000;strokeWidth=1;fontFamily=Times New Roman;fontSize=12;fontColor=#EA6B66;entryPerimeter=0;exitX=1;exitY=0.5;exitDx=0;exitDy=0;" parent="1" source="jL-DoHjZgoJ6Cv4gA63--162" target="jL-DoHjZgoJ6Cv4gA63--127" edge="1">
          <mxGeometry relative="1" as="geometry">
            <mxPoint x="-674.69" y="1196.92" as="sourcePoint" />
            <mxPoint x="-651.19" y="1196.92" as="targetPoint" />
          </mxGeometry>
        </mxCell>
        <mxCell id="jL-DoHjZgoJ6Cv4gA63--206" value="������" style="text;html=1;align=center;verticalAlign=middle;resizable=0;points=[];autosize=1;strokeColor=none;fillColor=none;fontSize=13;fontFamily=Times New Roman;fontColor=#000000;" parent="1" vertex="1">
          <mxGeometry x="-555" y="1207.97" width="40" height="30" as="geometry" />
        </mxCell>
        <mxCell id="RXhsAgevbNJtIti1RbFG-1" value="&lt;font color=&quot;#000000&quot; style=&quot;font-size: 13px;&quot;&gt;0.08&lt;br style=&quot;font-size: 13px;&quot;&gt;&lt;/font&gt;" style="rounded=0;whiteSpace=wrap;html=1;labelBorderColor=none;strokeColor=none;strokeWidth=1;fontFamily=Times New Roman;fontSize=13;fontColor=#FF0000;fillColor=none;opacity=80;align=left;" parent="1" vertex="1">
          <mxGeometry x="-575" y="1212.97" width="28" height="20" as="geometry" />
        </mxCell>
        <mxCell id="RXhsAgevbNJtIti1RbFG-4" value="&lt;font color=&quot;#000000&quot; style=&quot;font-size: 13px;&quot;&gt;0.28&lt;br style=&quot;font-size: 13px;&quot;&gt;&lt;/font&gt;" style="rounded=0;whiteSpace=wrap;html=1;labelBorderColor=none;strokeColor=none;strokeWidth=1;fontFamily=Times New Roman;fontSize=13;fontColor=#FF0000;fillColor=none;opacity=80;align=left;" parent="1" vertex="1">
          <mxGeometry x="-575" y="1229" width="28" height="20" as="geometry" />
        </mxCell>
        <mxCell id="aoJKawos1cx4XAkxpYck-1" value="" style="group;fontFamily=Times New Roman;" parent="1" vertex="1" connectable="0">
          <mxGeometry x="-707.5" y="1640" width="287.5" height="84" as="geometry" />
        </mxCell>
        <mxCell id="aoJKawos1cx4XAkxpYck-2" value="" style="group;fontFamily=Times New Roman;" parent="aoJKawos1cx4XAkxpYck-1" vertex="1" connectable="0">
          <mxGeometry x="57.5" y="6.594893617021375" width="201.38" height="60.42638297872331" as="geometry" />
        </mxCell>
        <mxCell id="aoJKawos1cx4XAkxpYck-3" value="" style="group;rotation=-90;fontFamily=Times New Roman;" parent="aoJKawos1cx4XAkxpYck-2" vertex="1" connectable="0">
          <mxGeometry x="25.25" y="-22.3404255319149" width="60" height="98.74468085106385" as="geometry" />
        </mxCell>
        <mxCell id="aoJKawos1cx4XAkxpYck-4" value="" style="rounded=0;whiteSpace=wrap;html=1;fontFamily=Times New Roman;fontSize=2;strokeColor=#808080;rotation=-90;" parent="aoJKawos1cx4XAkxpYck-3" vertex="1">
          <mxGeometry x="-25" y="58.08510638297873" width="20" height="18.319148936170215" as="geometry" />
        </mxCell>
        <mxCell id="aoJKawos1cx4XAkxpYck-5" style="edgeStyle=none;rounded=0;orthogonalLoop=1;jettySize=auto;html=1;exitX=1;exitY=0.5;exitDx=0;exitDy=0;fontFamily=Times New Roman;fontSize=2;endArrow=none;endFill=0;strokeColor=#808080;" parent="aoJKawos1cx4XAkxpYck-3" source="aoJKawos1cx4XAkxpYck-6" edge="1">
          <mxGeometry relative="1" as="geometry">
            <mxPoint x="45" y="40.21276595744681" as="targetPoint" />
          </mxGeometry>
        </mxCell>
        <mxCell id="aoJKawos1cx4XAkxpYck-6" value="" style="rounded=0;whiteSpace=wrap;html=1;fontFamily=Times New Roman;fontSize=2;strokeColor=#808080;rotation=-90;" parent="aoJKawos1cx4XAkxpYck-3" vertex="1">
          <mxGeometry x="5" y="58.08510638297873" width="20" height="17.872340425531917" as="geometry" />
        </mxCell>
        <mxCell id="aoJKawos1cx4XAkxpYck-7" value="" style="rounded=0;whiteSpace=wrap;html=1;fontFamily=Times New Roman;fontSize=2;strokeColor=#808080;rotation=-90;" parent="aoJKawos1cx4XAkxpYck-3" vertex="1">
          <mxGeometry x="35" y="58.08510638297873" width="20" height="17.872340425531917" as="geometry" />
        </mxCell>
        <mxCell id="aoJKawos1cx4XAkxpYck-8" value="" style="rounded=0;whiteSpace=wrap;html=1;fontFamily=Times New Roman;fontSize=2;strokeColor=#808080;rotation=-90;" parent="aoJKawos1cx4XAkxpYck-3" vertex="1">
          <mxGeometry x="65" y="58.08510638297873" width="20" height="17.872340425531917" as="geometry" />
        </mxCell>
        <mxCell id="aoJKawos1cx4XAkxpYck-9" value="" style="rounded=0;whiteSpace=wrap;html=1;fontFamily=Times New Roman;fontSize=2;strokeColor=#808080;rotation=-90;" parent="aoJKawos1cx4XAkxpYck-3" vertex="1">
          <mxGeometry x="-25" y="22.3404255319149" width="20" height="17.872340425531917" as="geometry" />
        </mxCell>
        <mxCell id="aoJKawos1cx4XAkxpYck-10" style="edgeStyle=orthogonalEdgeStyle;rounded=0;orthogonalLoop=1;jettySize=auto;html=1;entryX=0;entryY=0.5;entryDx=0;entryDy=0;fontFamily=Times New Roman;fontSize=2;endArrow=none;endFill=0;strokeColor=#808080;" parent="aoJKawos1cx4XAkxpYck-3" source="aoJKawos1cx4XAkxpYck-4" target="aoJKawos1cx4XAkxpYck-9" edge="1">
          <mxGeometry relative="1" as="geometry" />
        </mxCell>
        <mxCell id="aoJKawos1cx4XAkxpYck-11" style="edgeStyle=none;rounded=0;orthogonalLoop=1;jettySize=auto;html=1;exitX=1;exitY=0.5;exitDx=0;exitDy=0;entryX=0;entryY=0.5;entryDx=0;entryDy=0;fontFamily=Times New Roman;fontSize=2;endArrow=none;endFill=0;strokeColor=#808080;" parent="aoJKawos1cx4XAkxpYck-3" source="aoJKawos1cx4XAkxpYck-6" target="aoJKawos1cx4XAkxpYck-9" edge="1">
          <mxGeometry relative="1" as="geometry" />
        </mxCell>
        <mxCell id="aoJKawos1cx4XAkxpYck-12" style="edgeStyle=none;rounded=0;orthogonalLoop=1;jettySize=auto;html=1;exitX=1;exitY=0.5;exitDx=0;exitDy=0;entryX=0;entryY=0.5;entryDx=0;entryDy=0;fontFamily=Times New Roman;fontSize=2;endArrow=none;endFill=0;strokeColor=#808080;" parent="aoJKawos1cx4XAkxpYck-3" source="aoJKawos1cx4XAkxpYck-7" target="aoJKawos1cx4XAkxpYck-9" edge="1">
          <mxGeometry relative="1" as="geometry" />
        </mxCell>
        <mxCell id="aoJKawos1cx4XAkxpYck-13" style="edgeStyle=none;rounded=0;orthogonalLoop=1;jettySize=auto;html=1;exitX=1;exitY=0.5;exitDx=0;exitDy=0;entryX=0;entryY=0.5;entryDx=0;entryDy=0;fontFamily=Times New Roman;fontSize=2;endArrow=none;endFill=0;strokeColor=#808080;" parent="aoJKawos1cx4XAkxpYck-3" source="aoJKawos1cx4XAkxpYck-8" target="aoJKawos1cx4XAkxpYck-9" edge="1">
          <mxGeometry relative="1" as="geometry" />
        </mxCell>
        <mxCell id="aoJKawos1cx4XAkxpYck-14" value="" style="rounded=0;whiteSpace=wrap;html=1;fontFamily=Times New Roman;fontSize=2;strokeColor=#808080;rotation=-90;" parent="aoJKawos1cx4XAkxpYck-3" vertex="1">
          <mxGeometry x="5" y="22.3404255319149" width="20" height="17.872340425531917" as="geometry" />
        </mxCell>
        <mxCell id="aoJKawos1cx4XAkxpYck-15" style="edgeStyle=none;rounded=0;orthogonalLoop=1;jettySize=auto;html=1;entryX=0;entryY=0.5;entryDx=0;entryDy=0;fontFamily=Times New Roman;fontSize=2;endArrow=none;endFill=0;exitX=1;exitY=0.5;exitDx=0;exitDy=0;strokeColor=#808080;" parent="aoJKawos1cx4XAkxpYck-3" source="aoJKawos1cx4XAkxpYck-4" target="aoJKawos1cx4XAkxpYck-14" edge="1">
          <mxGeometry relative="1" as="geometry" />
        </mxCell>
        <mxCell id="aoJKawos1cx4XAkxpYck-16" style="edgeStyle=none;rounded=0;orthogonalLoop=1;jettySize=auto;html=1;exitX=1;exitY=0.5;exitDx=0;exitDy=0;entryX=0;entryY=0.5;entryDx=0;entryDy=0;fontFamily=Times New Roman;fontSize=2;endArrow=none;endFill=0;strokeColor=#808080;" parent="aoJKawos1cx4XAkxpYck-3" source="aoJKawos1cx4XAkxpYck-6" target="aoJKawos1cx4XAkxpYck-14" edge="1">
          <mxGeometry relative="1" as="geometry" />
        </mxCell>
        <mxCell id="aoJKawos1cx4XAkxpYck-17" style="edgeStyle=none;rounded=0;orthogonalLoop=1;jettySize=auto;html=1;exitX=1;exitY=0.5;exitDx=0;exitDy=0;entryX=0;entryY=0.5;entryDx=0;entryDy=0;fontFamily=Times New Roman;fontSize=2;endArrow=none;endFill=0;strokeColor=#808080;" parent="aoJKawos1cx4XAkxpYck-3" source="aoJKawos1cx4XAkxpYck-7" target="aoJKawos1cx4XAkxpYck-14" edge="1">
          <mxGeometry relative="1" as="geometry" />
        </mxCell>
        <mxCell id="aoJKawos1cx4XAkxpYck-18" style="edgeStyle=none;rounded=0;orthogonalLoop=1;jettySize=auto;html=1;exitX=1;exitY=0.5;exitDx=0;exitDy=0;entryX=0;entryY=0.5;entryDx=0;entryDy=0;fontFamily=Times New Roman;fontSize=2;endArrow=none;endFill=0;strokeColor=#808080;" parent="aoJKawos1cx4XAkxpYck-3" source="aoJKawos1cx4XAkxpYck-8" target="aoJKawos1cx4XAkxpYck-14" edge="1">
          <mxGeometry relative="1" as="geometry" />
        </mxCell>
        <mxCell id="aoJKawos1cx4XAkxpYck-19" value="" style="rounded=0;whiteSpace=wrap;html=1;fontFamily=Times New Roman;fontSize=2;strokeColor=#808080;rotation=-90;" parent="aoJKawos1cx4XAkxpYck-3" vertex="1">
          <mxGeometry x="35" y="22.3404255319149" width="20" height="17.872340425531917" as="geometry" />
        </mxCell>
        <mxCell id="aoJKawos1cx4XAkxpYck-20" style="edgeStyle=none;rounded=0;orthogonalLoop=1;jettySize=auto;html=1;entryX=0;entryY=0.5;entryDx=0;entryDy=0;fontFamily=Times New Roman;fontSize=2;endArrow=none;endFill=0;exitX=1;exitY=0.5;exitDx=0;exitDy=0;strokeColor=#808080;" parent="aoJKawos1cx4XAkxpYck-3" source="aoJKawos1cx4XAkxpYck-4" target="aoJKawos1cx4XAkxpYck-19" edge="1">
          <mxGeometry relative="1" as="geometry" />
        </mxCell>
        <mxCell id="aoJKawos1cx4XAkxpYck-21" style="edgeStyle=none;rounded=0;orthogonalLoop=1;jettySize=auto;html=1;exitX=1;exitY=0.5;exitDx=0;exitDy=0;entryX=0;entryY=0.5;entryDx=0;entryDy=0;fontFamily=Times New Roman;fontSize=2;endArrow=none;endFill=0;strokeColor=#808080;" parent="aoJKawos1cx4XAkxpYck-3" source="aoJKawos1cx4XAkxpYck-7" target="aoJKawos1cx4XAkxpYck-19" edge="1">
          <mxGeometry relative="1" as="geometry" />
        </mxCell>
        <mxCell id="aoJKawos1cx4XAkxpYck-22" style="edgeStyle=none;rounded=0;orthogonalLoop=1;jettySize=auto;html=1;exitX=1;exitY=0.5;exitDx=0;exitDy=0;entryX=0;entryY=0.5;entryDx=0;entryDy=0;fontFamily=Times New Roman;fontSize=2;endArrow=none;endFill=0;strokeColor=#808080;" parent="aoJKawos1cx4XAkxpYck-3" source="aoJKawos1cx4XAkxpYck-8" target="aoJKawos1cx4XAkxpYck-19" edge="1">
          <mxGeometry relative="1" as="geometry" />
        </mxCell>
        <mxCell id="aoJKawos1cx4XAkxpYck-23" value="" style="rounded=0;whiteSpace=wrap;html=1;fontFamily=Times New Roman;fontSize=2;strokeColor=#808080;rotation=-90;" parent="aoJKawos1cx4XAkxpYck-3" vertex="1">
          <mxGeometry x="65" y="22.3404255319149" width="20" height="17.872340425531917" as="geometry" />
        </mxCell>
        <mxCell id="aoJKawos1cx4XAkxpYck-24" style="edgeStyle=none;rounded=0;orthogonalLoop=1;jettySize=auto;html=1;entryX=0;entryY=0.5;entryDx=0;entryDy=0;fontFamily=Times New Roman;fontSize=2;endArrow=none;endFill=0;exitX=1;exitY=0.5;exitDx=0;exitDy=0;strokeColor=#808080;" parent="aoJKawos1cx4XAkxpYck-3" source="aoJKawos1cx4XAkxpYck-4" target="aoJKawos1cx4XAkxpYck-23" edge="1">
          <mxGeometry relative="1" as="geometry" />
        </mxCell>
        <mxCell id="aoJKawos1cx4XAkxpYck-25" style="edgeStyle=none;rounded=0;orthogonalLoop=1;jettySize=auto;html=1;exitX=1;exitY=0.5;exitDx=0;exitDy=0;entryX=0;entryY=0.5;entryDx=0;entryDy=0;fontFamily=Times New Roman;fontSize=2;endArrow=none;endFill=0;strokeColor=#808080;" parent="aoJKawos1cx4XAkxpYck-3" source="aoJKawos1cx4XAkxpYck-6" target="aoJKawos1cx4XAkxpYck-23" edge="1">
          <mxGeometry relative="1" as="geometry" />
        </mxCell>
        <mxCell id="aoJKawos1cx4XAkxpYck-26" style="edgeStyle=none;rounded=0;orthogonalLoop=1;jettySize=auto;html=1;exitX=1;exitY=0.5;exitDx=0;exitDy=0;entryX=0;entryY=0.5;entryDx=0;entryDy=0;fontFamily=Times New Roman;fontSize=2;endArrow=none;endFill=0;strokeColor=#808080;" parent="aoJKawos1cx4XAkxpYck-3" source="aoJKawos1cx4XAkxpYck-7" target="aoJKawos1cx4XAkxpYck-23" edge="1">
          <mxGeometry relative="1" as="geometry" />
        </mxCell>
        <mxCell id="aoJKawos1cx4XAkxpYck-27" style="edgeStyle=none;rounded=0;orthogonalLoop=1;jettySize=auto;html=1;exitX=1;exitY=0.5;exitDx=0;exitDy=0;entryX=0;entryY=0.5;entryDx=0;entryDy=0;fontFamily=Times New Roman;fontSize=2;endArrow=none;endFill=0;strokeColor=#808080;" parent="aoJKawos1cx4XAkxpYck-3" source="aoJKawos1cx4XAkxpYck-8" target="aoJKawos1cx4XAkxpYck-23" edge="1">
          <mxGeometry relative="1" as="geometry" />
        </mxCell>
        <mxCell id="aoJKawos1cx4XAkxpYck-28" style="edgeStyle=none;rounded=0;orthogonalLoop=1;jettySize=auto;html=1;entryX=1;entryY=0.5;entryDx=0;entryDy=0;fontFamily=Times New Roman;fontSize=2;endArrow=none;endFill=0;strokeColor=#808080;" parent="aoJKawos1cx4XAkxpYck-3" source="aoJKawos1cx4XAkxpYck-4" target="aoJKawos1cx4XAkxpYck-4" edge="1">
          <mxGeometry relative="1" as="geometry" />
        </mxCell>
        <mxCell id="aoJKawos1cx4XAkxpYck-29" style="edgeStyle=none;rounded=0;orthogonalLoop=1;jettySize=auto;html=1;exitX=0;exitY=0.5;exitDx=0;exitDy=0;entryX=1;entryY=0.5;entryDx=0;entryDy=0;strokeColor=#808080;fontSize=1;fontColor=#999999;endArrow=none;endFill=0;fontFamily=Times New Roman;" parent="aoJKawos1cx4XAkxpYck-2" source="aoJKawos1cx4XAkxpYck-33" target="aoJKawos1cx4XAkxpYck-8" edge="1">
          <mxGeometry relative="1" as="geometry" />
        </mxCell>
        <mxCell id="aoJKawos1cx4XAkxpYck-30" style="edgeStyle=none;rounded=0;orthogonalLoop=1;jettySize=auto;html=1;exitX=0;exitY=0.5;exitDx=0;exitDy=0;entryX=1;entryY=0.5;entryDx=0;entryDy=0;strokeColor=#808080;fontSize=1;fontColor=#999999;endArrow=none;endFill=0;fontFamily=Times New Roman;" parent="aoJKawos1cx4XAkxpYck-2" source="aoJKawos1cx4XAkxpYck-33" target="aoJKawos1cx4XAkxpYck-7" edge="1">
          <mxGeometry relative="1" as="geometry" />
        </mxCell>
        <mxCell id="aoJKawos1cx4XAkxpYck-31" style="edgeStyle=none;rounded=0;orthogonalLoop=1;jettySize=auto;html=1;entryX=1;entryY=0.5;entryDx=0;entryDy=0;strokeColor=#808080;fontSize=1;fontColor=#999999;endArrow=none;endFill=0;exitX=0;exitY=0.5;exitDx=0;exitDy=0;fontFamily=Times New Roman;" parent="aoJKawos1cx4XAkxpYck-2" source="aoJKawos1cx4XAkxpYck-33" target="aoJKawos1cx4XAkxpYck-6" edge="1">
          <mxGeometry relative="1" as="geometry" />
        </mxCell>
        <mxCell id="aoJKawos1cx4XAkxpYck-32" style="edgeStyle=none;rounded=0;orthogonalLoop=1;jettySize=auto;html=1;entryX=1;entryY=0.5;entryDx=0;entryDy=0;strokeColor=#808080;fontSize=1;fontColor=#999999;endArrow=none;endFill=0;exitX=0;exitY=0.5;exitDx=0;exitDy=0;fontFamily=Times New Roman;" parent="aoJKawos1cx4XAkxpYck-2" source="aoJKawos1cx4XAkxpYck-33" target="aoJKawos1cx4XAkxpYck-4" edge="1">
          <mxGeometry relative="1" as="geometry" />
        </mxCell>
        <mxCell id="aoJKawos1cx4XAkxpYck-33" value="" style="rounded=0;whiteSpace=wrap;html=1;fontFamily=Times New Roman;fontSize=2;strokeColor=#808080;rotation=-90;" parent="aoJKawos1cx4XAkxpYck-2" vertex="1">
          <mxGeometry x="122.75" width="20" height="17.872340425531917" as="geometry" />
        </mxCell>
        <mxCell id="aoJKawos1cx4XAkxpYck-34" value="" style="rounded=0;whiteSpace=wrap;html=1;fontFamily=Times New Roman;fontSize=2;strokeColor=#808080;rotation=-90;" parent="aoJKawos1cx4XAkxpYck-2" vertex="1">
          <mxGeometry x="122.75" y="35.74468085106383" width="20" height="17.872340425531917" as="geometry" />
        </mxCell>
        <mxCell id="aoJKawos1cx4XAkxpYck-35" style="rounded=0;orthogonalLoop=1;jettySize=auto;html=1;strokeColor=#808080;fontSize=1;fontColor=#999999;entryX=1;entryY=0.5;entryDx=0;entryDy=0;exitX=0;exitY=0.5;exitDx=0;exitDy=0;endArrow=none;endFill=0;fontFamily=Times New Roman;" parent="aoJKawos1cx4XAkxpYck-2" source="aoJKawos1cx4XAkxpYck-23" target="aoJKawos1cx4XAkxpYck-34" edge="1">
          <mxGeometry relative="1" as="geometry">
            <mxPoint x="127.25" y="33.95744680851064" as="targetPoint" />
          </mxGeometry>
        </mxCell>
        <mxCell id="aoJKawos1cx4XAkxpYck-36" style="edgeStyle=none;rounded=0;orthogonalLoop=1;jettySize=auto;html=1;entryX=1;entryY=0.5;entryDx=0;entryDy=0;strokeColor=#808080;fontSize=1;fontColor=#999999;endArrow=none;endFill=0;exitX=0;exitY=0.5;exitDx=0;exitDy=0;fontFamily=Times New Roman;" parent="aoJKawos1cx4XAkxpYck-2" source="aoJKawos1cx4XAkxpYck-9" target="aoJKawos1cx4XAkxpYck-34" edge="1">
          <mxGeometry relative="1" as="geometry">
            <mxPoint x="37.25" y="-1.7872340425531918" as="sourcePoint" />
          </mxGeometry>
        </mxCell>
        <mxCell id="aoJKawos1cx4XAkxpYck-37" style="edgeStyle=none;rounded=0;orthogonalLoop=1;jettySize=auto;html=1;entryX=1;entryY=0.5;entryDx=0;entryDy=0;strokeColor=#808080;fontSize=1;fontColor=#999999;endArrow=none;endFill=0;exitX=0;exitY=0.5;exitDx=0;exitDy=0;fontFamily=Times New Roman;" parent="aoJKawos1cx4XAkxpYck-2" source="aoJKawos1cx4XAkxpYck-14" target="aoJKawos1cx4XAkxpYck-34" edge="1">
          <mxGeometry relative="1" as="geometry" />
        </mxCell>
        <mxCell id="aoJKawos1cx4XAkxpYck-38" style="edgeStyle=none;rounded=0;orthogonalLoop=1;jettySize=auto;html=1;entryX=1;entryY=0.5;entryDx=0;entryDy=0;strokeColor=#808080;fontSize=1;fontColor=#999999;endArrow=none;endFill=0;exitX=0;exitY=0.5;exitDx=0;exitDy=0;fontFamily=Times New Roman;" parent="aoJKawos1cx4XAkxpYck-2" source="aoJKawos1cx4XAkxpYck-19" target="aoJKawos1cx4XAkxpYck-34" edge="1">
          <mxGeometry relative="1" as="geometry" />
        </mxCell>
        <mxCell id="aoJKawos1cx4XAkxpYck-39" style="edgeStyle=none;rounded=0;orthogonalLoop=1;jettySize=auto;html=1;entryX=0.93;entryY=0.515;entryDx=0;entryDy=0;entryPerimeter=0;strokeColor=#808080;fontSize=1;fontColor=#999999;endArrow=none;endFill=0;fontFamily=Times New Roman;" parent="aoJKawos1cx4XAkxpYck-2" source="aoJKawos1cx4XAkxpYck-33" target="aoJKawos1cx4XAkxpYck-34" edge="1">
          <mxGeometry relative="1" as="geometry" />
        </mxCell>
        <mxCell id="aoJKawos1cx4XAkxpYck-40" style="edgeStyle=none;rounded=0;orthogonalLoop=1;jettySize=auto;html=1;entryX=1;entryY=0.5;entryDx=0;entryDy=0;strokeColor=#808080;fontSize=1;fontColor=#999999;endArrow=none;endFill=0;exitX=0;exitY=0.5;exitDx=0;exitDy=0;fontFamily=Times New Roman;" parent="aoJKawos1cx4XAkxpYck-2" source="aoJKawos1cx4XAkxpYck-23" target="aoJKawos1cx4XAkxpYck-34" edge="1">
          <mxGeometry relative="1" as="geometry" />
        </mxCell>
        <mxCell id="M__NIEUhp5zPTn7HJFk_-1" value="&lt;font color=&quot;#000000&quot; style=&quot;font-size: 13px;&quot;&gt;0.36&lt;br style=&quot;font-size: 13px;&quot;&gt;&lt;/font&gt;" style="rounded=0;whiteSpace=wrap;html=1;labelBorderColor=none;strokeColor=none;strokeWidth=1;fontFamily=Times New Roman;fontSize=13;fontColor=#FF0000;fillColor=none;opacity=80;align=left;" parent="1" vertex="1">
          <mxGeometry x="-575" y="1196.97" width="28" height="20" as="geometry" />
        </mxCell>
        <mxCell id="YgQCFKHzvKGcxyU9BYiJ-3" value="" style="rounded=0;whiteSpace=wrap;html=1;" parent="1" vertex="1">
          <mxGeometry x="-390.75" y="1590" width="15" height="15" as="geometry" />
        </mxCell>
        <mxCell id="jL-DoHjZgoJ6Cv4gA63--71" style="edgeStyle=orthogonalEdgeStyle;rounded=0;orthogonalLoop=1;jettySize=auto;html=1;entryX=0.365;entryY=0.995;entryDx=0;entryDy=0;entryPerimeter=0;fontFamily=Times New Roman;endArrow=classic;endFill=1;" parent="1" edge="1">
          <mxGeometry relative="1" as="geometry">
            <mxPoint x="-764" y="1336" as="sourcePoint" />
            <mxPoint x="-763.9999999999999" y="1323.0000000000002" as="targetPoint" />
          </mxGeometry>
        </mxCell>
        <mxCell id="jL-DoHjZgoJ6Cv4gA63--58" style="edgeStyle=none;rounded=0;orthogonalLoop=1;jettySize=auto;html=1;exitX=0;exitY=0.5;exitDx=0;exitDy=0;entryX=1;entryY=0.5;entryDx=0;entryDy=0;strokeColor=#808080;fontSize=1;fontColor=#999999;endArrow=none;endFill=0;fontFamily=Times New Roman;" parent="1" source="jL-DoHjZgoJ6Cv4gA63--62" target="jL-DoHjZgoJ6Cv4gA63--37" edge="1">
          <mxGeometry relative="1" as="geometry" />
        </mxCell>
        <mxCell id="jL-DoHjZgoJ6Cv4gA63--59" style="edgeStyle=none;rounded=0;orthogonalLoop=1;jettySize=auto;html=1;exitX=0;exitY=0.5;exitDx=0;exitDy=0;entryX=1;entryY=0.5;entryDx=0;entryDy=0;strokeColor=#808080;fontSize=1;fontColor=#999999;endArrow=none;endFill=0;fontFamily=Times New Roman;" parent="1" source="jL-DoHjZgoJ6Cv4gA63--62" target="jL-DoHjZgoJ6Cv4gA63--36" edge="1">
          <mxGeometry relative="1" as="geometry" />
        </mxCell>
        <mxCell id="jL-DoHjZgoJ6Cv4gA63--60" style="edgeStyle=none;rounded=0;orthogonalLoop=1;jettySize=auto;html=1;entryX=1;entryY=0.5;entryDx=0;entryDy=0;strokeColor=#808080;fontSize=1;fontColor=#999999;endArrow=none;endFill=0;exitX=0;exitY=0.5;exitDx=0;exitDy=0;fontFamily=Times New Roman;" parent="1" source="jL-DoHjZgoJ6Cv4gA63--62" target="jL-DoHjZgoJ6Cv4gA63--35" edge="1">
          <mxGeometry relative="1" as="geometry" />
        </mxCell>
        <mxCell id="jL-DoHjZgoJ6Cv4gA63--61" style="edgeStyle=none;rounded=0;orthogonalLoop=1;jettySize=auto;html=1;entryX=1;entryY=0.5;entryDx=0;entryDy=0;strokeColor=#808080;fontSize=1;fontColor=#999999;endArrow=none;endFill=0;exitX=0;exitY=0.5;exitDx=0;exitDy=0;fontFamily=Times New Roman;" parent="1" source="jL-DoHjZgoJ6Cv4gA63--62" target="jL-DoHjZgoJ6Cv4gA63--33" edge="1">
          <mxGeometry relative="1" as="geometry" />
        </mxCell>
        <mxCell id="jL-DoHjZgoJ6Cv4gA63--62" value="" style="rounded=0;whiteSpace=wrap;html=1;fontFamily=Times New Roman;fontSize=2;strokeColor=#808080;rotation=-90;container=0;" parent="1" vertex="1">
          <mxGeometry x="-362.5" y="1515" width="20" height="20" as="geometry" />
        </mxCell>
        <mxCell id="jL-DoHjZgoJ6Cv4gA63--63" value="" style="rounded=0;whiteSpace=wrap;html=1;fontFamily=Times New Roman;fontSize=2;strokeColor=#808080;rotation=-90;container=0;" parent="1" vertex="1">
          <mxGeometry x="-362.5" y="1555" width="20" height="20" as="geometry" />
        </mxCell>
        <mxCell id="jL-DoHjZgoJ6Cv4gA63--64" style="rounded=0;orthogonalLoop=1;jettySize=auto;html=1;strokeColor=#808080;fontSize=1;fontColor=#999999;entryX=1;entryY=0.5;entryDx=0;entryDy=0;exitX=0;exitY=0.5;exitDx=0;exitDy=0;endArrow=none;endFill=0;fontFamily=Times New Roman;" parent="1" source="jL-DoHjZgoJ6Cv4gA63--52" target="jL-DoHjZgoJ6Cv4gA63--63" edge="1">
          <mxGeometry relative="1" as="geometry">
            <mxPoint x="-358" y="1553" as="targetPoint" />
          </mxGeometry>
        </mxCell>
        <mxCell id="jL-DoHjZgoJ6Cv4gA63--65" style="edgeStyle=none;rounded=0;orthogonalLoop=1;jettySize=auto;html=1;entryX=1;entryY=0.5;entryDx=0;entryDy=0;strokeColor=#808080;fontSize=1;fontColor=#999999;endArrow=none;endFill=0;exitX=0;exitY=0.5;exitDx=0;exitDy=0;fontFamily=Times New Roman;" parent="1" source="jL-DoHjZgoJ6Cv4gA63--38" target="jL-DoHjZgoJ6Cv4gA63--63" edge="1">
          <mxGeometry relative="1" as="geometry">
            <mxPoint x="-448" y="1513" as="sourcePoint" />
          </mxGeometry>
        </mxCell>
        <mxCell id="jL-DoHjZgoJ6Cv4gA63--66" style="edgeStyle=none;rounded=0;orthogonalLoop=1;jettySize=auto;html=1;entryX=1;entryY=0.5;entryDx=0;entryDy=0;strokeColor=#808080;fontSize=1;fontColor=#999999;endArrow=none;endFill=0;exitX=0;exitY=0.5;exitDx=0;exitDy=0;fontFamily=Times New Roman;" parent="1" source="jL-DoHjZgoJ6Cv4gA63--43" target="jL-DoHjZgoJ6Cv4gA63--63" edge="1">
          <mxGeometry relative="1" as="geometry" />
        </mxCell>
        <mxCell id="jL-DoHjZgoJ6Cv4gA63--67" style="edgeStyle=none;rounded=0;orthogonalLoop=1;jettySize=auto;html=1;entryX=1;entryY=0.5;entryDx=0;entryDy=0;strokeColor=#808080;fontSize=1;fontColor=#999999;endArrow=none;endFill=0;exitX=0;exitY=0.5;exitDx=0;exitDy=0;fontFamily=Times New Roman;" parent="1" source="jL-DoHjZgoJ6Cv4gA63--48" target="jL-DoHjZgoJ6Cv4gA63--63" edge="1">
          <mxGeometry relative="1" as="geometry" />
        </mxCell>
        <mxCell id="jL-DoHjZgoJ6Cv4gA63--68" style="edgeStyle=none;rounded=0;orthogonalLoop=1;jettySize=auto;html=1;strokeColor=#808080;fontSize=1;fontColor=#999999;endArrow=none;endFill=0;fontFamily=Times New Roman;entryX=1;entryY=0.5;entryDx=0;entryDy=0;" parent="1" source="jL-DoHjZgoJ6Cv4gA63--62" target="jL-DoHjZgoJ6Cv4gA63--63" edge="1">
          <mxGeometry relative="1" as="geometry">
            <mxPoint x="-353.75" y="1554.62" as="targetPoint" />
          </mxGeometry>
        </mxCell>
        <mxCell id="jL-DoHjZgoJ6Cv4gA63--69" style="edgeStyle=none;rounded=0;orthogonalLoop=1;jettySize=auto;html=1;entryX=1;entryY=0.5;entryDx=0;entryDy=0;strokeColor=#808080;fontSize=1;fontColor=#999999;endArrow=none;endFill=0;exitX=0;exitY=0.5;exitDx=0;exitDy=0;fontFamily=Times New Roman;" parent="1" source="jL-DoHjZgoJ6Cv4gA63--52" target="jL-DoHjZgoJ6Cv4gA63--63" edge="1">
          <mxGeometry relative="1" as="geometry" />
        </mxCell>
        <mxCell id="jL-DoHjZgoJ6Cv4gA63--33" value="" style="rounded=0;whiteSpace=wrap;html=1;fontFamily=Times New Roman;fontSize=2;strokeColor=#808080;rotation=-90;container=0;" parent="1" vertex="1">
          <mxGeometry x="-485" y="1555" width="20" height="20.5" as="geometry" />
        </mxCell>
        <mxCell id="jL-DoHjZgoJ6Cv4gA63--34" style="edgeStyle=none;rounded=0;orthogonalLoop=1;jettySize=auto;html=1;exitX=1;exitY=0.5;exitDx=0;exitDy=0;fontFamily=Times New Roman;fontSize=2;endArrow=none;endFill=0;strokeColor=#808080;" parent="1" source="jL-DoHjZgoJ6Cv4gA63--35" edge="1">
          <mxGeometry relative="1" as="geometry">
            <mxPoint x="-415" y="1535" as="targetPoint" />
          </mxGeometry>
        </mxCell>
        <mxCell id="jL-DoHjZgoJ6Cv4gA63--35" value="" style="rounded=0;whiteSpace=wrap;html=1;fontFamily=Times New Roman;fontSize=2;strokeColor=#808080;rotation=-90;container=0;" parent="1" vertex="1">
          <mxGeometry x="-455" y="1555" width="20" height="20" as="geometry" />
        </mxCell>
        <mxCell id="jL-DoHjZgoJ6Cv4gA63--36" value="" style="rounded=0;whiteSpace=wrap;html=1;fontFamily=Times New Roman;fontSize=2;strokeColor=#808080;rotation=-90;container=0;" parent="1" vertex="1">
          <mxGeometry x="-425" y="1555" width="20" height="20" as="geometry" />
        </mxCell>
        <mxCell id="jL-DoHjZgoJ6Cv4gA63--37" value="" style="rounded=0;whiteSpace=wrap;html=1;fontFamily=Times New Roman;fontSize=2;strokeColor=#808080;rotation=-90;container=0;" parent="1" vertex="1">
          <mxGeometry x="-395" y="1555" width="20" height="20" as="geometry" />
        </mxCell>
        <mxCell id="jL-DoHjZgoJ6Cv4gA63--38" value="" style="rounded=0;whiteSpace=wrap;html=1;fontFamily=Times New Roman;fontSize=2;strokeColor=#808080;rotation=-90;container=0;" parent="1" vertex="1">
          <mxGeometry x="-485" y="1515" width="20" height="20" as="geometry" />
        </mxCell>
        <mxCell id="jL-DoHjZgoJ6Cv4gA63--39" style="edgeStyle=orthogonalEdgeStyle;rounded=0;orthogonalLoop=1;jettySize=auto;html=1;entryX=0;entryY=0.5;entryDx=0;entryDy=0;fontFamily=Times New Roman;fontSize=2;endArrow=none;endFill=0;strokeColor=#808080;" parent="1" source="jL-DoHjZgoJ6Cv4gA63--33" target="jL-DoHjZgoJ6Cv4gA63--38" edge="1">
          <mxGeometry relative="1" as="geometry" />
        </mxCell>
        <mxCell id="jL-DoHjZgoJ6Cv4gA63--40" style="edgeStyle=none;rounded=0;orthogonalLoop=1;jettySize=auto;html=1;exitX=1;exitY=0.5;exitDx=0;exitDy=0;entryX=0;entryY=0.5;entryDx=0;entryDy=0;fontFamily=Times New Roman;fontSize=2;endArrow=none;endFill=0;strokeColor=#808080;" parent="1" source="jL-DoHjZgoJ6Cv4gA63--35" target="jL-DoHjZgoJ6Cv4gA63--38" edge="1">
          <mxGeometry relative="1" as="geometry" />
        </mxCell>
        <mxCell id="jL-DoHjZgoJ6Cv4gA63--41" style="edgeStyle=none;rounded=0;orthogonalLoop=1;jettySize=auto;html=1;exitX=1;exitY=0.5;exitDx=0;exitDy=0;entryX=0;entryY=0.5;entryDx=0;entryDy=0;fontFamily=Times New Roman;fontSize=2;endArrow=none;endFill=0;strokeColor=#808080;" parent="1" source="jL-DoHjZgoJ6Cv4gA63--36" target="jL-DoHjZgoJ6Cv4gA63--38" edge="1">
          <mxGeometry relative="1" as="geometry" />
        </mxCell>
        <mxCell id="jL-DoHjZgoJ6Cv4gA63--42" style="edgeStyle=none;rounded=0;orthogonalLoop=1;jettySize=auto;html=1;exitX=1;exitY=0.5;exitDx=0;exitDy=0;entryX=0;entryY=0.5;entryDx=0;entryDy=0;fontFamily=Times New Roman;fontSize=2;endArrow=none;endFill=0;strokeColor=#808080;" parent="1" source="jL-DoHjZgoJ6Cv4gA63--37" target="jL-DoHjZgoJ6Cv4gA63--38" edge="1">
          <mxGeometry relative="1" as="geometry" />
        </mxCell>
        <mxCell id="jL-DoHjZgoJ6Cv4gA63--43" value="" style="rounded=0;whiteSpace=wrap;html=1;fontFamily=Times New Roman;fontSize=2;strokeColor=#808080;rotation=-90;container=0;" parent="1" vertex="1">
          <mxGeometry x="-455" y="1515" width="20" height="20" as="geometry" />
        </mxCell>
        <mxCell id="jL-DoHjZgoJ6Cv4gA63--44" style="edgeStyle=none;rounded=0;orthogonalLoop=1;jettySize=auto;html=1;entryX=0;entryY=0.5;entryDx=0;entryDy=0;fontFamily=Times New Roman;fontSize=2;endArrow=none;endFill=0;exitX=1;exitY=0.5;exitDx=0;exitDy=0;strokeColor=#808080;" parent="1" source="jL-DoHjZgoJ6Cv4gA63--33" target="jL-DoHjZgoJ6Cv4gA63--43" edge="1">
          <mxGeometry relative="1" as="geometry" />
        </mxCell>
        <mxCell id="jL-DoHjZgoJ6Cv4gA63--45" style="edgeStyle=none;rounded=0;orthogonalLoop=1;jettySize=auto;html=1;exitX=1;exitY=0.5;exitDx=0;exitDy=0;entryX=0;entryY=0.5;entryDx=0;entryDy=0;fontFamily=Times New Roman;fontSize=2;endArrow=none;endFill=0;strokeColor=#808080;" parent="1" source="jL-DoHjZgoJ6Cv4gA63--35" target="jL-DoHjZgoJ6Cv4gA63--43" edge="1">
          <mxGeometry relative="1" as="geometry" />
        </mxCell>
        <mxCell id="jL-DoHjZgoJ6Cv4gA63--46" style="edgeStyle=none;rounded=0;orthogonalLoop=1;jettySize=auto;html=1;exitX=1;exitY=0.5;exitDx=0;exitDy=0;entryX=0;entryY=0.5;entryDx=0;entryDy=0;fontFamily=Times New Roman;fontSize=2;endArrow=none;endFill=0;strokeColor=#808080;" parent="1" source="jL-DoHjZgoJ6Cv4gA63--36" target="jL-DoHjZgoJ6Cv4gA63--43" edge="1">
          <mxGeometry relative="1" as="geometry" />
        </mxCell>
        <mxCell id="jL-DoHjZgoJ6Cv4gA63--47" style="edgeStyle=none;rounded=0;orthogonalLoop=1;jettySize=auto;html=1;exitX=1;exitY=0.5;exitDx=0;exitDy=0;entryX=0;entryY=0.5;entryDx=0;entryDy=0;fontFamily=Times New Roman;fontSize=2;endArrow=none;endFill=0;strokeColor=#808080;" parent="1" source="jL-DoHjZgoJ6Cv4gA63--37" target="jL-DoHjZgoJ6Cv4gA63--43" edge="1">
          <mxGeometry relative="1" as="geometry" />
        </mxCell>
        <mxCell id="jL-DoHjZgoJ6Cv4gA63--48" value="" style="rounded=0;whiteSpace=wrap;html=1;fontFamily=Times New Roman;fontSize=2;strokeColor=#808080;rotation=-90;container=0;" parent="1" vertex="1">
          <mxGeometry x="-425" y="1515" width="20" height="20" as="geometry" />
        </mxCell>
        <mxCell id="jL-DoHjZgoJ6Cv4gA63--49" style="edgeStyle=none;rounded=0;orthogonalLoop=1;jettySize=auto;html=1;entryX=0;entryY=0.5;entryDx=0;entryDy=0;fontFamily=Times New Roman;fontSize=2;endArrow=none;endFill=0;exitX=1;exitY=0.5;exitDx=0;exitDy=0;strokeColor=#808080;" parent="1" source="jL-DoHjZgoJ6Cv4gA63--33" target="jL-DoHjZgoJ6Cv4gA63--48" edge="1">
          <mxGeometry relative="1" as="geometry" />
        </mxCell>
        <mxCell id="jL-DoHjZgoJ6Cv4gA63--50" style="edgeStyle=none;rounded=0;orthogonalLoop=1;jettySize=auto;html=1;exitX=1;exitY=0.5;exitDx=0;exitDy=0;entryX=0;entryY=0.5;entryDx=0;entryDy=0;fontFamily=Times New Roman;fontSize=2;endArrow=none;endFill=0;strokeColor=#808080;" parent="1" source="jL-DoHjZgoJ6Cv4gA63--36" target="jL-DoHjZgoJ6Cv4gA63--48" edge="1">
          <mxGeometry relative="1" as="geometry" />
        </mxCell>
        <mxCell id="jL-DoHjZgoJ6Cv4gA63--51" style="edgeStyle=none;rounded=0;orthogonalLoop=1;jettySize=auto;html=1;exitX=1;exitY=0.5;exitDx=0;exitDy=0;entryX=0;entryY=0.5;entryDx=0;entryDy=0;fontFamily=Times New Roman;fontSize=2;endArrow=none;endFill=0;strokeColor=#808080;" parent="1" source="jL-DoHjZgoJ6Cv4gA63--37" target="jL-DoHjZgoJ6Cv4gA63--48" edge="1">
          <mxGeometry relative="1" as="geometry" />
        </mxCell>
        <mxCell id="jL-DoHjZgoJ6Cv4gA63--52" value="" style="rounded=0;whiteSpace=wrap;html=1;fontFamily=Times New Roman;fontSize=2;strokeColor=#808080;rotation=-90;container=0;" parent="1" vertex="1">
          <mxGeometry x="-395" y="1515" width="20" height="20" as="geometry" />
        </mxCell>
        <mxCell id="jL-DoHjZgoJ6Cv4gA63--53" style="edgeStyle=none;rounded=0;orthogonalLoop=1;jettySize=auto;html=1;entryX=0;entryY=0.5;entryDx=0;entryDy=0;fontFamily=Times New Roman;fontSize=2;endArrow=none;endFill=0;exitX=1;exitY=0.5;exitDx=0;exitDy=0;strokeColor=#808080;" parent="1" source="jL-DoHjZgoJ6Cv4gA63--33" target="jL-DoHjZgoJ6Cv4gA63--52" edge="1">
          <mxGeometry relative="1" as="geometry" />
        </mxCell>
        <mxCell id="jL-DoHjZgoJ6Cv4gA63--54" style="edgeStyle=none;rounded=0;orthogonalLoop=1;jettySize=auto;html=1;exitX=1;exitY=0.5;exitDx=0;exitDy=0;entryX=0;entryY=0.5;entryDx=0;entryDy=0;fontFamily=Times New Roman;fontSize=2;endArrow=none;endFill=0;strokeColor=#808080;" parent="1" source="jL-DoHjZgoJ6Cv4gA63--35" target="jL-DoHjZgoJ6Cv4gA63--52" edge="1">
          <mxGeometry relative="1" as="geometry" />
        </mxCell>
        <mxCell id="jL-DoHjZgoJ6Cv4gA63--55" style="edgeStyle=none;rounded=0;orthogonalLoop=1;jettySize=auto;html=1;exitX=1;exitY=0.5;exitDx=0;exitDy=0;entryX=0;entryY=0.5;entryDx=0;entryDy=0;fontFamily=Times New Roman;fontSize=2;endArrow=none;endFill=0;strokeColor=#808080;" parent="1" source="jL-DoHjZgoJ6Cv4gA63--36" target="jL-DoHjZgoJ6Cv4gA63--52" edge="1">
          <mxGeometry relative="1" as="geometry" />
        </mxCell>
        <mxCell id="jL-DoHjZgoJ6Cv4gA63--56" style="edgeStyle=none;rounded=0;orthogonalLoop=1;jettySize=auto;html=1;exitX=1;exitY=0.5;exitDx=0;exitDy=0;entryX=0;entryY=0.5;entryDx=0;entryDy=0;fontFamily=Times New Roman;fontSize=2;endArrow=none;endFill=0;strokeColor=#808080;" parent="1" source="jL-DoHjZgoJ6Cv4gA63--37" target="jL-DoHjZgoJ6Cv4gA63--52" edge="1">
          <mxGeometry relative="1" as="geometry" />
        </mxCell>
        <mxCell id="jL-DoHjZgoJ6Cv4gA63--57" style="edgeStyle=none;rounded=0;orthogonalLoop=1;jettySize=auto;html=1;entryX=1;entryY=0.5;entryDx=0;entryDy=0;fontFamily=Times New Roman;fontSize=2;endArrow=none;endFill=0;strokeColor=#808080;" parent="1" source="jL-DoHjZgoJ6Cv4gA63--33" target="jL-DoHjZgoJ6Cv4gA63--33" edge="1">
          <mxGeometry relative="1" as="geometry" />
        </mxCell>
        <mxCell id="YgQCFKHzvKGcxyU9BYiJ-161" value="" style="group" parent="1" vertex="1" connectable="0">
          <mxGeometry x="-720" y="1275" width="122" height="45" as="geometry" />
        </mxCell>
        <mxCell id="YgQCFKHzvKGcxyU9BYiJ-85" value="" style="rounded=0;whiteSpace=wrap;html=1;fontFamily=Times New Roman;fontSize=2;strokeColor=#808080;rotation=-90;container=0;flipH=0;" parent="YgQCFKHzvKGcxyU9BYiJ-161" vertex="1">
          <mxGeometry width="15" height="15" as="geometry" />
        </mxCell>
        <mxCell id="YgQCFKHzvKGcxyU9BYiJ-86" value="" style="rounded=0;whiteSpace=wrap;html=1;fontFamily=Times New Roman;fontSize=2;strokeColor=#808080;rotation=-90;container=0;flipH=0;" parent="YgQCFKHzvKGcxyU9BYiJ-161" vertex="1">
          <mxGeometry x="21" width="15" height="15" as="geometry" />
        </mxCell>
        <mxCell id="YgQCFKHzvKGcxyU9BYiJ-87" value="" style="rounded=0;whiteSpace=wrap;html=1;fontFamily=Times New Roman;fontSize=2;strokeColor=#808080;rotation=-90;container=0;flipH=0;" parent="YgQCFKHzvKGcxyU9BYiJ-161" vertex="1">
          <mxGeometry x="43" width="15" height="15" as="geometry" />
        </mxCell>
        <mxCell id="YgQCFKHzvKGcxyU9BYiJ-88" value="" style="rounded=0;whiteSpace=wrap;html=1;fontFamily=Times New Roman;fontSize=2;strokeColor=#808080;rotation=-90;container=0;flipH=0;" parent="YgQCFKHzvKGcxyU9BYiJ-161" vertex="1">
          <mxGeometry x="64" width="15" height="15" as="geometry" />
        </mxCell>
        <mxCell id="YgQCFKHzvKGcxyU9BYiJ-89" value="" style="rounded=0;whiteSpace=wrap;html=1;fontFamily=Times New Roman;fontSize=2;strokeColor=#808080;rotation=-90;container=0;flipH=0;" parent="YgQCFKHzvKGcxyU9BYiJ-161" vertex="1">
          <mxGeometry x="86" width="15" height="15" as="geometry" />
        </mxCell>
        <mxCell id="YgQCFKHzvKGcxyU9BYiJ-103" value="" style="rounded=0;whiteSpace=wrap;html=1;fontFamily=Times New Roman;fontSize=2;strokeColor=#808080;rotation=-90;container=0;flipH=0;" parent="YgQCFKHzvKGcxyU9BYiJ-161" vertex="1">
          <mxGeometry x="107" width="15" height="15" as="geometry" />
        </mxCell>
        <mxCell id="YgQCFKHzvKGcxyU9BYiJ-121" style="edgeStyle=none;rounded=0;orthogonalLoop=1;jettySize=auto;html=1;exitX=1;exitY=0.5;exitDx=0;exitDy=0;entryX=0;entryY=0.5;entryDx=0;entryDy=0;strokeColor=#808080;strokeWidth=0.5;endArrow=none;endFill=0;" parent="YgQCFKHzvKGcxyU9BYiJ-161" source="YgQCFKHzvKGcxyU9BYiJ-105" target="YgQCFKHzvKGcxyU9BYiJ-86" edge="1">
          <mxGeometry relative="1" as="geometry" />
        </mxCell>
        <mxCell id="YgQCFKHzvKGcxyU9BYiJ-122" style="edgeStyle=none;rounded=0;orthogonalLoop=1;jettySize=auto;html=1;exitX=1;exitY=0.5;exitDx=0;exitDy=0;entryX=0;entryY=0.5;entryDx=0;entryDy=0;strokeColor=#808080;strokeWidth=0.5;endArrow=none;endFill=0;" parent="YgQCFKHzvKGcxyU9BYiJ-161" source="YgQCFKHzvKGcxyU9BYiJ-105" target="YgQCFKHzvKGcxyU9BYiJ-87" edge="1">
          <mxGeometry relative="1" as="geometry" />
        </mxCell>
        <mxCell id="YgQCFKHzvKGcxyU9BYiJ-123" style="edgeStyle=none;rounded=0;orthogonalLoop=1;jettySize=auto;html=1;exitX=1;exitY=0.5;exitDx=0;exitDy=0;entryX=0;entryY=0.5;entryDx=0;entryDy=0;strokeColor=#808080;strokeWidth=0.5;endArrow=none;endFill=0;" parent="YgQCFKHzvKGcxyU9BYiJ-161" source="YgQCFKHzvKGcxyU9BYiJ-105" target="YgQCFKHzvKGcxyU9BYiJ-88" edge="1">
          <mxGeometry relative="1" as="geometry" />
        </mxCell>
        <mxCell id="YgQCFKHzvKGcxyU9BYiJ-124" style="edgeStyle=none;rounded=0;orthogonalLoop=1;jettySize=auto;html=1;exitX=1;exitY=0.5;exitDx=0;exitDy=0;entryX=0;entryY=0.5;entryDx=0;entryDy=0;strokeColor=#808080;strokeWidth=0.5;endArrow=none;endFill=0;" parent="YgQCFKHzvKGcxyU9BYiJ-161" source="YgQCFKHzvKGcxyU9BYiJ-105" target="YgQCFKHzvKGcxyU9BYiJ-89" edge="1">
          <mxGeometry relative="1" as="geometry" />
        </mxCell>
        <mxCell id="YgQCFKHzvKGcxyU9BYiJ-125" style="edgeStyle=none;rounded=0;orthogonalLoop=1;jettySize=auto;html=1;exitX=1;exitY=0.5;exitDx=0;exitDy=0;entryX=0;entryY=0.5;entryDx=0;entryDy=0;strokeColor=#808080;strokeWidth=0.5;endArrow=none;endFill=0;" parent="YgQCFKHzvKGcxyU9BYiJ-161" source="YgQCFKHzvKGcxyU9BYiJ-105" target="YgQCFKHzvKGcxyU9BYiJ-103" edge="1">
          <mxGeometry relative="1" as="geometry" />
        </mxCell>
        <mxCell id="YgQCFKHzvKGcxyU9BYiJ-105" value="" style="rounded=0;whiteSpace=wrap;html=1;fontFamily=Times New Roman;fontSize=2;strokeColor=#808080;rotation=-90;container=0;flipH=0;" parent="YgQCFKHzvKGcxyU9BYiJ-161" vertex="1">
          <mxGeometry y="30" width="15" height="15" as="geometry" />
        </mxCell>
        <mxCell id="YgQCFKHzvKGcxyU9BYiJ-155" style="edgeStyle=none;rounded=0;orthogonalLoop=1;jettySize=auto;html=1;exitX=0;exitY=0.5;exitDx=0;exitDy=0;entryX=1;entryY=0.5;entryDx=0;entryDy=0;strokeColor=#808080;strokeWidth=0.5;endArrow=none;endFill=0;" parent="YgQCFKHzvKGcxyU9BYiJ-161" source="YgQCFKHzvKGcxyU9BYiJ-85" target="YgQCFKHzvKGcxyU9BYiJ-105" edge="1">
          <mxGeometry relative="1" as="geometry" />
        </mxCell>
        <mxCell id="YgQCFKHzvKGcxyU9BYiJ-126" style="edgeStyle=none;rounded=0;orthogonalLoop=1;jettySize=auto;html=1;exitX=1;exitY=0.5;exitDx=0;exitDy=0;entryX=0;entryY=0.5;entryDx=0;entryDy=0;strokeColor=#808080;strokeWidth=0.5;endArrow=none;endFill=0;" parent="YgQCFKHzvKGcxyU9BYiJ-161" source="YgQCFKHzvKGcxyU9BYiJ-106" target="YgQCFKHzvKGcxyU9BYiJ-86" edge="1">
          <mxGeometry relative="1" as="geometry" />
        </mxCell>
        <mxCell id="YgQCFKHzvKGcxyU9BYiJ-106" value="" style="rounded=0;whiteSpace=wrap;html=1;fontFamily=Times New Roman;fontSize=2;strokeColor=#808080;rotation=-90;container=0;flipH=0;" parent="YgQCFKHzvKGcxyU9BYiJ-161" vertex="1">
          <mxGeometry x="21" y="30" width="15" height="15" as="geometry" />
        </mxCell>
        <mxCell id="YgQCFKHzvKGcxyU9BYiJ-116" style="edgeStyle=none;rounded=0;orthogonalLoop=1;jettySize=auto;html=1;exitX=0;exitY=0.5;exitDx=0;exitDy=0;entryX=1;entryY=0.5;entryDx=0;entryDy=0;strokeColor=#808080;strokeWidth=0.5;endArrow=none;endFill=0;" parent="YgQCFKHzvKGcxyU9BYiJ-161" source="YgQCFKHzvKGcxyU9BYiJ-85" target="YgQCFKHzvKGcxyU9BYiJ-106" edge="1">
          <mxGeometry relative="1" as="geometry" />
        </mxCell>
        <mxCell id="YgQCFKHzvKGcxyU9BYiJ-136" style="edgeStyle=none;rounded=0;orthogonalLoop=1;jettySize=auto;html=1;exitX=0;exitY=0.5;exitDx=0;exitDy=0;entryX=1;entryY=0.5;entryDx=0;entryDy=0;strokeColor=#808080;strokeWidth=0.5;endArrow=none;endFill=0;" parent="YgQCFKHzvKGcxyU9BYiJ-161" source="YgQCFKHzvKGcxyU9BYiJ-87" target="YgQCFKHzvKGcxyU9BYiJ-106" edge="1">
          <mxGeometry relative="1" as="geometry" />
        </mxCell>
        <mxCell id="YgQCFKHzvKGcxyU9BYiJ-140" style="edgeStyle=none;rounded=0;orthogonalLoop=1;jettySize=auto;html=1;exitX=0;exitY=0.5;exitDx=0;exitDy=0;entryX=1;entryY=0.5;entryDx=0;entryDy=0;strokeColor=#808080;strokeWidth=0.5;endArrow=none;endFill=0;" parent="YgQCFKHzvKGcxyU9BYiJ-161" source="YgQCFKHzvKGcxyU9BYiJ-88" target="YgQCFKHzvKGcxyU9BYiJ-106" edge="1">
          <mxGeometry relative="1" as="geometry" />
        </mxCell>
        <mxCell id="YgQCFKHzvKGcxyU9BYiJ-143" style="edgeStyle=none;rounded=0;orthogonalLoop=1;jettySize=auto;html=1;exitX=0;exitY=0.5;exitDx=0;exitDy=0;entryX=1;entryY=0.5;entryDx=0;entryDy=0;strokeColor=#808080;strokeWidth=0.5;endArrow=none;endFill=0;" parent="YgQCFKHzvKGcxyU9BYiJ-161" source="YgQCFKHzvKGcxyU9BYiJ-89" target="YgQCFKHzvKGcxyU9BYiJ-106" edge="1">
          <mxGeometry relative="1" as="geometry" />
        </mxCell>
        <mxCell id="YgQCFKHzvKGcxyU9BYiJ-146" style="edgeStyle=none;rounded=0;orthogonalLoop=1;jettySize=auto;html=1;exitX=0;exitY=0.5;exitDx=0;exitDy=0;entryX=1;entryY=0.5;entryDx=0;entryDy=0;strokeColor=#808080;strokeWidth=0.5;endArrow=none;endFill=0;" parent="YgQCFKHzvKGcxyU9BYiJ-161" source="YgQCFKHzvKGcxyU9BYiJ-103" target="YgQCFKHzvKGcxyU9BYiJ-106" edge="1">
          <mxGeometry relative="1" as="geometry" />
        </mxCell>
        <mxCell id="YgQCFKHzvKGcxyU9BYiJ-127" style="edgeStyle=none;rounded=0;orthogonalLoop=1;jettySize=auto;html=1;exitX=1;exitY=0.5;exitDx=0;exitDy=0;entryX=0;entryY=0.5;entryDx=0;entryDy=0;strokeColor=#808080;strokeWidth=0.5;endArrow=none;endFill=0;" parent="YgQCFKHzvKGcxyU9BYiJ-161" source="YgQCFKHzvKGcxyU9BYiJ-107" target="YgQCFKHzvKGcxyU9BYiJ-87" edge="1">
          <mxGeometry relative="1" as="geometry" />
        </mxCell>
        <mxCell id="YgQCFKHzvKGcxyU9BYiJ-107" value="" style="rounded=0;whiteSpace=wrap;html=1;fontFamily=Times New Roman;fontSize=2;strokeColor=#808080;rotation=-90;container=0;flipH=0;" parent="YgQCFKHzvKGcxyU9BYiJ-161" vertex="1">
          <mxGeometry x="43" y="30" width="15" height="15" as="geometry" />
        </mxCell>
        <mxCell id="YgQCFKHzvKGcxyU9BYiJ-117" style="edgeStyle=none;rounded=0;orthogonalLoop=1;jettySize=auto;html=1;exitX=0;exitY=0.5;exitDx=0;exitDy=0;entryX=1;entryY=0.5;entryDx=0;entryDy=0;strokeColor=#808080;strokeWidth=0.5;endArrow=none;endFill=0;" parent="YgQCFKHzvKGcxyU9BYiJ-161" source="YgQCFKHzvKGcxyU9BYiJ-85" target="YgQCFKHzvKGcxyU9BYiJ-107" edge="1">
          <mxGeometry relative="1" as="geometry" />
        </mxCell>
        <mxCell id="YgQCFKHzvKGcxyU9BYiJ-131" style="edgeStyle=none;rounded=0;orthogonalLoop=1;jettySize=auto;html=1;exitX=0;exitY=0.5;exitDx=0;exitDy=0;entryX=1;entryY=0.5;entryDx=0;entryDy=0;strokeColor=#808080;strokeWidth=0.5;endArrow=none;endFill=0;" parent="YgQCFKHzvKGcxyU9BYiJ-161" source="YgQCFKHzvKGcxyU9BYiJ-86" target="YgQCFKHzvKGcxyU9BYiJ-107" edge="1">
          <mxGeometry relative="1" as="geometry" />
        </mxCell>
        <mxCell id="YgQCFKHzvKGcxyU9BYiJ-141" style="edgeStyle=none;rounded=0;orthogonalLoop=1;jettySize=auto;html=1;exitX=0;exitY=0.5;exitDx=0;exitDy=0;entryX=1;entryY=0.5;entryDx=0;entryDy=0;strokeColor=#808080;strokeWidth=0.5;endArrow=none;endFill=0;" parent="YgQCFKHzvKGcxyU9BYiJ-161" source="YgQCFKHzvKGcxyU9BYiJ-88" target="YgQCFKHzvKGcxyU9BYiJ-107" edge="1">
          <mxGeometry relative="1" as="geometry" />
        </mxCell>
        <mxCell id="YgQCFKHzvKGcxyU9BYiJ-144" style="edgeStyle=none;rounded=0;orthogonalLoop=1;jettySize=auto;html=1;exitX=0;exitY=0.5;exitDx=0;exitDy=0;entryX=1;entryY=0.5;entryDx=0;entryDy=0;strokeColor=#808080;strokeWidth=0.5;endArrow=none;endFill=0;" parent="YgQCFKHzvKGcxyU9BYiJ-161" source="YgQCFKHzvKGcxyU9BYiJ-89" target="YgQCFKHzvKGcxyU9BYiJ-107" edge="1">
          <mxGeometry relative="1" as="geometry" />
        </mxCell>
        <mxCell id="YgQCFKHzvKGcxyU9BYiJ-147" style="edgeStyle=none;rounded=0;orthogonalLoop=1;jettySize=auto;html=1;exitX=0;exitY=0.5;exitDx=0;exitDy=0;entryX=1;entryY=0.5;entryDx=0;entryDy=0;strokeColor=#808080;strokeWidth=0.5;endArrow=none;endFill=0;" parent="YgQCFKHzvKGcxyU9BYiJ-161" source="YgQCFKHzvKGcxyU9BYiJ-103" target="YgQCFKHzvKGcxyU9BYiJ-107" edge="1">
          <mxGeometry relative="1" as="geometry" />
        </mxCell>
        <mxCell id="YgQCFKHzvKGcxyU9BYiJ-128" style="edgeStyle=none;rounded=0;orthogonalLoop=1;jettySize=auto;html=1;exitX=1;exitY=0.5;exitDx=0;exitDy=0;entryX=0;entryY=0.5;entryDx=0;entryDy=0;strokeColor=#808080;strokeWidth=0.5;endArrow=none;endFill=0;" parent="YgQCFKHzvKGcxyU9BYiJ-161" source="YgQCFKHzvKGcxyU9BYiJ-108" target="YgQCFKHzvKGcxyU9BYiJ-88" edge="1">
          <mxGeometry relative="1" as="geometry" />
        </mxCell>
        <mxCell id="YgQCFKHzvKGcxyU9BYiJ-108" value="" style="rounded=0;whiteSpace=wrap;html=1;fontFamily=Times New Roman;fontSize=2;strokeColor=#808080;rotation=-90;container=0;flipH=0;" parent="YgQCFKHzvKGcxyU9BYiJ-161" vertex="1">
          <mxGeometry x="64" y="30" width="15" height="15" as="geometry" />
        </mxCell>
        <mxCell id="YgQCFKHzvKGcxyU9BYiJ-118" style="edgeStyle=none;rounded=0;orthogonalLoop=1;jettySize=auto;html=1;exitX=0;exitY=0.5;exitDx=0;exitDy=0;entryX=1;entryY=0.5;entryDx=0;entryDy=0;strokeColor=#808080;strokeWidth=0.5;endArrow=none;endFill=0;" parent="YgQCFKHzvKGcxyU9BYiJ-161" source="YgQCFKHzvKGcxyU9BYiJ-85" target="YgQCFKHzvKGcxyU9BYiJ-108" edge="1">
          <mxGeometry relative="1" as="geometry" />
        </mxCell>
        <mxCell id="YgQCFKHzvKGcxyU9BYiJ-132" style="edgeStyle=none;rounded=0;orthogonalLoop=1;jettySize=auto;html=1;exitX=0;exitY=0.5;exitDx=0;exitDy=0;entryX=1;entryY=0.5;entryDx=0;entryDy=0;strokeColor=#808080;strokeWidth=0.5;endArrow=none;endFill=0;" parent="YgQCFKHzvKGcxyU9BYiJ-161" source="YgQCFKHzvKGcxyU9BYiJ-86" target="YgQCFKHzvKGcxyU9BYiJ-108" edge="1">
          <mxGeometry relative="1" as="geometry" />
        </mxCell>
        <mxCell id="YgQCFKHzvKGcxyU9BYiJ-137" style="edgeStyle=none;rounded=0;orthogonalLoop=1;jettySize=auto;html=1;exitX=0;exitY=0.5;exitDx=0;exitDy=0;entryX=1;entryY=0.5;entryDx=0;entryDy=0;strokeColor=#808080;strokeWidth=0.5;endArrow=none;endFill=0;" parent="YgQCFKHzvKGcxyU9BYiJ-161" source="YgQCFKHzvKGcxyU9BYiJ-87" target="YgQCFKHzvKGcxyU9BYiJ-108" edge="1">
          <mxGeometry relative="1" as="geometry" />
        </mxCell>
        <mxCell id="YgQCFKHzvKGcxyU9BYiJ-145" style="edgeStyle=none;rounded=0;orthogonalLoop=1;jettySize=auto;html=1;exitX=0;exitY=0.5;exitDx=0;exitDy=0;entryX=1;entryY=0.5;entryDx=0;entryDy=0;strokeColor=#808080;strokeWidth=0.5;endArrow=none;endFill=0;" parent="YgQCFKHzvKGcxyU9BYiJ-161" source="YgQCFKHzvKGcxyU9BYiJ-89" target="YgQCFKHzvKGcxyU9BYiJ-108" edge="1">
          <mxGeometry relative="1" as="geometry" />
        </mxCell>
        <mxCell id="YgQCFKHzvKGcxyU9BYiJ-148" style="edgeStyle=none;rounded=0;orthogonalLoop=1;jettySize=auto;html=1;exitX=0;exitY=0.5;exitDx=0;exitDy=0;entryX=1;entryY=0.5;entryDx=0;entryDy=0;strokeColor=#808080;strokeWidth=0.5;endArrow=none;endFill=0;" parent="YgQCFKHzvKGcxyU9BYiJ-161" source="YgQCFKHzvKGcxyU9BYiJ-103" target="YgQCFKHzvKGcxyU9BYiJ-108" edge="1">
          <mxGeometry relative="1" as="geometry" />
        </mxCell>
        <mxCell id="YgQCFKHzvKGcxyU9BYiJ-130" style="edgeStyle=none;rounded=0;orthogonalLoop=1;jettySize=auto;html=1;entryX=0;entryY=0.5;entryDx=0;entryDy=0;strokeColor=#808080;strokeWidth=0.5;endArrow=none;endFill=0;" parent="YgQCFKHzvKGcxyU9BYiJ-161" source="YgQCFKHzvKGcxyU9BYiJ-109" target="YgQCFKHzvKGcxyU9BYiJ-89" edge="1">
          <mxGeometry relative="1" as="geometry" />
        </mxCell>
        <mxCell id="YgQCFKHzvKGcxyU9BYiJ-109" value="" style="rounded=0;whiteSpace=wrap;html=1;fontFamily=Times New Roman;fontSize=2;strokeColor=#808080;rotation=-90;container=0;flipH=0;" parent="YgQCFKHzvKGcxyU9BYiJ-161" vertex="1">
          <mxGeometry x="86" y="30" width="15" height="15" as="geometry" />
        </mxCell>
        <mxCell id="YgQCFKHzvKGcxyU9BYiJ-119" style="edgeStyle=none;rounded=0;orthogonalLoop=1;jettySize=auto;html=1;exitX=0;exitY=0.5;exitDx=0;exitDy=0;entryX=1;entryY=0.5;entryDx=0;entryDy=0;strokeColor=#808080;strokeWidth=0.5;endArrow=none;endFill=0;" parent="YgQCFKHzvKGcxyU9BYiJ-161" source="YgQCFKHzvKGcxyU9BYiJ-85" target="YgQCFKHzvKGcxyU9BYiJ-109" edge="1">
          <mxGeometry relative="1" as="geometry" />
        </mxCell>
        <mxCell id="YgQCFKHzvKGcxyU9BYiJ-133" style="edgeStyle=none;rounded=0;orthogonalLoop=1;jettySize=auto;html=1;exitX=0;exitY=0.5;exitDx=0;exitDy=0;entryX=1;entryY=0.5;entryDx=0;entryDy=0;strokeColor=#808080;strokeWidth=0.5;endArrow=none;endFill=0;" parent="YgQCFKHzvKGcxyU9BYiJ-161" source="YgQCFKHzvKGcxyU9BYiJ-86" target="YgQCFKHzvKGcxyU9BYiJ-109" edge="1">
          <mxGeometry relative="1" as="geometry" />
        </mxCell>
        <mxCell id="YgQCFKHzvKGcxyU9BYiJ-138" style="edgeStyle=none;rounded=0;orthogonalLoop=1;jettySize=auto;html=1;exitX=0;exitY=0.5;exitDx=0;exitDy=0;entryX=1;entryY=0.5;entryDx=0;entryDy=0;strokeColor=#808080;strokeWidth=0.5;endArrow=none;endFill=0;" parent="YgQCFKHzvKGcxyU9BYiJ-161" source="YgQCFKHzvKGcxyU9BYiJ-87" target="YgQCFKHzvKGcxyU9BYiJ-109" edge="1">
          <mxGeometry relative="1" as="geometry" />
        </mxCell>
        <mxCell id="YgQCFKHzvKGcxyU9BYiJ-142" style="edgeStyle=none;rounded=0;orthogonalLoop=1;jettySize=auto;html=1;exitX=0;exitY=0.5;exitDx=0;exitDy=0;entryX=1;entryY=0.5;entryDx=0;entryDy=0;strokeColor=#808080;strokeWidth=0.5;endArrow=none;endFill=0;" parent="YgQCFKHzvKGcxyU9BYiJ-161" source="YgQCFKHzvKGcxyU9BYiJ-88" target="YgQCFKHzvKGcxyU9BYiJ-109" edge="1">
          <mxGeometry relative="1" as="geometry" />
        </mxCell>
        <mxCell id="YgQCFKHzvKGcxyU9BYiJ-149" style="edgeStyle=none;rounded=0;orthogonalLoop=1;jettySize=auto;html=1;exitX=0;exitY=0.5;exitDx=0;exitDy=0;entryX=1;entryY=0.5;entryDx=0;entryDy=0;strokeColor=#808080;strokeWidth=0.5;endArrow=none;endFill=0;" parent="YgQCFKHzvKGcxyU9BYiJ-161" source="YgQCFKHzvKGcxyU9BYiJ-103" target="YgQCFKHzvKGcxyU9BYiJ-109" edge="1">
          <mxGeometry relative="1" as="geometry" />
        </mxCell>
        <mxCell id="YgQCFKHzvKGcxyU9BYiJ-129" style="edgeStyle=none;rounded=0;orthogonalLoop=1;jettySize=auto;html=1;exitX=1;exitY=0.5;exitDx=0;exitDy=0;entryX=0;entryY=0.5;entryDx=0;entryDy=0;strokeColor=#808080;strokeWidth=0.5;endArrow=none;endFill=0;" parent="YgQCFKHzvKGcxyU9BYiJ-161" source="YgQCFKHzvKGcxyU9BYiJ-110" target="YgQCFKHzvKGcxyU9BYiJ-103" edge="1">
          <mxGeometry relative="1" as="geometry" />
        </mxCell>
        <mxCell id="YgQCFKHzvKGcxyU9BYiJ-110" value="" style="rounded=0;whiteSpace=wrap;html=1;fontFamily=Times New Roman;fontSize=2;strokeColor=#808080;rotation=-90;container=0;flipH=0;" parent="YgQCFKHzvKGcxyU9BYiJ-161" vertex="1">
          <mxGeometry x="107" y="30" width="15" height="15" as="geometry" />
        </mxCell>
        <mxCell id="YgQCFKHzvKGcxyU9BYiJ-120" style="edgeStyle=none;rounded=0;orthogonalLoop=1;jettySize=auto;html=1;exitX=0;exitY=0.5;exitDx=0;exitDy=0;entryX=1;entryY=0.5;entryDx=0;entryDy=0;strokeColor=#808080;strokeWidth=0.5;endArrow=none;endFill=0;" parent="YgQCFKHzvKGcxyU9BYiJ-161" source="YgQCFKHzvKGcxyU9BYiJ-85" target="YgQCFKHzvKGcxyU9BYiJ-110" edge="1">
          <mxGeometry relative="1" as="geometry" />
        </mxCell>
        <mxCell id="YgQCFKHzvKGcxyU9BYiJ-134" style="edgeStyle=none;rounded=0;orthogonalLoop=1;jettySize=auto;html=1;exitX=0;exitY=0.5;exitDx=0;exitDy=0;entryX=1;entryY=0.5;entryDx=0;entryDy=0;strokeColor=#808080;strokeWidth=0.5;endArrow=none;endFill=0;" parent="YgQCFKHzvKGcxyU9BYiJ-161" source="YgQCFKHzvKGcxyU9BYiJ-86" target="YgQCFKHzvKGcxyU9BYiJ-110" edge="1">
          <mxGeometry relative="1" as="geometry" />
        </mxCell>
        <mxCell id="YgQCFKHzvKGcxyU9BYiJ-139" style="edgeStyle=none;rounded=0;orthogonalLoop=1;jettySize=auto;html=1;exitX=0;exitY=0.5;exitDx=0;exitDy=0;entryX=1;entryY=0.5;entryDx=0;entryDy=0;strokeColor=#808080;strokeWidth=0.5;endArrow=none;endFill=0;" parent="YgQCFKHzvKGcxyU9BYiJ-161" source="YgQCFKHzvKGcxyU9BYiJ-87" target="YgQCFKHzvKGcxyU9BYiJ-110" edge="1">
          <mxGeometry relative="1" as="geometry" />
        </mxCell>
        <mxCell id="YgQCFKHzvKGcxyU9BYiJ-150" style="edgeStyle=none;rounded=0;orthogonalLoop=1;jettySize=auto;html=1;exitX=0;exitY=0.5;exitDx=0;exitDy=0;entryX=1;entryY=0.5;entryDx=0;entryDy=0;strokeColor=#808080;strokeWidth=0.5;endArrow=none;endFill=0;" parent="YgQCFKHzvKGcxyU9BYiJ-161" source="YgQCFKHzvKGcxyU9BYiJ-88" target="YgQCFKHzvKGcxyU9BYiJ-110" edge="1">
          <mxGeometry relative="1" as="geometry" />
        </mxCell>
        <mxCell id="YgQCFKHzvKGcxyU9BYiJ-151" style="edgeStyle=none;rounded=0;orthogonalLoop=1;jettySize=auto;html=1;exitX=0;exitY=0.5;exitDx=0;exitDy=0;entryX=1;entryY=0.5;entryDx=0;entryDy=0;strokeColor=#808080;strokeWidth=0.5;endArrow=none;endFill=0;" parent="YgQCFKHzvKGcxyU9BYiJ-161" source="YgQCFKHzvKGcxyU9BYiJ-89" target="YgQCFKHzvKGcxyU9BYiJ-110" edge="1">
          <mxGeometry relative="1" as="geometry" />
        </mxCell>
        <mxCell id="jL-DoHjZgoJ6Cv4gA63--70" value="Target Encoder" style="rounded=1;whiteSpace=wrap;html=1;fontSize=15;fillColor=#d5e8d4;strokeColor=#82b366;strokeWidth=0.5;fillStyle=auto;fontFamily=Times New Roman;opacity=80;" parent="1" vertex="1">
          <mxGeometry x="-790" y="1272" width="260" height="50" as="geometry" />
        </mxCell>
        <mxCell id="YgQCFKHzvKGcxyU9BYiJ-162" value="" style="endArrow=none;html=1;rounded=0;strokeColor=#808080;strokeWidth=0.5;" parent="1" edge="1">
          <mxGeometry width="50" height="50" relative="1" as="geometry">
            <mxPoint x="-677.26" y="1910" as="sourcePoint" />
            <mxPoint x="-677.26" y="1680" as="targetPoint" />
          </mxGeometry>
        </mxCell>
        <mxCell id="UXUbac45LYqV1Sa2sKH3-55" value="" style="group" parent="1" vertex="1" connectable="0">
          <mxGeometry x="-408" y="1274" width="122" height="45" as="geometry" />
        </mxCell>
        <mxCell id="UXUbac45LYqV1Sa2sKH3-56" value="" style="rounded=0;whiteSpace=wrap;html=1;fontFamily=Times New Roman;fontSize=2;strokeColor=#808080;rotation=-90;container=0;flipH=0;" parent="UXUbac45LYqV1Sa2sKH3-55" vertex="1">
          <mxGeometry width="15" height="15" as="geometry" />
        </mxCell>
        <mxCell id="UXUbac45LYqV1Sa2sKH3-57" value="" style="rounded=0;whiteSpace=wrap;html=1;fontFamily=Times New Roman;fontSize=2;strokeColor=#808080;rotation=-90;container=0;flipH=0;" parent="UXUbac45LYqV1Sa2sKH3-55" vertex="1">
          <mxGeometry x="21" width="15" height="15" as="geometry" />
        </mxCell>
        <mxCell id="UXUbac45LYqV1Sa2sKH3-58" value="" style="rounded=0;whiteSpace=wrap;html=1;fontFamily=Times New Roman;fontSize=2;strokeColor=#808080;rotation=-90;container=0;flipH=0;" parent="UXUbac45LYqV1Sa2sKH3-55" vertex="1">
          <mxGeometry x="43" width="15" height="15" as="geometry" />
        </mxCell>
        <mxCell id="UXUbac45LYqV1Sa2sKH3-59" value="" style="rounded=0;whiteSpace=wrap;html=1;fontFamily=Times New Roman;fontSize=2;strokeColor=#808080;rotation=-90;container=0;flipH=0;" parent="UXUbac45LYqV1Sa2sKH3-55" vertex="1">
          <mxGeometry x="64" width="15" height="15" as="geometry" />
        </mxCell>
        <mxCell id="UXUbac45LYqV1Sa2sKH3-60" value="" style="rounded=0;whiteSpace=wrap;html=1;fontFamily=Times New Roman;fontSize=2;strokeColor=#808080;rotation=-90;container=0;flipH=0;" parent="UXUbac45LYqV1Sa2sKH3-55" vertex="1">
          <mxGeometry x="86" width="15" height="15" as="geometry" />
        </mxCell>
        <mxCell id="UXUbac45LYqV1Sa2sKH3-61" value="" style="rounded=0;whiteSpace=wrap;html=1;fontFamily=Times New Roman;fontSize=2;strokeColor=#808080;rotation=-90;container=0;flipH=0;" parent="UXUbac45LYqV1Sa2sKH3-55" vertex="1">
          <mxGeometry x="107" width="15" height="15" as="geometry" />
        </mxCell>
        <mxCell id="UXUbac45LYqV1Sa2sKH3-62" style="edgeStyle=none;rounded=0;orthogonalLoop=1;jettySize=auto;html=1;exitX=1;exitY=0.5;exitDx=0;exitDy=0;entryX=0;entryY=0.5;entryDx=0;entryDy=0;strokeColor=#808080;strokeWidth=0.5;endArrow=none;endFill=0;" parent="UXUbac45LYqV1Sa2sKH3-55" source="UXUbac45LYqV1Sa2sKH3-67" target="UXUbac45LYqV1Sa2sKH3-57" edge="1">
          <mxGeometry relative="1" as="geometry" />
        </mxCell>
        <mxCell id="UXUbac45LYqV1Sa2sKH3-63" style="edgeStyle=none;rounded=0;orthogonalLoop=1;jettySize=auto;html=1;exitX=1;exitY=0.5;exitDx=0;exitDy=0;entryX=0;entryY=0.5;entryDx=0;entryDy=0;strokeColor=#808080;strokeWidth=0.5;endArrow=none;endFill=0;" parent="UXUbac45LYqV1Sa2sKH3-55" source="UXUbac45LYqV1Sa2sKH3-67" target="UXUbac45LYqV1Sa2sKH3-58" edge="1">
          <mxGeometry relative="1" as="geometry" />
        </mxCell>
        <mxCell id="UXUbac45LYqV1Sa2sKH3-64" style="edgeStyle=none;rounded=0;orthogonalLoop=1;jettySize=auto;html=1;exitX=1;exitY=0.5;exitDx=0;exitDy=0;entryX=0;entryY=0.5;entryDx=0;entryDy=0;strokeColor=#808080;strokeWidth=0.5;endArrow=none;endFill=0;" parent="UXUbac45LYqV1Sa2sKH3-55" source="UXUbac45LYqV1Sa2sKH3-67" target="UXUbac45LYqV1Sa2sKH3-59" edge="1">
          <mxGeometry relative="1" as="geometry" />
        </mxCell>
        <mxCell id="UXUbac45LYqV1Sa2sKH3-65" style="edgeStyle=none;rounded=0;orthogonalLoop=1;jettySize=auto;html=1;exitX=1;exitY=0.5;exitDx=0;exitDy=0;entryX=0;entryY=0.5;entryDx=0;entryDy=0;strokeColor=#808080;strokeWidth=0.5;endArrow=none;endFill=0;" parent="UXUbac45LYqV1Sa2sKH3-55" source="UXUbac45LYqV1Sa2sKH3-67" target="UXUbac45LYqV1Sa2sKH3-60" edge="1">
          <mxGeometry relative="1" as="geometry" />
        </mxCell>
        <mxCell id="UXUbac45LYqV1Sa2sKH3-66" style="edgeStyle=none;rounded=0;orthogonalLoop=1;jettySize=auto;html=1;exitX=1;exitY=0.5;exitDx=0;exitDy=0;entryX=0;entryY=0.5;entryDx=0;entryDy=0;strokeColor=#808080;strokeWidth=0.5;endArrow=none;endFill=0;" parent="UXUbac45LYqV1Sa2sKH3-55" source="UXUbac45LYqV1Sa2sKH3-67" target="UXUbac45LYqV1Sa2sKH3-61" edge="1">
          <mxGeometry relative="1" as="geometry" />
        </mxCell>
        <mxCell id="UXUbac45LYqV1Sa2sKH3-67" value="" style="rounded=0;whiteSpace=wrap;html=1;fontFamily=Times New Roman;fontSize=2;strokeColor=#808080;rotation=-90;container=0;flipH=0;" parent="UXUbac45LYqV1Sa2sKH3-55" vertex="1">
          <mxGeometry y="30" width="15" height="15" as="geometry" />
        </mxCell>
        <mxCell id="UXUbac45LYqV1Sa2sKH3-68" style="edgeStyle=none;rounded=0;orthogonalLoop=1;jettySize=auto;html=1;exitX=0;exitY=0.5;exitDx=0;exitDy=0;entryX=1;entryY=0.5;entryDx=0;entryDy=0;strokeColor=#808080;strokeWidth=0.5;endArrow=none;endFill=0;" parent="UXUbac45LYqV1Sa2sKH3-55" source="UXUbac45LYqV1Sa2sKH3-56" target="UXUbac45LYqV1Sa2sKH3-67" edge="1">
          <mxGeometry relative="1" as="geometry" />
        </mxCell>
        <mxCell id="UXUbac45LYqV1Sa2sKH3-69" style="edgeStyle=none;rounded=0;orthogonalLoop=1;jettySize=auto;html=1;exitX=1;exitY=0.5;exitDx=0;exitDy=0;entryX=0;entryY=0.5;entryDx=0;entryDy=0;strokeColor=#808080;strokeWidth=0.5;endArrow=none;endFill=0;" parent="UXUbac45LYqV1Sa2sKH3-55" source="UXUbac45LYqV1Sa2sKH3-70" target="UXUbac45LYqV1Sa2sKH3-57" edge="1">
          <mxGeometry relative="1" as="geometry" />
        </mxCell>
        <mxCell id="UXUbac45LYqV1Sa2sKH3-70" value="" style="rounded=0;whiteSpace=wrap;html=1;fontFamily=Times New Roman;fontSize=2;strokeColor=#808080;rotation=-90;container=0;flipH=0;" parent="UXUbac45LYqV1Sa2sKH3-55" vertex="1">
          <mxGeometry x="21" y="30" width="15" height="15" as="geometry" />
        </mxCell>
        <mxCell id="UXUbac45LYqV1Sa2sKH3-71" style="edgeStyle=none;rounded=0;orthogonalLoop=1;jettySize=auto;html=1;exitX=0;exitY=0.5;exitDx=0;exitDy=0;entryX=1;entryY=0.5;entryDx=0;entryDy=0;strokeColor=#808080;strokeWidth=0.5;endArrow=none;endFill=0;" parent="UXUbac45LYqV1Sa2sKH3-55" source="UXUbac45LYqV1Sa2sKH3-56" target="UXUbac45LYqV1Sa2sKH3-70" edge="1">
          <mxGeometry relative="1" as="geometry" />
        </mxCell>
        <mxCell id="UXUbac45LYqV1Sa2sKH3-72" style="edgeStyle=none;rounded=0;orthogonalLoop=1;jettySize=auto;html=1;exitX=0;exitY=0.5;exitDx=0;exitDy=0;entryX=1;entryY=0.5;entryDx=0;entryDy=0;strokeColor=#808080;strokeWidth=0.5;endArrow=none;endFill=0;" parent="UXUbac45LYqV1Sa2sKH3-55" source="UXUbac45LYqV1Sa2sKH3-58" target="UXUbac45LYqV1Sa2sKH3-70" edge="1">
          <mxGeometry relative="1" as="geometry" />
        </mxCell>
        <mxCell id="UXUbac45LYqV1Sa2sKH3-73" style="edgeStyle=none;rounded=0;orthogonalLoop=1;jettySize=auto;html=1;exitX=0;exitY=0.5;exitDx=0;exitDy=0;entryX=1;entryY=0.5;entryDx=0;entryDy=0;strokeColor=#808080;strokeWidth=0.5;endArrow=none;endFill=0;" parent="UXUbac45LYqV1Sa2sKH3-55" source="UXUbac45LYqV1Sa2sKH3-59" target="UXUbac45LYqV1Sa2sKH3-70" edge="1">
          <mxGeometry relative="1" as="geometry" />
        </mxCell>
        <mxCell id="UXUbac45LYqV1Sa2sKH3-74" style="edgeStyle=none;rounded=0;orthogonalLoop=1;jettySize=auto;html=1;exitX=0;exitY=0.5;exitDx=0;exitDy=0;entryX=1;entryY=0.5;entryDx=0;entryDy=0;strokeColor=#808080;strokeWidth=0.5;endArrow=none;endFill=0;" parent="UXUbac45LYqV1Sa2sKH3-55" source="UXUbac45LYqV1Sa2sKH3-60" target="UXUbac45LYqV1Sa2sKH3-70" edge="1">
          <mxGeometry relative="1" as="geometry" />
        </mxCell>
        <mxCell id="UXUbac45LYqV1Sa2sKH3-75" style="edgeStyle=none;rounded=0;orthogonalLoop=1;jettySize=auto;html=1;exitX=0;exitY=0.5;exitDx=0;exitDy=0;entryX=1;entryY=0.5;entryDx=0;entryDy=0;strokeColor=#808080;strokeWidth=0.5;endArrow=none;endFill=0;" parent="UXUbac45LYqV1Sa2sKH3-55" source="UXUbac45LYqV1Sa2sKH3-61" target="UXUbac45LYqV1Sa2sKH3-70" edge="1">
          <mxGeometry relative="1" as="geometry" />
        </mxCell>
        <mxCell id="UXUbac45LYqV1Sa2sKH3-76" style="edgeStyle=none;rounded=0;orthogonalLoop=1;jettySize=auto;html=1;exitX=1;exitY=0.5;exitDx=0;exitDy=0;entryX=0;entryY=0.5;entryDx=0;entryDy=0;strokeColor=#808080;strokeWidth=0.5;endArrow=none;endFill=0;" parent="UXUbac45LYqV1Sa2sKH3-55" source="UXUbac45LYqV1Sa2sKH3-77" target="UXUbac45LYqV1Sa2sKH3-58" edge="1">
          <mxGeometry relative="1" as="geometry" />
        </mxCell>
        <mxCell id="UXUbac45LYqV1Sa2sKH3-77" value="" style="rounded=0;whiteSpace=wrap;html=1;fontFamily=Times New Roman;fontSize=2;strokeColor=#808080;rotation=-90;container=0;flipH=0;" parent="UXUbac45LYqV1Sa2sKH3-55" vertex="1">
          <mxGeometry x="43" y="30" width="15" height="15" as="geometry" />
        </mxCell>
        <mxCell id="UXUbac45LYqV1Sa2sKH3-78" style="edgeStyle=none;rounded=0;orthogonalLoop=1;jettySize=auto;html=1;exitX=0;exitY=0.5;exitDx=0;exitDy=0;entryX=1;entryY=0.5;entryDx=0;entryDy=0;strokeColor=#808080;strokeWidth=0.5;endArrow=none;endFill=0;" parent="UXUbac45LYqV1Sa2sKH3-55" source="UXUbac45LYqV1Sa2sKH3-56" target="UXUbac45LYqV1Sa2sKH3-77" edge="1">
          <mxGeometry relative="1" as="geometry" />
        </mxCell>
        <mxCell id="UXUbac45LYqV1Sa2sKH3-79" style="edgeStyle=none;rounded=0;orthogonalLoop=1;jettySize=auto;html=1;exitX=0;exitY=0.5;exitDx=0;exitDy=0;entryX=1;entryY=0.5;entryDx=0;entryDy=0;strokeColor=#808080;strokeWidth=0.5;endArrow=none;endFill=0;" parent="UXUbac45LYqV1Sa2sKH3-55" source="UXUbac45LYqV1Sa2sKH3-57" target="UXUbac45LYqV1Sa2sKH3-77" edge="1">
          <mxGeometry relative="1" as="geometry" />
        </mxCell>
        <mxCell id="UXUbac45LYqV1Sa2sKH3-80" style="edgeStyle=none;rounded=0;orthogonalLoop=1;jettySize=auto;html=1;exitX=0;exitY=0.5;exitDx=0;exitDy=0;entryX=1;entryY=0.5;entryDx=0;entryDy=0;strokeColor=#808080;strokeWidth=0.5;endArrow=none;endFill=0;" parent="UXUbac45LYqV1Sa2sKH3-55" source="UXUbac45LYqV1Sa2sKH3-59" target="UXUbac45LYqV1Sa2sKH3-77" edge="1">
          <mxGeometry relative="1" as="geometry" />
        </mxCell>
        <mxCell id="UXUbac45LYqV1Sa2sKH3-81" style="edgeStyle=none;rounded=0;orthogonalLoop=1;jettySize=auto;html=1;exitX=0;exitY=0.5;exitDx=0;exitDy=0;entryX=1;entryY=0.5;entryDx=0;entryDy=0;strokeColor=#808080;strokeWidth=0.5;endArrow=none;endFill=0;" parent="UXUbac45LYqV1Sa2sKH3-55" source="UXUbac45LYqV1Sa2sKH3-60" target="UXUbac45LYqV1Sa2sKH3-77" edge="1">
          <mxGeometry relative="1" as="geometry" />
        </mxCell>
        <mxCell id="UXUbac45LYqV1Sa2sKH3-82" style="edgeStyle=none;rounded=0;orthogonalLoop=1;jettySize=auto;html=1;exitX=0;exitY=0.5;exitDx=0;exitDy=0;entryX=1;entryY=0.5;entryDx=0;entryDy=0;strokeColor=#808080;strokeWidth=0.5;endArrow=none;endFill=0;" parent="UXUbac45LYqV1Sa2sKH3-55" source="UXUbac45LYqV1Sa2sKH3-61" target="UXUbac45LYqV1Sa2sKH3-77" edge="1">
          <mxGeometry relative="1" as="geometry" />
        </mxCell>
        <mxCell id="UXUbac45LYqV1Sa2sKH3-83" style="edgeStyle=none;rounded=0;orthogonalLoop=1;jettySize=auto;html=1;exitX=1;exitY=0.5;exitDx=0;exitDy=0;entryX=0;entryY=0.5;entryDx=0;entryDy=0;strokeColor=#808080;strokeWidth=0.5;endArrow=none;endFill=0;" parent="UXUbac45LYqV1Sa2sKH3-55" source="UXUbac45LYqV1Sa2sKH3-84" target="UXUbac45LYqV1Sa2sKH3-59" edge="1">
          <mxGeometry relative="1" as="geometry" />
        </mxCell>
        <mxCell id="UXUbac45LYqV1Sa2sKH3-84" value="" style="rounded=0;whiteSpace=wrap;html=1;fontFamily=Times New Roman;fontSize=2;strokeColor=#808080;rotation=-90;container=0;flipH=0;" parent="UXUbac45LYqV1Sa2sKH3-55" vertex="1">
          <mxGeometry x="64" y="30" width="15" height="15" as="geometry" />
        </mxCell>
        <mxCell id="UXUbac45LYqV1Sa2sKH3-85" style="edgeStyle=none;rounded=0;orthogonalLoop=1;jettySize=auto;html=1;exitX=0;exitY=0.5;exitDx=0;exitDy=0;entryX=1;entryY=0.5;entryDx=0;entryDy=0;strokeColor=#808080;strokeWidth=0.5;endArrow=none;endFill=0;" parent="UXUbac45LYqV1Sa2sKH3-55" source="UXUbac45LYqV1Sa2sKH3-56" target="UXUbac45LYqV1Sa2sKH3-84" edge="1">
          <mxGeometry relative="1" as="geometry" />
        </mxCell>
        <mxCell id="UXUbac45LYqV1Sa2sKH3-86" style="edgeStyle=none;rounded=0;orthogonalLoop=1;jettySize=auto;html=1;exitX=0;exitY=0.5;exitDx=0;exitDy=0;entryX=1;entryY=0.5;entryDx=0;entryDy=0;strokeColor=#808080;strokeWidth=0.5;endArrow=none;endFill=0;" parent="UXUbac45LYqV1Sa2sKH3-55" source="UXUbac45LYqV1Sa2sKH3-57" target="UXUbac45LYqV1Sa2sKH3-84" edge="1">
          <mxGeometry relative="1" as="geometry" />
        </mxCell>
        <mxCell id="UXUbac45LYqV1Sa2sKH3-87" style="edgeStyle=none;rounded=0;orthogonalLoop=1;jettySize=auto;html=1;exitX=0;exitY=0.5;exitDx=0;exitDy=0;entryX=1;entryY=0.5;entryDx=0;entryDy=0;strokeColor=#808080;strokeWidth=0.5;endArrow=none;endFill=0;" parent="UXUbac45LYqV1Sa2sKH3-55" source="UXUbac45LYqV1Sa2sKH3-58" target="UXUbac45LYqV1Sa2sKH3-84" edge="1">
          <mxGeometry relative="1" as="geometry" />
        </mxCell>
        <mxCell id="UXUbac45LYqV1Sa2sKH3-88" style="edgeStyle=none;rounded=0;orthogonalLoop=1;jettySize=auto;html=1;exitX=0;exitY=0.5;exitDx=0;exitDy=0;entryX=1;entryY=0.5;entryDx=0;entryDy=0;strokeColor=#808080;strokeWidth=0.5;endArrow=none;endFill=0;" parent="UXUbac45LYqV1Sa2sKH3-55" source="UXUbac45LYqV1Sa2sKH3-60" target="UXUbac45LYqV1Sa2sKH3-84" edge="1">
          <mxGeometry relative="1" as="geometry" />
        </mxCell>
        <mxCell id="UXUbac45LYqV1Sa2sKH3-89" style="edgeStyle=none;rounded=0;orthogonalLoop=1;jettySize=auto;html=1;exitX=0;exitY=0.5;exitDx=0;exitDy=0;entryX=1;entryY=0.5;entryDx=0;entryDy=0;strokeColor=#808080;strokeWidth=0.5;endArrow=none;endFill=0;" parent="UXUbac45LYqV1Sa2sKH3-55" source="UXUbac45LYqV1Sa2sKH3-61" target="UXUbac45LYqV1Sa2sKH3-84" edge="1">
          <mxGeometry relative="1" as="geometry" />
        </mxCell>
        <mxCell id="UXUbac45LYqV1Sa2sKH3-90" style="edgeStyle=none;rounded=0;orthogonalLoop=1;jettySize=auto;html=1;entryX=0;entryY=0.5;entryDx=0;entryDy=0;strokeColor=#808080;strokeWidth=0.5;endArrow=none;endFill=0;" parent="UXUbac45LYqV1Sa2sKH3-55" source="UXUbac45LYqV1Sa2sKH3-91" target="UXUbac45LYqV1Sa2sKH3-60" edge="1">
          <mxGeometry relative="1" as="geometry" />
        </mxCell>
        <mxCell id="UXUbac45LYqV1Sa2sKH3-91" value="" style="rounded=0;whiteSpace=wrap;html=1;fontFamily=Times New Roman;fontSize=2;strokeColor=#808080;rotation=-90;container=0;flipH=0;" parent="UXUbac45LYqV1Sa2sKH3-55" vertex="1">
          <mxGeometry x="86" y="30" width="15" height="15" as="geometry" />
        </mxCell>
        <mxCell id="UXUbac45LYqV1Sa2sKH3-92" style="edgeStyle=none;rounded=0;orthogonalLoop=1;jettySize=auto;html=1;exitX=0;exitY=0.5;exitDx=0;exitDy=0;entryX=1;entryY=0.5;entryDx=0;entryDy=0;strokeColor=#808080;strokeWidth=0.5;endArrow=none;endFill=0;" parent="UXUbac45LYqV1Sa2sKH3-55" source="UXUbac45LYqV1Sa2sKH3-56" target="UXUbac45LYqV1Sa2sKH3-91" edge="1">
          <mxGeometry relative="1" as="geometry" />
        </mxCell>
        <mxCell id="UXUbac45LYqV1Sa2sKH3-93" style="edgeStyle=none;rounded=0;orthogonalLoop=1;jettySize=auto;html=1;exitX=0;exitY=0.5;exitDx=0;exitDy=0;entryX=1;entryY=0.5;entryDx=0;entryDy=0;strokeColor=#808080;strokeWidth=0.5;endArrow=none;endFill=0;" parent="UXUbac45LYqV1Sa2sKH3-55" source="UXUbac45LYqV1Sa2sKH3-57" target="UXUbac45LYqV1Sa2sKH3-91" edge="1">
          <mxGeometry relative="1" as="geometry" />
        </mxCell>
        <mxCell id="UXUbac45LYqV1Sa2sKH3-94" style="edgeStyle=none;rounded=0;orthogonalLoop=1;jettySize=auto;html=1;exitX=0;exitY=0.5;exitDx=0;exitDy=0;entryX=1;entryY=0.5;entryDx=0;entryDy=0;strokeColor=#808080;strokeWidth=0.5;endArrow=none;endFill=0;" parent="UXUbac45LYqV1Sa2sKH3-55" source="UXUbac45LYqV1Sa2sKH3-58" target="UXUbac45LYqV1Sa2sKH3-91" edge="1">
          <mxGeometry relative="1" as="geometry" />
        </mxCell>
        <mxCell id="UXUbac45LYqV1Sa2sKH3-95" style="edgeStyle=none;rounded=0;orthogonalLoop=1;jettySize=auto;html=1;exitX=0;exitY=0.5;exitDx=0;exitDy=0;entryX=1;entryY=0.5;entryDx=0;entryDy=0;strokeColor=#808080;strokeWidth=0.5;endArrow=none;endFill=0;" parent="UXUbac45LYqV1Sa2sKH3-55" source="UXUbac45LYqV1Sa2sKH3-59" target="UXUbac45LYqV1Sa2sKH3-91" edge="1">
          <mxGeometry relative="1" as="geometry" />
        </mxCell>
        <mxCell id="UXUbac45LYqV1Sa2sKH3-96" style="edgeStyle=none;rounded=0;orthogonalLoop=1;jettySize=auto;html=1;exitX=0;exitY=0.5;exitDx=0;exitDy=0;entryX=1;entryY=0.5;entryDx=0;entryDy=0;strokeColor=#808080;strokeWidth=0.5;endArrow=none;endFill=0;" parent="UXUbac45LYqV1Sa2sKH3-55" source="UXUbac45LYqV1Sa2sKH3-61" target="UXUbac45LYqV1Sa2sKH3-91" edge="1">
          <mxGeometry relative="1" as="geometry" />
        </mxCell>
        <mxCell id="UXUbac45LYqV1Sa2sKH3-97" style="edgeStyle=none;rounded=0;orthogonalLoop=1;jettySize=auto;html=1;exitX=1;exitY=0.5;exitDx=0;exitDy=0;entryX=0;entryY=0.5;entryDx=0;entryDy=0;strokeColor=#808080;strokeWidth=0.5;endArrow=none;endFill=0;" parent="UXUbac45LYqV1Sa2sKH3-55" source="UXUbac45LYqV1Sa2sKH3-98" target="UXUbac45LYqV1Sa2sKH3-61" edge="1">
          <mxGeometry relative="1" as="geometry" />
        </mxCell>
        <mxCell id="UXUbac45LYqV1Sa2sKH3-98" value="" style="rounded=0;whiteSpace=wrap;html=1;fontFamily=Times New Roman;fontSize=2;strokeColor=#808080;rotation=-90;container=0;flipH=0;" parent="UXUbac45LYqV1Sa2sKH3-55" vertex="1">
          <mxGeometry x="107" y="30" width="15" height="15" as="geometry" />
        </mxCell>
        <mxCell id="UXUbac45LYqV1Sa2sKH3-99" style="edgeStyle=none;rounded=0;orthogonalLoop=1;jettySize=auto;html=1;exitX=0;exitY=0.5;exitDx=0;exitDy=0;entryX=1;entryY=0.5;entryDx=0;entryDy=0;strokeColor=#808080;strokeWidth=0.5;endArrow=none;endFill=0;" parent="UXUbac45LYqV1Sa2sKH3-55" source="UXUbac45LYqV1Sa2sKH3-56" target="UXUbac45LYqV1Sa2sKH3-98" edge="1">
          <mxGeometry relative="1" as="geometry" />
        </mxCell>
        <mxCell id="UXUbac45LYqV1Sa2sKH3-100" style="edgeStyle=none;rounded=0;orthogonalLoop=1;jettySize=auto;html=1;exitX=0;exitY=0.5;exitDx=0;exitDy=0;entryX=1;entryY=0.5;entryDx=0;entryDy=0;strokeColor=#808080;strokeWidth=0.5;endArrow=none;endFill=0;" parent="UXUbac45LYqV1Sa2sKH3-55" source="UXUbac45LYqV1Sa2sKH3-57" target="UXUbac45LYqV1Sa2sKH3-98" edge="1">
          <mxGeometry relative="1" as="geometry" />
        </mxCell>
        <mxCell id="UXUbac45LYqV1Sa2sKH3-101" style="edgeStyle=none;rounded=0;orthogonalLoop=1;jettySize=auto;html=1;exitX=0;exitY=0.5;exitDx=0;exitDy=0;entryX=1;entryY=0.5;entryDx=0;entryDy=0;strokeColor=#808080;strokeWidth=0.5;endArrow=none;endFill=0;" parent="UXUbac45LYqV1Sa2sKH3-55" source="UXUbac45LYqV1Sa2sKH3-58" target="UXUbac45LYqV1Sa2sKH3-98" edge="1">
          <mxGeometry relative="1" as="geometry" />
        </mxCell>
        <mxCell id="UXUbac45LYqV1Sa2sKH3-102" style="edgeStyle=none;rounded=0;orthogonalLoop=1;jettySize=auto;html=1;exitX=0;exitY=0.5;exitDx=0;exitDy=0;entryX=1;entryY=0.5;entryDx=0;entryDy=0;strokeColor=#808080;strokeWidth=0.5;endArrow=none;endFill=0;" parent="UXUbac45LYqV1Sa2sKH3-55" source="UXUbac45LYqV1Sa2sKH3-59" target="UXUbac45LYqV1Sa2sKH3-98" edge="1">
          <mxGeometry relative="1" as="geometry" />
        </mxCell>
        <mxCell id="UXUbac45LYqV1Sa2sKH3-103" style="edgeStyle=none;rounded=0;orthogonalLoop=1;jettySize=auto;html=1;exitX=0;exitY=0.5;exitDx=0;exitDy=0;entryX=1;entryY=0.5;entryDx=0;entryDy=0;strokeColor=#808080;strokeWidth=0.5;endArrow=none;endFill=0;" parent="UXUbac45LYqV1Sa2sKH3-55" source="UXUbac45LYqV1Sa2sKH3-60" target="UXUbac45LYqV1Sa2sKH3-98" edge="1">
          <mxGeometry relative="1" as="geometry" />
        </mxCell>
        <mxCell id="UXUbac45LYqV1Sa2sKH3-2" value="Target Encoder" style="rounded=1;whiteSpace=wrap;html=1;fontSize=15;fillColor=#dae8fc;strokeColor=#6c8ebf;strokeWidth=0.5;fillStyle=auto;fontFamily=Times New Roman;opacity=80;" parent="1" vertex="1">
          <mxGeometry x="-475" y="1271" width="260" height="50" as="geometry" />
        </mxCell>
        <mxCell id="UXUbac45LYqV1Sa2sKH3-104" value="" style="endArrow=none;html=1;rounded=0;" parent="1" edge="1">
          <mxGeometry width="50" height="50" relative="1" as="geometry">
            <mxPoint x="-826.5" y="1524.52" as="sourcePoint" />
            <mxPoint x="-86.5" y="1524.52" as="targetPoint" />
          </mxGeometry>
        </mxCell>
        <mxCell id="IJTUzlGgJpjvjqnyhvCo-99" value="" style="rounded=1;whiteSpace=wrap;html=1;strokeWidth=1;fillWeight=4;hachureGap=8;hachureAngle=45;fillColor=#fff2cc;sketch=0;fontFamily=Times New Roman;fontSize=14;strokeColor=#d6b656;textOpacity=30;" vertex="1" parent="1">
          <mxGeometry x="-317.25" y="1704.02" width="68" height="24.95" as="geometry" />
        </mxCell>
        <mxCell id="IJTUzlGgJpjvjqnyhvCo-100" value="&lt;font style=&quot;font-size: 13px;&quot;&gt;And&lt;/font&gt;" style="rounded=0;whiteSpace=wrap;html=1;fontFamily=Times New Roman;fontSize=13;strokeColor=none;spacingBottom=-10;spacing=-10;spacingTop=-10;" vertex="1" parent="1">
          <mxGeometry x="-377.25" y="1856" width="50" height="12" as="geometry" />
        </mxCell>
        <mxCell id="IJTUzlGgJpjvjqnyhvCo-101" style="edgeStyle=orthogonalEdgeStyle;rounded=0;orthogonalLoop=1;jettySize=auto;html=1;entryX=0.365;entryY=0.995;entryDx=0;entryDy=0;entryPerimeter=0;fontFamily=Times New Roman;endArrow=classic;endFill=1;" edge="1" parent="1">
          <mxGeometry relative="1" as="geometry">
            <mxPoint x="-282.25" y="1863" as="sourcePoint" />
            <mxPoint x="-282.3499999999999" y="1842.7600000000002" as="targetPoint" />
          </mxGeometry>
        </mxCell>
        <mxCell id="IJTUzlGgJpjvjqnyhvCo-102" style="edgeStyle=orthogonalEdgeStyle;rounded=0;orthogonalLoop=1;jettySize=auto;html=1;entryX=0.634;entryY=1.003;entryDx=0;entryDy=0;entryPerimeter=0;exitX=0.502;exitY=0.053;exitDx=0;exitDy=0;exitPerimeter=0;fontFamily=Times New Roman;endArrow=classic;endFill=1;" edge="1" parent="1" source="IJTUzlGgJpjvjqnyhvCo-118">
          <mxGeometry relative="1" as="geometry">
            <mxPoint x="-212.25" y="1863" as="sourcePoint" />
            <mxPoint x="-212.4100000000003" y="1843.1440000000002" as="targetPoint" />
          </mxGeometry>
        </mxCell>
        <mxCell id="IJTUzlGgJpjvjqnyhvCo-103" style="edgeStyle=orthogonalEdgeStyle;rounded=0;orthogonalLoop=1;jettySize=auto;html=1;entryX=0.904;entryY=0.983;entryDx=0;entryDy=0;entryPerimeter=0;fontFamily=Times New Roman;endArrow=classic;endFill=1;" edge="1" parent="1">
          <mxGeometry relative="1" as="geometry">
            <mxPoint x="-142.25" y="1864" as="sourcePoint" />
            <mxPoint x="-142.2100000000005" y="1843.1840000000002" as="targetPoint" />
          </mxGeometry>
        </mxCell>
        <mxCell id="IJTUzlGgJpjvjqnyhvCo-104" style="edgeStyle=orthogonalEdgeStyle;rounded=0;orthogonalLoop=1;jettySize=auto;html=1;exitX=0.5;exitY=0;exitDx=0;exitDy=0;entryX=0.5;entryY=1;entryDx=0;entryDy=0;strokeWidth=1;fontSize=18;fontFamily=Times New Roman;" edge="1" parent="1" source="IJTUzlGgJpjvjqnyhvCo-105" target="IJTUzlGgJpjvjqnyhvCo-99">
          <mxGeometry relative="1" as="geometry">
            <mxPoint x="-283.25" y="1728.75" as="targetPoint" />
          </mxGeometry>
        </mxCell>
        <mxCell id="IJTUzlGgJpjvjqnyhvCo-105" value="" style="rounded=0;whiteSpace=wrap;html=1;fontSize=11;fillColor=#d5e8d4;strokeColor=#82b366;fontFamily=Times New Roman;strokeWidth=0.5;" vertex="1" parent="1">
          <mxGeometry x="-309.75" y="1755" width="53" height="17" as="geometry" />
        </mxCell>
        <mxCell id="IJTUzlGgJpjvjqnyhvCo-106" value="" style="shape=table;startSize=0;container=1;collapsible=0;childLayout=tableLayout;rounded=0;fillStyle=auto;strokeColor=#82b366;strokeWidth=0.5;fontSize=11;fillColor=#d5e8d4;fontFamily=Times New Roman;" vertex="1" parent="1">
          <mxGeometry x="-392.25" y="1708" width="53" height="69" as="geometry" />
        </mxCell>
        <mxCell id="IJTUzlGgJpjvjqnyhvCo-107" value="" style="shape=tableRow;horizontal=0;startSize=0;swimlaneHead=0;swimlaneBody=0;top=0;left=0;bottom=0;right=0;collapsible=0;dropTarget=0;fillColor=none;points=[[0,0.5],[1,0.5]];portConstraint=eastwest;rounded=0;fillStyle=auto;strokeColor=#000000;strokeWidth=1;fontSize=11;fontFamily=Times New Roman;" vertex="1" parent="IJTUzlGgJpjvjqnyhvCo-106">
          <mxGeometry width="53" height="19" as="geometry" />
        </mxCell>
        <mxCell id="IJTUzlGgJpjvjqnyhvCo-108" value="&lt;font style=&quot;font-size: 11px;&quot;&gt;enemy&lt;/font&gt;" style="shape=partialRectangle;html=1;whiteSpace=wrap;connectable=0;overflow=hidden;fillColor=none;top=0;left=0;bottom=0;right=0;pointerEvents=1;rounded=0;fillStyle=auto;strokeColor=#000000;strokeWidth=1;fontSize=11;fontFamily=Times New Roman;" vertex="1" parent="IJTUzlGgJpjvjqnyhvCo-107">
          <mxGeometry width="53" height="19" as="geometry">
            <mxRectangle width="53" height="19" as="alternateBounds" />
          </mxGeometry>
        </mxCell>
        <mxCell id="IJTUzlGgJpjvjqnyhvCo-109" style="shape=tableRow;horizontal=0;startSize=0;swimlaneHead=0;swimlaneBody=0;top=0;left=0;bottom=0;right=0;collapsible=0;dropTarget=0;fillColor=none;points=[[0,0.5],[1,0.5]];portConstraint=eastwest;rounded=0;fillStyle=auto;strokeColor=#000000;strokeWidth=1;fontSize=11;fontFamily=Times New Roman;" vertex="1" parent="IJTUzlGgJpjvjqnyhvCo-106">
          <mxGeometry y="19" width="53" height="17" as="geometry" />
        </mxCell>
        <mxCell id="IJTUzlGgJpjvjqnyhvCo-110" value="disease" style="shape=partialRectangle;html=1;whiteSpace=wrap;connectable=0;overflow=hidden;fillColor=none;top=0;left=0;bottom=0;right=0;pointerEvents=1;rounded=0;fillStyle=auto;strokeColor=#000000;strokeWidth=1;fontSize=11;fontFamily=Times New Roman;spacingBottom=-10;spacingTop=-12;" vertex="1" parent="IJTUzlGgJpjvjqnyhvCo-109">
          <mxGeometry width="53" height="17" as="geometry">
            <mxRectangle width="53" height="17" as="alternateBounds" />
          </mxGeometry>
        </mxCell>
        <mxCell id="IJTUzlGgJpjvjqnyhvCo-111" value="" style="shape=tableRow;horizontal=0;startSize=0;swimlaneHead=0;swimlaneBody=0;top=0;left=0;bottom=0;right=0;collapsible=0;dropTarget=0;fillColor=none;points=[[0,0.5],[1,0.5]];portConstraint=eastwest;rounded=0;fillStyle=auto;strokeColor=#000000;strokeWidth=1;fontSize=11;fontFamily=Times New Roman;" vertex="1" parent="IJTUzlGgJpjvjqnyhvCo-106">
          <mxGeometry y="36" width="53" height="17" as="geometry" />
        </mxCell>
        <mxCell id="IJTUzlGgJpjvjqnyhvCo-112" value="desperate" style="shape=partialRectangle;html=1;whiteSpace=wrap;connectable=0;overflow=hidden;fillColor=none;top=0;left=0;bottom=0;right=0;pointerEvents=1;rounded=0;fillStyle=auto;strokeColor=#000000;strokeWidth=0.5;fontSize=11;fontFamily=Times New Roman;verticalAlign=bottom;spacingTop=-2;spacingBottom=0;" vertex="1" parent="IJTUzlGgJpjvjqnyhvCo-111">
          <mxGeometry width="53" height="17" as="geometry">
            <mxRectangle width="53" height="17" as="alternateBounds" />
          </mxGeometry>
        </mxCell>
        <mxCell id="IJTUzlGgJpjvjqnyhvCo-113" value="" style="shape=tableRow;horizontal=0;startSize=0;swimlaneHead=0;swimlaneBody=0;top=0;left=0;bottom=0;right=0;collapsible=0;dropTarget=0;fillColor=none;points=[[0,0.5],[1,0.5]];portConstraint=eastwest;rounded=0;fillStyle=auto;strokeColor=#000000;strokeWidth=1;fontSize=11;fontFamily=Times New Roman;" vertex="1" parent="IJTUzlGgJpjvjqnyhvCo-106">
          <mxGeometry y="53" width="53" height="16" as="geometry" />
        </mxCell>
        <mxCell id="IJTUzlGgJpjvjqnyhvCo-114" value="..." style="shape=partialRectangle;html=1;whiteSpace=wrap;connectable=0;overflow=hidden;fillColor=none;top=0;left=0;bottom=0;right=0;pointerEvents=1;rounded=0;fillStyle=auto;strokeColor=#000000;strokeWidth=1;fontSize=11;fontFamily=Times New Roman;" vertex="1" parent="IJTUzlGgJpjvjqnyhvCo-113">
          <mxGeometry width="53" height="16" as="geometry">
            <mxRectangle width="53" height="16" as="alternateBounds" />
          </mxGeometry>
        </mxCell>
        <mxCell id="IJTUzlGgJpjvjqnyhvCo-115" style="edgeStyle=orthogonalEdgeStyle;rounded=0;orthogonalLoop=1;jettySize=auto;html=1;entryX=0;entryY=0.5;entryDx=0;entryDy=0;strokeColor=#000000;strokeWidth=1;fontFamily=Times New Roman;fontSize=12;fontColor=#EA6B66;exitX=0.998;exitY=0.434;exitDx=0;exitDy=0;exitPerimeter=0;" edge="1" parent="1" source="IJTUzlGgJpjvjqnyhvCo-107" target="IJTUzlGgJpjvjqnyhvCo-99">
          <mxGeometry relative="1" as="geometry">
            <mxPoint x="-302.75" y="1717.5" as="targetPoint" />
          </mxGeometry>
        </mxCell>
        <mxCell id="IJTUzlGgJpjvjqnyhvCo-116" value="" style="group;fontFamily=Times New Roman;" vertex="1" connectable="0" parent="1">
          <mxGeometry x="-378.25" y="1846.82" width="260" height="75" as="geometry" />
        </mxCell>
        <mxCell id="IJTUzlGgJpjvjqnyhvCo-117" value="&lt;font color=&quot;#ff0000&quot; style=&quot;font-size: 13px;&quot;&gt;[MASK]&lt;/font&gt;" style="rounded=0;whiteSpace=wrap;html=1;fontFamily=Times New Roman;fontSize=13;strokeColor=none;spacingBottom=-10;spacing=-10;spacingTop=-10;fontStyle=1" vertex="1" parent="1">
          <mxGeometry x="-306.75" y="1856" width="50" height="12" as="geometry" />
        </mxCell>
        <mxCell id="IJTUzlGgJpjvjqnyhvCo-118" value="&lt;font style=&quot;font-size: 13px;&quot;&gt;of&lt;/font&gt;" style="rounded=0;whiteSpace=wrap;html=1;fontFamily=Times New Roman;fontSize=13;strokeColor=none;spacingBottom=-10;spacing=-10;spacingTop=-10;fillColor=none;" vertex="1" parent="1">
          <mxGeometry x="-237.25" y="1856" width="50" height="12" as="geometry" />
        </mxCell>
        <mxCell id="IJTUzlGgJpjvjqnyhvCo-119" value="&lt;font style=&quot;font-size: 13px;&quot;&gt;...&lt;/font&gt;" style="rounded=0;whiteSpace=wrap;html=1;fontFamily=Times New Roman;fontSize=13;strokeColor=none;spacingBottom=-10;spacing=-10;spacingTop=-10;" vertex="1" parent="1">
          <mxGeometry x="-167.25" y="1856" width="50" height="12" as="geometry" />
        </mxCell>
        <mxCell id="IJTUzlGgJpjvjqnyhvCo-120" style="edgeStyle=orthogonalEdgeStyle;rounded=0;orthogonalLoop=1;jettySize=auto;html=1;entryX=0.365;entryY=0.995;entryDx=0;entryDy=0;entryPerimeter=0;fontFamily=Times New Roman;exitX=0.367;exitY=0;exitDx=0;exitDy=0;exitPerimeter=0;" edge="1" parent="1">
          <mxGeometry relative="1" as="geometry">
            <mxPoint x="-282.83000000000004" y="1793" as="sourcePoint" />
            <mxPoint x="-282.8800000000001" y="1771.75" as="targetPoint" />
          </mxGeometry>
        </mxCell>
        <mxCell id="IJTUzlGgJpjvjqnyhvCo-121" value="Source Encoder" style="rounded=1;whiteSpace=wrap;html=1;fontSize=15;fillColor=#d5e8d4;strokeColor=#82b366;strokeWidth=0.5;fillStyle=auto;fontFamily=Times New Roman;opacity=70;" vertex="1" parent="1">
          <mxGeometry x="-378.25" y="1874" width="260" height="34" as="geometry" />
        </mxCell>
        <mxCell id="IJTUzlGgJpjvjqnyhvCo-122" value="&lt;font style=&quot;font-size: 13px;&quot;&gt;Und&lt;/font&gt;" style="rounded=0;whiteSpace=wrap;html=1;fontFamily=Times New Roman;fontSize=13;strokeColor=none;spacingBottom=-10;spacing=-10;spacingTop=-10;" vertex="1" parent="1">
          <mxGeometry x="-377.25" y="1921.82" width="50" height="12" as="geometry" />
        </mxCell>
        <mxCell id="IJTUzlGgJpjvjqnyhvCo-123" style="edgeStyle=orthogonalEdgeStyle;rounded=0;orthogonalLoop=1;jettySize=auto;html=1;entryX=0.365;entryY=0.995;entryDx=0;entryDy=0;entryPerimeter=0;fontFamily=Times New Roman;endArrow=classic;endFill=1;" edge="1" parent="1">
          <mxGeometry relative="1" as="geometry">
            <mxPoint x="-282.25" y="1928.82" as="sourcePoint" />
            <mxPoint x="-282.3499999999999" y="1908.58" as="targetPoint" />
          </mxGeometry>
        </mxCell>
        <mxCell id="IJTUzlGgJpjvjqnyhvCo-124" style="edgeStyle=orthogonalEdgeStyle;rounded=0;orthogonalLoop=1;jettySize=auto;html=1;entryX=0.634;entryY=1.003;entryDx=0;entryDy=0;entryPerimeter=0;exitX=0.502;exitY=0.053;exitDx=0;exitDy=0;exitPerimeter=0;fontFamily=Times New Roman;endArrow=classic;endFill=1;" edge="1" parent="1" source="IJTUzlGgJpjvjqnyhvCo-127">
          <mxGeometry relative="1" as="geometry">
            <mxPoint x="-212.25" y="1928.82" as="sourcePoint" />
            <mxPoint x="-212.4100000000003" y="1908.9640000000002" as="targetPoint" />
          </mxGeometry>
        </mxCell>
        <mxCell id="IJTUzlGgJpjvjqnyhvCo-125" style="edgeStyle=orthogonalEdgeStyle;rounded=0;orthogonalLoop=1;jettySize=auto;html=1;entryX=0.904;entryY=0.983;entryDx=0;entryDy=0;entryPerimeter=0;fontFamily=Times New Roman;endArrow=classic;endFill=1;" edge="1" parent="1">
          <mxGeometry relative="1" as="geometry">
            <mxPoint x="-142.25" y="1928.82" as="sourcePoint" />
            <mxPoint x="-142.2100000000005" y="1908.0040000000001" as="targetPoint" />
          </mxGeometry>
        </mxCell>
        <mxCell id="IJTUzlGgJpjvjqnyhvCo-126" value="&lt;font style=&quot;font-size: 13px;&quot;&gt;der&lt;/font&gt;" style="rounded=0;whiteSpace=wrap;html=1;fontFamily=Times New Roman;fontSize=13;strokeColor=none;spacingBottom=-10;spacing=-10;spacingTop=-10;fontColor=#000000;" vertex="1" parent="1">
          <mxGeometry x="-306.75" y="1921.82" width="50" height="12" as="geometry" />
        </mxCell>
        <mxCell id="IJTUzlGgJpjvjqnyhvCo-127" value="gemeinsame" style="rounded=0;whiteSpace=wrap;html=1;fontFamily=Times New Roman;fontSize=13;strokeColor=none;spacingBottom=-10;spacing=-10;spacingTop=-10;fillColor=none;" vertex="1" parent="1">
          <mxGeometry x="-237.25" y="1921.82" width="50" height="12" as="geometry" />
        </mxCell>
        <mxCell id="IJTUzlGgJpjvjqnyhvCo-128" value="&lt;font style=&quot;font-size: 13px;&quot;&gt;...&lt;/font&gt;" style="rounded=0;whiteSpace=wrap;html=1;fontFamily=Times New Roman;fontSize=13;strokeColor=none;spacingBottom=-10;spacing=-10;spacingTop=-10;" vertex="1" parent="1">
          <mxGeometry x="-167.25" y="1921.82" width="50" height="12" as="geometry" />
        </mxCell>
        <mxCell id="IJTUzlGgJpjvjqnyhvCo-129" style="edgeStyle=orthogonalEdgeStyle;rounded=0;orthogonalLoop=1;jettySize=auto;html=1;entryX=0.365;entryY=0.995;entryDx=0;entryDy=0;entryPerimeter=0;fontFamily=Times New Roman;endArrow=classic;endFill=1;" edge="1" parent="1">
          <mxGeometry relative="1" as="geometry">
            <mxPoint x="-353.25" y="1921.82" as="sourcePoint" />
            <mxPoint x="-353.25" y="1908.8200000000002" as="targetPoint" />
          </mxGeometry>
        </mxCell>
        <mxCell id="IJTUzlGgJpjvjqnyhvCo-130" value="" style="html=1;verticalLabelPosition=bottom;align=center;labelBackgroundColor=#ffffff;verticalAlign=top;strokeWidth=1;shadow=0;dashed=0;shape=mxgraph.ios7.icons.document;labelBorderColor=none;fontFamily=Times New Roman;fontSize=13;opacity=40;fillColor=#f5f5f5;strokeColor=#666666;fontColor=#333333;sketch=1;" vertex="1" parent="1">
          <mxGeometry x="-221.25" y="1690" width="86" height="100" as="geometry" />
        </mxCell>
        <mxCell id="IJTUzlGgJpjvjqnyhvCo-131" value="&lt;font color=&quot;#000000&quot; style=&quot;font-size: 13px;&quot;&gt;enemy&lt;/font&gt;&lt;font color=&quot;#b3b3b3&quot; style=&quot;font-size: 13px;&quot;&gt;&amp;nbsp;&lt;/font&gt;&lt;font color=&quot;#000000&quot; style=&quot;font-size: 13px;&quot;&gt;&amp;nbsp;&amp;nbsp;&lt;/font&gt;&lt;font style=&quot;font-size: 13px;&quot; color=&quot;#000000&quot;&gt;&lt;br style=&quot;font-size: 13px;&quot;&gt;phthisis&amp;nbsp; &amp;nbsp; &amp;nbsp; &amp;nbsp; &amp;nbsp;&amp;nbsp;&lt;/font&gt;&lt;br style=&quot;font-size: 13px;&quot;&gt;&lt;font color=&quot;#000000&quot; style=&quot;font-size: 13px;&quot;&gt;pandeic&amp;nbsp; &amp;nbsp;&amp;nbsp;&lt;br style=&quot;font-size: 13px;&quot;&gt;...&amp;nbsp; &amp;nbsp; &amp;nbsp; &amp;nbsp; &amp;nbsp; &amp;nbsp; &amp;nbsp;...&lt;br style=&quot;font-size: 13px;&quot;&gt;&lt;/font&gt;" style="rounded=0;whiteSpace=wrap;html=1;labelBorderColor=none;strokeColor=none;strokeWidth=1;fontFamily=Times New Roman;fontSize=13;fontColor=#FF0000;fillColor=none;opacity=80;align=left;" vertex="1" parent="1">
          <mxGeometry x="-218.25" y="1721.5" width="83" height="58" as="geometry" />
        </mxCell>
        <mxCell id="IJTUzlGgJpjvjqnyhvCo-132" value="Vocab.&amp;nbsp; &amp;nbsp; Prob." style="text;html=1;align=left;verticalAlign=middle;resizable=0;points=[];autosize=1;strokeColor=none;fillColor=none;fontSize=13;fontFamily=Times New Roman;fontColor=#000000;" vertex="1" parent="1">
          <mxGeometry x="-220.25" y="1691.5" width="100" height="30" as="geometry" />
        </mxCell>
        <mxCell id="IJTUzlGgJpjvjqnyhvCo-133" style="edgeStyle=orthogonalEdgeStyle;rounded=0;orthogonalLoop=1;jettySize=auto;html=1;exitX=0;exitY=0.5;exitDx=0;exitDy=0;entryX=0;entryY=0.5;entryDx=0;entryDy=0;fontFamily=Times New Roman;fontSize=10;fontColor=#000000;endArrow=ERzeroToMany;endFill=0;fillColor=#d5e8d4;strokeColor=#82b366;" edge="1" parent="1" source="IJTUzlGgJpjvjqnyhvCo-196" target="IJTUzlGgJpjvjqnyhvCo-121">
          <mxGeometry relative="1" as="geometry" />
        </mxCell>
        <mxCell id="IJTUzlGgJpjvjqnyhvCo-134" value="Cross-lingual&lt;br style=&quot;font-size: 14px;&quot;&gt;Attention" style="edgeLabel;html=1;align=center;verticalAlign=middle;resizable=0;points=[];fontSize=14;rotation=-90;labelBackgroundColor=none;fontFamily=Times New Roman;" vertex="1" connectable="0" parent="IJTUzlGgJpjvjqnyhvCo-133">
          <mxGeometry x="-0.0062" y="1" relative="1" as="geometry">
            <mxPoint x="-2" as="offset" />
          </mxGeometry>
        </mxCell>
        <mxCell id="IJTUzlGgJpjvjqnyhvCo-135" value="" style="endArrow=none;html=1;rounded=0;fontFamily=Times New Roman;fontSize=13;fontColor=#000000;strokeColor=#666666;opacity=40;" edge="1" parent="1">
          <mxGeometry width="50" height="50" relative="1" as="geometry">
            <mxPoint x="-218.25" y="1717.65" as="sourcePoint" />
            <mxPoint x="-139.25" y="1717.34" as="targetPoint" />
          </mxGeometry>
        </mxCell>
        <mxCell id="IJTUzlGgJpjvjqnyhvCo-136" value="Embedding Matrix" style="text;html=1;align=center;verticalAlign=middle;resizable=0;points=[];autosize=1;strokeColor=none;fillColor=none;fontSize=11;fontColor=#000000;fontFamily=Times New Roman;spacingTop=-10;spacingBottom=-10;" vertex="1" parent="1">
          <mxGeometry x="-416.25" y="1698" width="110" as="geometry" />
        </mxCell>
        <mxCell id="IJTUzlGgJpjvjqnyhvCo-138" value="$$P_b(w|\boldsymbol{x},\boldsymbol{c})$$" style="text;html=1;align=center;verticalAlign=middle;resizable=0;points=[];autosize=1;strokeColor=none;fillColor=none;fontSize=14;fontFamily=Times New Roman;spacing=-2;spacingLeft=-120;spacingRight=-120;fontStyle=1;labelBackgroundColor=none;labelBorderColor=none;" vertex="1" parent="1">
          <mxGeometry x="-298.75" y="1705.98" width="30" height="20" as="geometry" />
        </mxCell>
        <mxCell id="IJTUzlGgJpjvjqnyhvCo-139" value="$$\mathbf{h}_\mathrm{[MASK]}$$" style="text;html=1;align=center;verticalAlign=middle;resizable=0;points=[];autosize=1;strokeColor=none;fillColor=none;fontSize=14;fontFamily=Times New Roman;spacingLeft=-90;spacingRight=-90;spacingTop=-10;spacingBottom=-10;" vertex="1" parent="1">
          <mxGeometry x="-307.25" y="1757" width="50" height="10" as="geometry" />
        </mxCell>
        <mxCell id="IJTUzlGgJpjvjqnyhvCo-141" style="edgeStyle=orthogonalEdgeStyle;rounded=0;orthogonalLoop=1;jettySize=auto;html=1;entryX=-0.007;entryY=0.265;entryDx=0;entryDy=0;strokeColor=#000000;strokeWidth=1;fontFamily=Times New Roman;fontSize=12;fontColor=#EA6B66;entryPerimeter=0;exitX=1;exitY=0.5;exitDx=0;exitDy=0;" edge="1" parent="1" source="IJTUzlGgJpjvjqnyhvCo-99" target="IJTUzlGgJpjvjqnyhvCo-130">
          <mxGeometry relative="1" as="geometry">
            <mxPoint x="-263.94000000000005" y="1716.92" as="sourcePoint" />
            <mxPoint x="-240.44000000000005" y="1716.92" as="targetPoint" />
          </mxGeometry>
        </mxCell>
        <mxCell id="IJTUzlGgJpjvjqnyhvCo-143" value="&lt;font color=&quot;#000000&quot; style=&quot;font-size: 13px;&quot;&gt;0.08&lt;br style=&quot;font-size: 13px;&quot;&gt;&lt;/font&gt;" style="rounded=0;whiteSpace=wrap;html=1;labelBorderColor=none;strokeColor=none;strokeWidth=1;fontFamily=Times New Roman;fontSize=13;fontColor=#FF0000;fillColor=none;opacity=80;align=left;" vertex="1" parent="1">
          <mxGeometry x="-164.25" y="1732.97" width="28" height="20" as="geometry" />
        </mxCell>
        <mxCell id="IJTUzlGgJpjvjqnyhvCo-144" value="&lt;font color=&quot;#000000&quot; style=&quot;font-size: 13px;&quot;&gt;0.28&lt;br style=&quot;font-size: 13px;&quot;&gt;&lt;/font&gt;" style="rounded=0;whiteSpace=wrap;html=1;labelBorderColor=none;strokeColor=none;strokeWidth=1;fontFamily=Times New Roman;fontSize=13;fontColor=#FF0000;fillColor=none;opacity=80;align=left;" vertex="1" parent="1">
          <mxGeometry x="-164.25" y="1749" width="28" height="20" as="geometry" />
        </mxCell>
        <mxCell id="IJTUzlGgJpjvjqnyhvCo-145" value="&lt;font color=&quot;#000000&quot; style=&quot;font-size: 13px;&quot;&gt;0.36&lt;br style=&quot;font-size: 13px;&quot;&gt;&lt;/font&gt;" style="rounded=0;whiteSpace=wrap;html=1;labelBorderColor=none;strokeColor=none;strokeWidth=1;fontFamily=Times New Roman;fontSize=13;fontColor=#FF0000;fillColor=none;opacity=80;align=left;" vertex="1" parent="1">
          <mxGeometry x="-164.25" y="1716.97" width="28" height="20" as="geometry" />
        </mxCell>
        <mxCell id="IJTUzlGgJpjvjqnyhvCo-146" style="edgeStyle=orthogonalEdgeStyle;rounded=0;orthogonalLoop=1;jettySize=auto;html=1;entryX=0.365;entryY=0.995;entryDx=0;entryDy=0;entryPerimeter=0;fontFamily=Times New Roman;endArrow=classic;endFill=1;" edge="1" parent="1">
          <mxGeometry relative="1" as="geometry">
            <mxPoint x="-353.25" y="1856" as="sourcePoint" />
            <mxPoint x="-353.2499999999999" y="1843.0000000000002" as="targetPoint" />
          </mxGeometry>
        </mxCell>
        <mxCell id="IJTUzlGgJpjvjqnyhvCo-147" value="" style="group" vertex="1" connectable="0" parent="1">
          <mxGeometry x="-309.25" y="1795" width="122" height="45" as="geometry" />
        </mxCell>
        <mxCell id="IJTUzlGgJpjvjqnyhvCo-148" value="" style="rounded=0;whiteSpace=wrap;html=1;fontFamily=Times New Roman;fontSize=2;strokeColor=#808080;rotation=-90;container=0;flipH=0;" vertex="1" parent="IJTUzlGgJpjvjqnyhvCo-147">
          <mxGeometry width="15" height="15" as="geometry" />
        </mxCell>
        <mxCell id="IJTUzlGgJpjvjqnyhvCo-149" value="" style="rounded=0;whiteSpace=wrap;html=1;fontFamily=Times New Roman;fontSize=2;strokeColor=#808080;rotation=-90;container=0;flipH=0;" vertex="1" parent="IJTUzlGgJpjvjqnyhvCo-147">
          <mxGeometry x="21" width="15" height="15" as="geometry" />
        </mxCell>
        <mxCell id="IJTUzlGgJpjvjqnyhvCo-150" value="" style="rounded=0;whiteSpace=wrap;html=1;fontFamily=Times New Roman;fontSize=2;strokeColor=#808080;rotation=-90;container=0;flipH=0;" vertex="1" parent="IJTUzlGgJpjvjqnyhvCo-147">
          <mxGeometry x="43" width="15" height="15" as="geometry" />
        </mxCell>
        <mxCell id="IJTUzlGgJpjvjqnyhvCo-151" value="" style="rounded=0;whiteSpace=wrap;html=1;fontFamily=Times New Roman;fontSize=2;strokeColor=#808080;rotation=-90;container=0;flipH=0;" vertex="1" parent="IJTUzlGgJpjvjqnyhvCo-147">
          <mxGeometry x="64" width="15" height="15" as="geometry" />
        </mxCell>
        <mxCell id="IJTUzlGgJpjvjqnyhvCo-152" value="" style="rounded=0;whiteSpace=wrap;html=1;fontFamily=Times New Roman;fontSize=2;strokeColor=#808080;rotation=-90;container=0;flipH=0;" vertex="1" parent="IJTUzlGgJpjvjqnyhvCo-147">
          <mxGeometry x="86" width="15" height="15" as="geometry" />
        </mxCell>
        <mxCell id="IJTUzlGgJpjvjqnyhvCo-153" value="" style="rounded=0;whiteSpace=wrap;html=1;fontFamily=Times New Roman;fontSize=2;strokeColor=#808080;rotation=-90;container=0;flipH=0;" vertex="1" parent="IJTUzlGgJpjvjqnyhvCo-147">
          <mxGeometry x="107" width="15" height="15" as="geometry" />
        </mxCell>
        <mxCell id="IJTUzlGgJpjvjqnyhvCo-154" style="edgeStyle=none;rounded=0;orthogonalLoop=1;jettySize=auto;html=1;exitX=1;exitY=0.5;exitDx=0;exitDy=0;entryX=0;entryY=0.5;entryDx=0;entryDy=0;strokeColor=#808080;strokeWidth=0.5;endArrow=none;endFill=0;" edge="1" parent="IJTUzlGgJpjvjqnyhvCo-147" source="IJTUzlGgJpjvjqnyhvCo-159" target="IJTUzlGgJpjvjqnyhvCo-149">
          <mxGeometry relative="1" as="geometry" />
        </mxCell>
        <mxCell id="IJTUzlGgJpjvjqnyhvCo-155" style="edgeStyle=none;rounded=0;orthogonalLoop=1;jettySize=auto;html=1;exitX=1;exitY=0.5;exitDx=0;exitDy=0;entryX=0;entryY=0.5;entryDx=0;entryDy=0;strokeColor=#808080;strokeWidth=0.5;endArrow=none;endFill=0;" edge="1" parent="IJTUzlGgJpjvjqnyhvCo-147" source="IJTUzlGgJpjvjqnyhvCo-159" target="IJTUzlGgJpjvjqnyhvCo-150">
          <mxGeometry relative="1" as="geometry" />
        </mxCell>
        <mxCell id="IJTUzlGgJpjvjqnyhvCo-156" style="edgeStyle=none;rounded=0;orthogonalLoop=1;jettySize=auto;html=1;exitX=1;exitY=0.5;exitDx=0;exitDy=0;entryX=0;entryY=0.5;entryDx=0;entryDy=0;strokeColor=#808080;strokeWidth=0.5;endArrow=none;endFill=0;" edge="1" parent="IJTUzlGgJpjvjqnyhvCo-147" source="IJTUzlGgJpjvjqnyhvCo-159" target="IJTUzlGgJpjvjqnyhvCo-151">
          <mxGeometry relative="1" as="geometry" />
        </mxCell>
        <mxCell id="IJTUzlGgJpjvjqnyhvCo-157" style="edgeStyle=none;rounded=0;orthogonalLoop=1;jettySize=auto;html=1;exitX=1;exitY=0.5;exitDx=0;exitDy=0;entryX=0;entryY=0.5;entryDx=0;entryDy=0;strokeColor=#808080;strokeWidth=0.5;endArrow=none;endFill=0;" edge="1" parent="IJTUzlGgJpjvjqnyhvCo-147" source="IJTUzlGgJpjvjqnyhvCo-159" target="IJTUzlGgJpjvjqnyhvCo-152">
          <mxGeometry relative="1" as="geometry" />
        </mxCell>
        <mxCell id="IJTUzlGgJpjvjqnyhvCo-158" style="edgeStyle=none;rounded=0;orthogonalLoop=1;jettySize=auto;html=1;exitX=1;exitY=0.5;exitDx=0;exitDy=0;entryX=0;entryY=0.5;entryDx=0;entryDy=0;strokeColor=#808080;strokeWidth=0.5;endArrow=none;endFill=0;" edge="1" parent="IJTUzlGgJpjvjqnyhvCo-147" source="IJTUzlGgJpjvjqnyhvCo-159" target="IJTUzlGgJpjvjqnyhvCo-153">
          <mxGeometry relative="1" as="geometry" />
        </mxCell>
        <mxCell id="IJTUzlGgJpjvjqnyhvCo-159" value="" style="rounded=0;whiteSpace=wrap;html=1;fontFamily=Times New Roman;fontSize=2;strokeColor=#808080;rotation=-90;container=0;flipH=0;" vertex="1" parent="IJTUzlGgJpjvjqnyhvCo-147">
          <mxGeometry y="30" width="15" height="15" as="geometry" />
        </mxCell>
        <mxCell id="IJTUzlGgJpjvjqnyhvCo-160" style="edgeStyle=none;rounded=0;orthogonalLoop=1;jettySize=auto;html=1;exitX=0;exitY=0.5;exitDx=0;exitDy=0;entryX=1;entryY=0.5;entryDx=0;entryDy=0;strokeColor=#808080;strokeWidth=0.5;endArrow=none;endFill=0;" edge="1" parent="IJTUzlGgJpjvjqnyhvCo-147" source="IJTUzlGgJpjvjqnyhvCo-148" target="IJTUzlGgJpjvjqnyhvCo-159">
          <mxGeometry relative="1" as="geometry" />
        </mxCell>
        <mxCell id="IJTUzlGgJpjvjqnyhvCo-161" style="edgeStyle=none;rounded=0;orthogonalLoop=1;jettySize=auto;html=1;exitX=1;exitY=0.5;exitDx=0;exitDy=0;entryX=0;entryY=0.5;entryDx=0;entryDy=0;strokeColor=#808080;strokeWidth=0.5;endArrow=none;endFill=0;" edge="1" parent="IJTUzlGgJpjvjqnyhvCo-147" source="IJTUzlGgJpjvjqnyhvCo-162" target="IJTUzlGgJpjvjqnyhvCo-149">
          <mxGeometry relative="1" as="geometry" />
        </mxCell>
        <mxCell id="IJTUzlGgJpjvjqnyhvCo-162" value="" style="rounded=0;whiteSpace=wrap;html=1;fontFamily=Times New Roman;fontSize=2;strokeColor=#808080;rotation=-90;container=0;flipH=0;" vertex="1" parent="IJTUzlGgJpjvjqnyhvCo-147">
          <mxGeometry x="21" y="30" width="15" height="15" as="geometry" />
        </mxCell>
        <mxCell id="IJTUzlGgJpjvjqnyhvCo-163" style="edgeStyle=none;rounded=0;orthogonalLoop=1;jettySize=auto;html=1;exitX=0;exitY=0.5;exitDx=0;exitDy=0;entryX=1;entryY=0.5;entryDx=0;entryDy=0;strokeColor=#808080;strokeWidth=0.5;endArrow=none;endFill=0;" edge="1" parent="IJTUzlGgJpjvjqnyhvCo-147" source="IJTUzlGgJpjvjqnyhvCo-148" target="IJTUzlGgJpjvjqnyhvCo-162">
          <mxGeometry relative="1" as="geometry" />
        </mxCell>
        <mxCell id="IJTUzlGgJpjvjqnyhvCo-164" style="edgeStyle=none;rounded=0;orthogonalLoop=1;jettySize=auto;html=1;exitX=0;exitY=0.5;exitDx=0;exitDy=0;entryX=1;entryY=0.5;entryDx=0;entryDy=0;strokeColor=#808080;strokeWidth=0.5;endArrow=none;endFill=0;" edge="1" parent="IJTUzlGgJpjvjqnyhvCo-147" source="IJTUzlGgJpjvjqnyhvCo-150" target="IJTUzlGgJpjvjqnyhvCo-162">
          <mxGeometry relative="1" as="geometry" />
        </mxCell>
        <mxCell id="IJTUzlGgJpjvjqnyhvCo-165" style="edgeStyle=none;rounded=0;orthogonalLoop=1;jettySize=auto;html=1;exitX=0;exitY=0.5;exitDx=0;exitDy=0;entryX=1;entryY=0.5;entryDx=0;entryDy=0;strokeColor=#808080;strokeWidth=0.5;endArrow=none;endFill=0;" edge="1" parent="IJTUzlGgJpjvjqnyhvCo-147" source="IJTUzlGgJpjvjqnyhvCo-151" target="IJTUzlGgJpjvjqnyhvCo-162">
          <mxGeometry relative="1" as="geometry" />
        </mxCell>
        <mxCell id="IJTUzlGgJpjvjqnyhvCo-166" style="edgeStyle=none;rounded=0;orthogonalLoop=1;jettySize=auto;html=1;exitX=0;exitY=0.5;exitDx=0;exitDy=0;entryX=1;entryY=0.5;entryDx=0;entryDy=0;strokeColor=#808080;strokeWidth=0.5;endArrow=none;endFill=0;" edge="1" parent="IJTUzlGgJpjvjqnyhvCo-147" source="IJTUzlGgJpjvjqnyhvCo-152" target="IJTUzlGgJpjvjqnyhvCo-162">
          <mxGeometry relative="1" as="geometry" />
        </mxCell>
        <mxCell id="IJTUzlGgJpjvjqnyhvCo-167" style="edgeStyle=none;rounded=0;orthogonalLoop=1;jettySize=auto;html=1;exitX=0;exitY=0.5;exitDx=0;exitDy=0;entryX=1;entryY=0.5;entryDx=0;entryDy=0;strokeColor=#808080;strokeWidth=0.5;endArrow=none;endFill=0;" edge="1" parent="IJTUzlGgJpjvjqnyhvCo-147" source="IJTUzlGgJpjvjqnyhvCo-153" target="IJTUzlGgJpjvjqnyhvCo-162">
          <mxGeometry relative="1" as="geometry" />
        </mxCell>
        <mxCell id="IJTUzlGgJpjvjqnyhvCo-168" style="edgeStyle=none;rounded=0;orthogonalLoop=1;jettySize=auto;html=1;exitX=1;exitY=0.5;exitDx=0;exitDy=0;entryX=0;entryY=0.5;entryDx=0;entryDy=0;strokeColor=#808080;strokeWidth=0.5;endArrow=none;endFill=0;" edge="1" parent="IJTUzlGgJpjvjqnyhvCo-147" source="IJTUzlGgJpjvjqnyhvCo-169" target="IJTUzlGgJpjvjqnyhvCo-150">
          <mxGeometry relative="1" as="geometry" />
        </mxCell>
        <mxCell id="IJTUzlGgJpjvjqnyhvCo-169" value="" style="rounded=0;whiteSpace=wrap;html=1;fontFamily=Times New Roman;fontSize=2;strokeColor=#808080;rotation=-90;container=0;flipH=0;" vertex="1" parent="IJTUzlGgJpjvjqnyhvCo-147">
          <mxGeometry x="43" y="30" width="15" height="15" as="geometry" />
        </mxCell>
        <mxCell id="IJTUzlGgJpjvjqnyhvCo-170" style="edgeStyle=none;rounded=0;orthogonalLoop=1;jettySize=auto;html=1;exitX=0;exitY=0.5;exitDx=0;exitDy=0;entryX=1;entryY=0.5;entryDx=0;entryDy=0;strokeColor=#808080;strokeWidth=0.5;endArrow=none;endFill=0;" edge="1" parent="IJTUzlGgJpjvjqnyhvCo-147" source="IJTUzlGgJpjvjqnyhvCo-148" target="IJTUzlGgJpjvjqnyhvCo-169">
          <mxGeometry relative="1" as="geometry" />
        </mxCell>
        <mxCell id="IJTUzlGgJpjvjqnyhvCo-171" style="edgeStyle=none;rounded=0;orthogonalLoop=1;jettySize=auto;html=1;exitX=0;exitY=0.5;exitDx=0;exitDy=0;entryX=1;entryY=0.5;entryDx=0;entryDy=0;strokeColor=#808080;strokeWidth=0.5;endArrow=none;endFill=0;" edge="1" parent="IJTUzlGgJpjvjqnyhvCo-147" source="IJTUzlGgJpjvjqnyhvCo-149" target="IJTUzlGgJpjvjqnyhvCo-169">
          <mxGeometry relative="1" as="geometry" />
        </mxCell>
        <mxCell id="IJTUzlGgJpjvjqnyhvCo-172" style="edgeStyle=none;rounded=0;orthogonalLoop=1;jettySize=auto;html=1;exitX=0;exitY=0.5;exitDx=0;exitDy=0;entryX=1;entryY=0.5;entryDx=0;entryDy=0;strokeColor=#808080;strokeWidth=0.5;endArrow=none;endFill=0;" edge="1" parent="IJTUzlGgJpjvjqnyhvCo-147" source="IJTUzlGgJpjvjqnyhvCo-151" target="IJTUzlGgJpjvjqnyhvCo-169">
          <mxGeometry relative="1" as="geometry" />
        </mxCell>
        <mxCell id="IJTUzlGgJpjvjqnyhvCo-173" style="edgeStyle=none;rounded=0;orthogonalLoop=1;jettySize=auto;html=1;exitX=0;exitY=0.5;exitDx=0;exitDy=0;entryX=1;entryY=0.5;entryDx=0;entryDy=0;strokeColor=#808080;strokeWidth=0.5;endArrow=none;endFill=0;" edge="1" parent="IJTUzlGgJpjvjqnyhvCo-147" source="IJTUzlGgJpjvjqnyhvCo-152" target="IJTUzlGgJpjvjqnyhvCo-169">
          <mxGeometry relative="1" as="geometry" />
        </mxCell>
        <mxCell id="IJTUzlGgJpjvjqnyhvCo-174" style="edgeStyle=none;rounded=0;orthogonalLoop=1;jettySize=auto;html=1;exitX=0;exitY=0.5;exitDx=0;exitDy=0;entryX=1;entryY=0.5;entryDx=0;entryDy=0;strokeColor=#808080;strokeWidth=0.5;endArrow=none;endFill=0;" edge="1" parent="IJTUzlGgJpjvjqnyhvCo-147" source="IJTUzlGgJpjvjqnyhvCo-153" target="IJTUzlGgJpjvjqnyhvCo-169">
          <mxGeometry relative="1" as="geometry" />
        </mxCell>
        <mxCell id="IJTUzlGgJpjvjqnyhvCo-175" style="edgeStyle=none;rounded=0;orthogonalLoop=1;jettySize=auto;html=1;exitX=1;exitY=0.5;exitDx=0;exitDy=0;entryX=0;entryY=0.5;entryDx=0;entryDy=0;strokeColor=#808080;strokeWidth=0.5;endArrow=none;endFill=0;" edge="1" parent="IJTUzlGgJpjvjqnyhvCo-147" source="IJTUzlGgJpjvjqnyhvCo-176" target="IJTUzlGgJpjvjqnyhvCo-151">
          <mxGeometry relative="1" as="geometry" />
        </mxCell>
        <mxCell id="IJTUzlGgJpjvjqnyhvCo-176" value="" style="rounded=0;whiteSpace=wrap;html=1;fontFamily=Times New Roman;fontSize=2;strokeColor=#808080;rotation=-90;container=0;flipH=0;" vertex="1" parent="IJTUzlGgJpjvjqnyhvCo-147">
          <mxGeometry x="64" y="30" width="15" height="15" as="geometry" />
        </mxCell>
        <mxCell id="IJTUzlGgJpjvjqnyhvCo-177" style="edgeStyle=none;rounded=0;orthogonalLoop=1;jettySize=auto;html=1;exitX=0;exitY=0.5;exitDx=0;exitDy=0;entryX=1;entryY=0.5;entryDx=0;entryDy=0;strokeColor=#808080;strokeWidth=0.5;endArrow=none;endFill=0;" edge="1" parent="IJTUzlGgJpjvjqnyhvCo-147" source="IJTUzlGgJpjvjqnyhvCo-148" target="IJTUzlGgJpjvjqnyhvCo-176">
          <mxGeometry relative="1" as="geometry" />
        </mxCell>
        <mxCell id="IJTUzlGgJpjvjqnyhvCo-178" style="edgeStyle=none;rounded=0;orthogonalLoop=1;jettySize=auto;html=1;exitX=0;exitY=0.5;exitDx=0;exitDy=0;entryX=1;entryY=0.5;entryDx=0;entryDy=0;strokeColor=#808080;strokeWidth=0.5;endArrow=none;endFill=0;" edge="1" parent="IJTUzlGgJpjvjqnyhvCo-147" source="IJTUzlGgJpjvjqnyhvCo-149" target="IJTUzlGgJpjvjqnyhvCo-176">
          <mxGeometry relative="1" as="geometry" />
        </mxCell>
        <mxCell id="IJTUzlGgJpjvjqnyhvCo-179" style="edgeStyle=none;rounded=0;orthogonalLoop=1;jettySize=auto;html=1;exitX=0;exitY=0.5;exitDx=0;exitDy=0;entryX=1;entryY=0.5;entryDx=0;entryDy=0;strokeColor=#808080;strokeWidth=0.5;endArrow=none;endFill=0;" edge="1" parent="IJTUzlGgJpjvjqnyhvCo-147" source="IJTUzlGgJpjvjqnyhvCo-150" target="IJTUzlGgJpjvjqnyhvCo-176">
          <mxGeometry relative="1" as="geometry" />
        </mxCell>
        <mxCell id="IJTUzlGgJpjvjqnyhvCo-180" style="edgeStyle=none;rounded=0;orthogonalLoop=1;jettySize=auto;html=1;exitX=0;exitY=0.5;exitDx=0;exitDy=0;entryX=1;entryY=0.5;entryDx=0;entryDy=0;strokeColor=#808080;strokeWidth=0.5;endArrow=none;endFill=0;" edge="1" parent="IJTUzlGgJpjvjqnyhvCo-147" source="IJTUzlGgJpjvjqnyhvCo-152" target="IJTUzlGgJpjvjqnyhvCo-176">
          <mxGeometry relative="1" as="geometry" />
        </mxCell>
        <mxCell id="IJTUzlGgJpjvjqnyhvCo-181" style="edgeStyle=none;rounded=0;orthogonalLoop=1;jettySize=auto;html=1;exitX=0;exitY=0.5;exitDx=0;exitDy=0;entryX=1;entryY=0.5;entryDx=0;entryDy=0;strokeColor=#808080;strokeWidth=0.5;endArrow=none;endFill=0;" edge="1" parent="IJTUzlGgJpjvjqnyhvCo-147" source="IJTUzlGgJpjvjqnyhvCo-153" target="IJTUzlGgJpjvjqnyhvCo-176">
          <mxGeometry relative="1" as="geometry" />
        </mxCell>
        <mxCell id="IJTUzlGgJpjvjqnyhvCo-182" style="edgeStyle=none;rounded=0;orthogonalLoop=1;jettySize=auto;html=1;entryX=0;entryY=0.5;entryDx=0;entryDy=0;strokeColor=#808080;strokeWidth=0.5;endArrow=none;endFill=0;" edge="1" parent="IJTUzlGgJpjvjqnyhvCo-147" source="IJTUzlGgJpjvjqnyhvCo-183" target="IJTUzlGgJpjvjqnyhvCo-152">
          <mxGeometry relative="1" as="geometry" />
        </mxCell>
        <mxCell id="IJTUzlGgJpjvjqnyhvCo-183" value="" style="rounded=0;whiteSpace=wrap;html=1;fontFamily=Times New Roman;fontSize=2;strokeColor=#808080;rotation=-90;container=0;flipH=0;" vertex="1" parent="IJTUzlGgJpjvjqnyhvCo-147">
          <mxGeometry x="86" y="30" width="15" height="15" as="geometry" />
        </mxCell>
        <mxCell id="IJTUzlGgJpjvjqnyhvCo-184" style="edgeStyle=none;rounded=0;orthogonalLoop=1;jettySize=auto;html=1;exitX=0;exitY=0.5;exitDx=0;exitDy=0;entryX=1;entryY=0.5;entryDx=0;entryDy=0;strokeColor=#808080;strokeWidth=0.5;endArrow=none;endFill=0;" edge="1" parent="IJTUzlGgJpjvjqnyhvCo-147" source="IJTUzlGgJpjvjqnyhvCo-148" target="IJTUzlGgJpjvjqnyhvCo-183">
          <mxGeometry relative="1" as="geometry" />
        </mxCell>
        <mxCell id="IJTUzlGgJpjvjqnyhvCo-185" style="edgeStyle=none;rounded=0;orthogonalLoop=1;jettySize=auto;html=1;exitX=0;exitY=0.5;exitDx=0;exitDy=0;entryX=1;entryY=0.5;entryDx=0;entryDy=0;strokeColor=#808080;strokeWidth=0.5;endArrow=none;endFill=0;" edge="1" parent="IJTUzlGgJpjvjqnyhvCo-147" source="IJTUzlGgJpjvjqnyhvCo-149" target="IJTUzlGgJpjvjqnyhvCo-183">
          <mxGeometry relative="1" as="geometry" />
        </mxCell>
        <mxCell id="IJTUzlGgJpjvjqnyhvCo-186" style="edgeStyle=none;rounded=0;orthogonalLoop=1;jettySize=auto;html=1;exitX=0;exitY=0.5;exitDx=0;exitDy=0;entryX=1;entryY=0.5;entryDx=0;entryDy=0;strokeColor=#808080;strokeWidth=0.5;endArrow=none;endFill=0;" edge="1" parent="IJTUzlGgJpjvjqnyhvCo-147" source="IJTUzlGgJpjvjqnyhvCo-150" target="IJTUzlGgJpjvjqnyhvCo-183">
          <mxGeometry relative="1" as="geometry" />
        </mxCell>
        <mxCell id="IJTUzlGgJpjvjqnyhvCo-187" style="edgeStyle=none;rounded=0;orthogonalLoop=1;jettySize=auto;html=1;exitX=0;exitY=0.5;exitDx=0;exitDy=0;entryX=1;entryY=0.5;entryDx=0;entryDy=0;strokeColor=#808080;strokeWidth=0.5;endArrow=none;endFill=0;" edge="1" parent="IJTUzlGgJpjvjqnyhvCo-147" source="IJTUzlGgJpjvjqnyhvCo-151" target="IJTUzlGgJpjvjqnyhvCo-183">
          <mxGeometry relative="1" as="geometry" />
        </mxCell>
        <mxCell id="IJTUzlGgJpjvjqnyhvCo-188" style="edgeStyle=none;rounded=0;orthogonalLoop=1;jettySize=auto;html=1;exitX=0;exitY=0.5;exitDx=0;exitDy=0;entryX=1;entryY=0.5;entryDx=0;entryDy=0;strokeColor=#808080;strokeWidth=0.5;endArrow=none;endFill=0;" edge="1" parent="IJTUzlGgJpjvjqnyhvCo-147" source="IJTUzlGgJpjvjqnyhvCo-153" target="IJTUzlGgJpjvjqnyhvCo-183">
          <mxGeometry relative="1" as="geometry" />
        </mxCell>
        <mxCell id="IJTUzlGgJpjvjqnyhvCo-189" style="edgeStyle=none;rounded=0;orthogonalLoop=1;jettySize=auto;html=1;exitX=1;exitY=0.5;exitDx=0;exitDy=0;entryX=0;entryY=0.5;entryDx=0;entryDy=0;strokeColor=#808080;strokeWidth=0.5;endArrow=none;endFill=0;" edge="1" parent="IJTUzlGgJpjvjqnyhvCo-147" source="IJTUzlGgJpjvjqnyhvCo-190" target="IJTUzlGgJpjvjqnyhvCo-153">
          <mxGeometry relative="1" as="geometry" />
        </mxCell>
        <mxCell id="IJTUzlGgJpjvjqnyhvCo-190" value="" style="rounded=0;whiteSpace=wrap;html=1;fontFamily=Times New Roman;fontSize=2;strokeColor=#808080;rotation=-90;container=0;flipH=0;" vertex="1" parent="IJTUzlGgJpjvjqnyhvCo-147">
          <mxGeometry x="107" y="30" width="15" height="15" as="geometry" />
        </mxCell>
        <mxCell id="IJTUzlGgJpjvjqnyhvCo-191" style="edgeStyle=none;rounded=0;orthogonalLoop=1;jettySize=auto;html=1;exitX=0;exitY=0.5;exitDx=0;exitDy=0;entryX=1;entryY=0.5;entryDx=0;entryDy=0;strokeColor=#808080;strokeWidth=0.5;endArrow=none;endFill=0;" edge="1" parent="IJTUzlGgJpjvjqnyhvCo-147" source="IJTUzlGgJpjvjqnyhvCo-148" target="IJTUzlGgJpjvjqnyhvCo-190">
          <mxGeometry relative="1" as="geometry" />
        </mxCell>
        <mxCell id="IJTUzlGgJpjvjqnyhvCo-192" style="edgeStyle=none;rounded=0;orthogonalLoop=1;jettySize=auto;html=1;exitX=0;exitY=0.5;exitDx=0;exitDy=0;entryX=1;entryY=0.5;entryDx=0;entryDy=0;strokeColor=#808080;strokeWidth=0.5;endArrow=none;endFill=0;" edge="1" parent="IJTUzlGgJpjvjqnyhvCo-147" source="IJTUzlGgJpjvjqnyhvCo-149" target="IJTUzlGgJpjvjqnyhvCo-190">
          <mxGeometry relative="1" as="geometry" />
        </mxCell>
        <mxCell id="IJTUzlGgJpjvjqnyhvCo-193" style="edgeStyle=none;rounded=0;orthogonalLoop=1;jettySize=auto;html=1;exitX=0;exitY=0.5;exitDx=0;exitDy=0;entryX=1;entryY=0.5;entryDx=0;entryDy=0;strokeColor=#808080;strokeWidth=0.5;endArrow=none;endFill=0;" edge="1" parent="IJTUzlGgJpjvjqnyhvCo-147" source="IJTUzlGgJpjvjqnyhvCo-150" target="IJTUzlGgJpjvjqnyhvCo-190">
          <mxGeometry relative="1" as="geometry" />
        </mxCell>
        <mxCell id="IJTUzlGgJpjvjqnyhvCo-194" style="edgeStyle=none;rounded=0;orthogonalLoop=1;jettySize=auto;html=1;exitX=0;exitY=0.5;exitDx=0;exitDy=0;entryX=1;entryY=0.5;entryDx=0;entryDy=0;strokeColor=#808080;strokeWidth=0.5;endArrow=none;endFill=0;" edge="1" parent="IJTUzlGgJpjvjqnyhvCo-147" source="IJTUzlGgJpjvjqnyhvCo-151" target="IJTUzlGgJpjvjqnyhvCo-190">
          <mxGeometry relative="1" as="geometry" />
        </mxCell>
        <mxCell id="IJTUzlGgJpjvjqnyhvCo-195" style="edgeStyle=none;rounded=0;orthogonalLoop=1;jettySize=auto;html=1;exitX=0;exitY=0.5;exitDx=0;exitDy=0;entryX=1;entryY=0.5;entryDx=0;entryDy=0;strokeColor=#808080;strokeWidth=0.5;endArrow=none;endFill=0;" edge="1" parent="IJTUzlGgJpjvjqnyhvCo-147" source="IJTUzlGgJpjvjqnyhvCo-152" target="IJTUzlGgJpjvjqnyhvCo-190">
          <mxGeometry relative="1" as="geometry" />
        </mxCell>
        <mxCell id="IJTUzlGgJpjvjqnyhvCo-196" value="Target Encoder" style="rounded=1;whiteSpace=wrap;html=1;fontSize=15;fillColor=#d5e8d4;strokeColor=#82b366;strokeWidth=0.5;fillStyle=auto;fontFamily=Times New Roman;opacity=80;" vertex="1" parent="1">
          <mxGeometry x="-379.25" y="1792" width="260" height="50" as="geometry" />
        </mxCell>
      </root>
    </mxGraphModel>
  </diagram>
</mxfile>
